<svg width="951" height="318" viewBox="0 0 951 318" fill="none" xmlns="http://www.w3.org/2000/svg">
<mask id="path-1-inside-1_1893_20352" fill="white">
<path d="M232 0H744V93H232V0Z"/>
</mask>
<path d="M232 0H744V93H232V0Z" fill="#5D5D5D" fill-opacity="0.05"/>
<path d="M232 5H744V-5H232V5Z" fill="#0C1F38" mask="url(#path-1-inside-1_1893_20352)"/>
<path d="M262.89 54V37.2H265.962V51.6H273.402V54H262.89ZM280.141 54.288C279.117 54.288 278.277 54.128 277.621 53.808C276.965 53.472 276.477 53.032 276.157 52.488C275.837 51.944 275.677 51.344 275.677 50.688C275.677 49.584 276.109 48.688 276.973 48C277.837 47.312 279.133 46.968 280.861 46.968H283.885V46.68C283.885 45.864 283.653 45.264 283.189 44.88C282.725 44.496 282.149 44.304 281.461 44.304C280.837 44.304 280.293 44.456 279.829 44.76C279.365 45.048 279.077 45.48 278.965 46.056H275.965C276.045 45.192 276.333 44.44 276.829 43.8C277.341 43.16 277.997 42.672 278.797 42.336C279.597 41.984 280.493 41.808 281.485 41.808C283.181 41.808 284.517 42.232 285.493 43.08C286.469 43.928 286.957 45.128 286.957 46.68V54H284.341L284.053 52.08C283.701 52.72 283.205 53.248 282.565 53.664C281.941 54.08 281.133 54.288 280.141 54.288ZM280.837 51.888C281.717 51.888 282.397 51.6 282.877 51.024C283.373 50.448 283.685 49.736 283.813 48.888H281.197C280.381 48.888 279.797 49.04 279.445 49.344C279.093 49.632 278.917 49.992 278.917 50.424C278.917 50.888 279.093 51.248 279.445 51.504C279.797 51.76 280.261 51.888 280.837 51.888ZM295.679 54V37.2H301.415C303.383 37.2 304.999 37.552 306.263 38.256C307.543 38.944 308.487 39.92 309.095 41.184C309.719 42.432 310.031 43.904 310.031 45.6C310.031 47.296 309.719 48.776 309.095 50.04C308.487 51.288 307.543 52.264 306.263 52.968C304.999 53.656 303.383 54 301.415 54H295.679ZM298.751 51.36H301.271C302.679 51.36 303.791 51.136 304.607 50.688C305.423 50.224 306.007 49.568 306.359 48.72C306.711 47.856 306.887 46.816 306.887 45.6C306.887 44.4 306.711 43.368 306.359 42.504C306.007 41.64 305.423 40.976 304.607 40.512C303.791 40.048 302.679 39.816 301.271 39.816H298.751V51.36ZM314.325 40.248C313.765 40.248 313.301 40.08 312.933 39.744C312.581 39.408 312.405 38.984 312.405 38.472C312.405 37.96 312.581 37.544 312.933 37.224C313.301 36.888 313.765 36.72 314.325 36.72C314.885 36.72 315.341 36.888 315.693 37.224C316.061 37.544 316.245 37.96 316.245 38.472C316.245 38.984 316.061 39.408 315.693 39.744C315.341 40.08 314.885 40.248 314.325 40.248ZM312.789 54V42.096H315.861V54H312.789ZM319.068 54V42.096H321.804L322.092 44.328C322.524 43.56 323.108 42.952 323.844 42.504C324.596 42.04 325.476 41.808 326.484 41.808V45.048H325.62C324.948 45.048 324.348 45.152 323.82 45.36C323.292 45.568 322.876 45.928 322.572 46.44C322.284 46.952 322.14 47.664 322.14 48.576V54H319.068ZM334.157 54.288C332.957 54.288 331.893 54.032 330.965 53.52C330.037 53.008 329.309 52.288 328.781 51.36C328.253 50.432 327.989 49.36 327.989 48.144C327.989 46.912 328.245 45.816 328.757 44.856C329.285 43.896 330.005 43.152 330.917 42.624C331.845 42.08 332.933 41.808 334.181 41.808C335.349 41.808 336.381 42.064 337.277 42.576C338.173 43.088 338.869 43.792 339.365 44.688C339.877 45.568 340.133 46.552 340.133 47.64C340.133 47.816 340.125 48 340.109 48.192C340.109 48.384 340.101 48.584 340.085 48.792H331.037C331.101 49.72 331.421 50.448 331.997 50.976C332.589 51.504 333.301 51.768 334.133 51.768C334.757 51.768 335.277 51.632 335.693 51.36C336.125 51.072 336.445 50.704 336.653 50.256H339.773C339.549 51.008 339.173 51.696 338.645 52.32C338.133 52.928 337.493 53.408 336.725 53.76C335.973 54.112 335.117 54.288 334.157 54.288ZM334.181 44.304C333.429 44.304 332.765 44.52 332.189 44.952C331.613 45.368 331.245 46.008 331.085 46.872H337.013C336.965 46.088 336.677 45.464 336.149 45C335.621 44.536 334.965 44.304 334.181 44.304ZM348.548 54.288C347.332 54.288 346.26 54.024 345.332 53.496C344.404 52.968 343.668 52.232 343.124 51.288C342.596 50.344 342.332 49.264 342.332 48.048C342.332 46.832 342.596 45.752 343.124 44.808C343.668 43.864 344.404 43.128 345.332 42.6C346.26 42.072 347.332 41.808 348.548 41.808C350.068 41.808 351.348 42.208 352.388 43.008C353.428 43.792 354.092 44.88 354.38 46.272H351.14C350.98 45.696 350.66 45.248 350.18 44.928C349.716 44.592 349.164 44.424 348.524 44.424C347.676 44.424 346.956 44.744 346.364 45.384C345.772 46.024 345.476 46.912 345.476 48.048C345.476 49.184 345.772 50.072 346.364 50.712C346.956 51.352 347.676 51.672 348.524 51.672C349.164 51.672 349.716 51.512 350.18 51.192C350.66 50.872 350.98 50.416 351.14 49.824H354.38C354.092 51.168 353.428 52.248 352.388 53.064C351.348 53.88 350.068 54.288 348.548 54.288ZM362.247 54C360.999 54 359.999 53.696 359.247 53.088C358.495 52.48 358.119 51.4 358.119 49.848V44.664H356.079V42.096H358.119L358.479 38.904H361.191V42.096H364.407V44.664H361.191V49.872C361.191 50.448 361.311 50.848 361.551 51.072C361.807 51.28 362.239 51.384 362.847 51.384H364.335V54H362.247ZM368.7 40.248C368.14 40.248 367.676 40.08 367.308 39.744C366.956 39.408 366.78 38.984 366.78 38.472C366.78 37.96 366.956 37.544 367.308 37.224C367.676 36.888 368.14 36.72 368.7 36.72C369.26 36.72 369.716 36.888 370.068 37.224C370.436 37.544 370.62 37.96 370.62 38.472C370.62 38.984 370.436 39.408 370.068 39.744C369.716 40.08 369.26 40.248 368.7 40.248ZM367.164 54V42.096H370.236V54H367.164ZM379.155 54.288C378.003 54.288 376.963 54.024 376.035 53.496C375.123 52.968 374.395 52.24 373.851 51.312C373.323 50.368 373.059 49.28 373.059 48.048C373.059 46.816 373.331 45.736 373.875 44.808C374.419 43.864 375.147 43.128 376.059 42.6C376.987 42.072 378.027 41.808 379.179 41.808C380.315 41.808 381.339 42.072 382.251 42.6C383.179 43.128 383.907 43.864 384.435 44.808C384.979 45.736 385.251 46.816 385.251 48.048C385.251 49.28 384.979 50.368 384.435 51.312C383.907 52.24 383.179 52.968 382.251 53.496C381.323 54.024 380.291 54.288 379.155 54.288ZM379.155 51.624C379.955 51.624 380.651 51.328 381.243 50.736C381.835 50.128 382.131 49.232 382.131 48.048C382.131 46.864 381.835 45.976 381.243 45.384C380.651 44.776 379.963 44.472 379.179 44.472C378.363 44.472 377.659 44.776 377.067 45.384C376.491 45.976 376.203 46.864 376.203 48.048C376.203 49.232 376.491 50.128 377.067 50.736C377.659 51.328 378.355 51.624 379.155 51.624ZM387.998 54V42.096H390.71L390.95 44.112C391.318 43.408 391.846 42.848 392.534 42.432C393.238 42.016 394.062 41.808 395.006 41.808C396.478 41.808 397.622 42.272 398.438 43.2C399.253 44.128 399.661 45.488 399.661 47.28V54H396.59V47.568C396.59 46.544 396.382 45.76 395.966 45.216C395.55 44.672 394.902 44.4 394.022 44.4C393.158 44.4 392.446 44.704 391.886 45.312C391.342 45.92 391.07 46.768 391.07 47.856V54H387.998ZM413.79 54.288C412.67 54.288 411.67 54.016 410.79 53.472C409.91 52.928 409.214 52.184 408.702 51.24C408.19 50.296 407.934 49.224 407.934 48.024C407.934 46.824 408.19 45.76 408.702 44.832C409.214 43.888 409.91 43.152 410.79 42.624C411.67 42.08 412.67 41.808 413.79 41.808C414.686 41.808 415.47 41.976 416.142 42.312C416.814 42.648 417.358 43.12 417.774 43.728V36.72H420.846V54H418.11L417.774 52.296C417.39 52.824 416.878 53.288 416.238 53.688C415.614 54.088 414.798 54.288 413.79 54.288ZM414.438 51.6C415.43 51.6 416.238 51.272 416.862 50.616C417.502 49.944 417.822 49.088 417.822 48.048C417.822 47.008 417.502 46.16 416.862 45.504C416.238 44.832 415.43 44.496 414.438 44.496C413.462 44.496 412.654 44.824 412.014 45.48C411.374 46.136 411.054 46.984 411.054 48.024C411.054 49.064 411.374 49.92 412.014 50.592C412.654 51.264 413.462 51.6 414.438 51.6ZM429.758 54.288C428.558 54.288 427.494 54.032 426.566 53.52C425.638 53.008 424.91 52.288 424.382 51.36C423.854 50.432 423.59 49.36 423.59 48.144C423.59 46.912 423.846 45.816 424.358 44.856C424.886 43.896 425.606 43.152 426.518 42.624C427.446 42.08 428.534 41.808 429.782 41.808C430.95 41.808 431.982 42.064 432.878 42.576C433.774 43.088 434.47 43.792 434.966 44.688C435.478 45.568 435.734 46.552 435.734 47.64C435.734 47.816 435.726 48 435.71 48.192C435.71 48.384 435.702 48.584 435.686 48.792H426.638C426.702 49.72 427.022 50.448 427.598 50.976C428.19 51.504 428.902 51.768 429.734 51.768C430.358 51.768 430.878 51.632 431.294 51.36C431.726 51.072 432.046 50.704 432.254 50.256H435.374C435.15 51.008 434.774 51.696 434.246 52.32C433.734 52.928 433.094 53.408 432.326 53.76C431.574 54.112 430.718 54.288 429.758 54.288ZM429.782 44.304C429.03 44.304 428.366 44.52 427.79 44.952C427.214 45.368 426.846 46.008 426.686 46.872H432.614C432.566 46.088 432.278 45.464 431.75 45C431.222 44.536 430.566 44.304 429.782 44.304ZM443.238 54.288C442.182 54.288 441.254 54.12 440.454 53.784C439.654 53.432 439.014 52.952 438.534 52.344C438.054 51.736 437.766 51.032 437.67 50.232H440.766C440.862 50.696 441.118 51.096 441.534 51.432C441.966 51.752 442.518 51.912 443.19 51.912C443.862 51.912 444.35 51.776 444.654 51.504C444.974 51.232 445.134 50.92 445.134 50.568C445.134 50.056 444.91 49.712 444.462 49.536C444.014 49.344 443.39 49.16 442.59 48.984C442.078 48.872 441.558 48.736 441.03 48.576C440.502 48.416 440.014 48.216 439.566 47.976C439.134 47.72 438.782 47.4 438.51 47.016C438.238 46.616 438.102 46.128 438.102 45.552C438.102 44.496 438.518 43.608 439.35 42.888C440.198 42.168 441.382 41.808 442.902 41.808C444.31 41.808 445.43 42.136 446.262 42.792C447.11 43.448 447.614 44.352 447.774 45.504H444.87C444.694 44.624 444.03 44.184 442.878 44.184C442.302 44.184 441.854 44.296 441.534 44.52C441.23 44.744 441.078 45.024 441.078 45.36C441.078 45.712 441.31 45.992 441.774 46.2C442.238 46.408 442.854 46.6 443.622 46.776C444.454 46.968 445.214 47.184 445.902 47.424C446.606 47.648 447.166 47.992 447.582 48.456C447.998 48.904 448.206 49.552 448.206 50.4C448.222 51.136 448.03 51.8 447.63 52.392C447.23 52.984 446.654 53.448 445.902 53.784C445.15 54.12 444.262 54.288 443.238 54.288ZM456.718 54V37.2H460.366L465.718 47.856L470.998 37.2H474.646V54H471.574V42.408L466.894 51.6H464.47L459.79 42.408V54H456.718ZM483.545 54.288C482.393 54.288 481.353 54.024 480.425 53.496C479.513 52.968 478.785 52.24 478.241 51.312C477.713 50.368 477.449 49.28 477.449 48.048C477.449 46.816 477.721 45.736 478.265 44.808C478.809 43.864 479.537 43.128 480.449 42.6C481.377 42.072 482.417 41.808 483.569 41.808C484.705 41.808 485.729 42.072 486.641 42.6C487.569 43.128 488.297 43.864 488.825 44.808C489.369 45.736 489.641 46.816 489.641 48.048C489.641 49.28 489.369 50.368 488.825 51.312C488.297 52.24 487.569 52.968 486.641 53.496C485.713 54.024 484.681 54.288 483.545 54.288ZM483.545 51.624C484.345 51.624 485.041 51.328 485.633 50.736C486.225 50.128 486.521 49.232 486.521 48.048C486.521 46.864 486.225 45.976 485.633 45.384C485.041 44.776 484.353 44.472 483.569 44.472C482.753 44.472 482.049 44.776 481.457 45.384C480.881 45.976 480.593 46.864 480.593 48.048C480.593 49.232 480.881 50.128 481.457 50.736C482.049 51.328 482.745 51.624 483.545 51.624ZM492.798 59.28L495.558 53.208H494.838L490.206 42.096H493.542L496.878 50.472L500.358 42.096H503.622L496.062 59.28H492.798ZM510.383 54.288C509.183 54.288 508.119 54.032 507.191 53.52C506.263 53.008 505.535 52.288 505.007 51.36C504.479 50.432 504.215 49.36 504.215 48.144C504.215 46.912 504.471 45.816 504.983 44.856C505.511 43.896 506.231 43.152 507.143 42.624C508.071 42.08 509.159 41.808 510.407 41.808C511.575 41.808 512.607 42.064 513.503 42.576C514.399 43.088 515.095 43.792 515.591 44.688C516.103 45.568 516.359 46.552 516.359 47.64C516.359 47.816 516.351 48 516.335 48.192C516.335 48.384 516.327 48.584 516.311 48.792H507.263C507.327 49.72 507.647 50.448 508.223 50.976C508.815 51.504 509.527 51.768 510.359 51.768C510.983 51.768 511.503 51.632 511.919 51.36C512.351 51.072 512.671 50.704 512.879 50.256H515.999C515.775 51.008 515.399 51.696 514.871 52.32C514.359 52.928 513.719 53.408 512.951 53.76C512.199 54.112 511.343 54.288 510.383 54.288ZM510.407 44.304C509.655 44.304 508.991 44.52 508.415 44.952C507.839 45.368 507.471 46.008 507.311 46.872H513.239C513.191 46.088 512.903 45.464 512.375 45C511.847 44.536 511.191 44.304 510.407 44.304ZM518.943 54V42.096H521.655L521.895 44.112C522.263 43.408 522.791 42.848 523.479 42.432C524.183 42.016 525.007 41.808 525.951 41.808C527.423 41.808 528.567 42.272 529.383 43.2C530.199 44.128 530.607 45.488 530.607 47.28V54H527.535V47.568C527.535 46.544 527.327 45.76 526.911 45.216C526.495 44.672 525.847 44.4 524.967 44.4C524.103 44.4 523.391 44.704 522.831 45.312C522.287 45.92 522.015 46.768 522.015 47.856V54H518.943ZM538.464 54.288C537.408 54.288 536.48 54.12 535.68 53.784C534.88 53.432 534.24 52.952 533.76 52.344C533.28 51.736 532.992 51.032 532.896 50.232H535.992C536.088 50.696 536.344 51.096 536.76 51.432C537.192 51.752 537.744 51.912 538.416 51.912C539.088 51.912 539.576 51.776 539.88 51.504C540.2 51.232 540.36 50.92 540.36 50.568C540.36 50.056 540.136 49.712 539.688 49.536C539.24 49.344 538.616 49.16 537.816 48.984C537.304 48.872 536.784 48.736 536.256 48.576C535.728 48.416 535.24 48.216 534.792 47.976C534.36 47.72 534.008 47.4 533.736 47.016C533.464 46.616 533.328 46.128 533.328 45.552C533.328 44.496 533.744 43.608 534.576 42.888C535.424 42.168 536.608 41.808 538.128 41.808C539.536 41.808 540.656 42.136 541.488 42.792C542.336 43.448 542.84 44.352 543 45.504H540.096C539.92 44.624 539.256 44.184 538.104 44.184C537.528 44.184 537.08 44.296 536.76 44.52C536.456 44.744 536.304 45.024 536.304 45.36C536.304 45.712 536.536 45.992 537 46.2C537.464 46.408 538.08 46.6 538.848 46.776C539.68 46.968 540.44 47.184 541.128 47.424C541.832 47.648 542.392 47.992 542.808 48.456C543.224 48.904 543.432 49.552 543.432 50.4C543.448 51.136 543.256 51.8 542.856 52.392C542.456 52.984 541.88 53.448 541.128 53.784C540.376 54.12 539.488 54.288 538.464 54.288ZM551.945 54V37.2H555.017V54H551.945ZM558.201 54V42.096H560.913L561.153 44.112C561.521 43.408 562.049 42.848 562.737 42.432C563.441 42.016 564.265 41.808 565.209 41.808C566.681 41.808 567.825 42.272 568.641 43.2C569.457 44.128 569.865 45.488 569.865 47.28V54H566.793V47.568C566.793 46.544 566.585 45.76 566.169 45.216C565.753 44.672 565.105 44.4 564.225 44.4C563.361 44.4 562.649 44.704 562.089 45.312C561.545 45.92 561.273 46.768 561.273 47.856V54H558.201ZM573.354 54V44.664H571.722V42.096H573.354V40.704C573.354 39.264 573.714 38.24 574.434 37.632C575.17 37.024 576.162 36.72 577.41 36.72H578.73V39.336H577.89C577.362 39.336 576.986 39.44 576.762 39.648C576.538 39.856 576.426 40.208 576.426 40.704V42.096H578.994V44.664H576.426V54H573.354ZM586.67 54.288C585.518 54.288 584.478 54.024 583.55 53.496C582.638 52.968 581.91 52.24 581.366 51.312C580.838 50.368 580.574 49.28 580.574 48.048C580.574 46.816 580.846 45.736 581.39 44.808C581.934 43.864 582.662 43.128 583.574 42.6C584.502 42.072 585.542 41.808 586.694 41.808C587.83 41.808 588.854 42.072 589.766 42.6C590.694 43.128 591.422 43.864 591.95 44.808C592.494 45.736 592.766 46.816 592.766 48.048C592.766 49.28 592.494 50.368 591.95 51.312C591.422 52.24 590.694 52.968 589.766 53.496C588.838 54.024 587.806 54.288 586.67 54.288ZM586.67 51.624C587.47 51.624 588.166 51.328 588.758 50.736C589.35 50.128 589.646 49.232 589.646 48.048C589.646 46.864 589.35 45.976 588.758 45.384C588.166 44.776 587.478 44.472 586.694 44.472C585.878 44.472 585.174 44.776 584.582 45.384C584.006 45.976 583.718 46.864 583.718 48.048C583.718 49.232 584.006 50.128 584.582 50.736C585.174 51.328 585.87 51.624 586.67 51.624ZM595.513 54V42.096H598.249L598.537 44.328C598.969 43.56 599.553 42.952 600.289 42.504C601.041 42.04 601.921 41.808 602.929 41.808V45.048H602.065C601.393 45.048 600.793 45.152 600.265 45.36C599.737 45.568 599.321 45.928 599.017 46.44C598.729 46.952 598.585 47.664 598.585 48.576V54H595.513ZM605.029 54V42.096H607.741L608.005 43.704C608.389 43.128 608.893 42.672 609.517 42.336C610.157 41.984 610.893 41.808 611.725 41.808C613.565 41.808 614.869 42.52 615.637 43.944C616.069 43.288 616.645 42.768 617.365 42.384C618.101 42 618.901 41.808 619.765 41.808C621.317 41.808 622.509 42.272 623.341 43.2C624.173 44.128 624.589 45.488 624.589 47.28V54H621.517V47.568C621.517 46.544 621.317 45.76 620.917 45.216C620.533 44.672 619.933 44.4 619.117 44.4C618.285 44.4 617.613 44.704 617.101 45.312C616.605 45.92 616.357 46.768 616.357 47.856V54H613.285V47.568C613.285 46.544 613.085 45.76 612.685 45.216C612.285 44.672 611.669 44.4 610.837 44.4C610.021 44.4 609.357 44.704 608.845 45.312C608.349 45.92 608.101 46.768 608.101 47.856V54H605.029ZM631.609 54.288C630.585 54.288 629.745 54.128 629.089 53.808C628.433 53.472 627.945 53.032 627.625 52.488C627.305 51.944 627.145 51.344 627.145 50.688C627.145 49.584 627.577 48.688 628.441 48C629.305 47.312 630.601 46.968 632.329 46.968H635.353V46.68C635.353 45.864 635.121 45.264 634.657 44.88C634.193 44.496 633.617 44.304 632.929 44.304C632.305 44.304 631.761 44.456 631.297 44.76C630.833 45.048 630.545 45.48 630.433 46.056H627.433C627.513 45.192 627.801 44.44 628.297 43.8C628.809 43.16 629.465 42.672 630.265 42.336C631.065 41.984 631.961 41.808 632.953 41.808C634.649 41.808 635.985 42.232 636.961 43.08C637.937 43.928 638.425 45.128 638.425 46.68V54H635.809L635.521 52.08C635.169 52.72 634.673 53.248 634.033 53.664C633.409 54.08 632.601 54.288 631.609 54.288ZM632.305 51.888C633.185 51.888 633.865 51.6 634.345 51.024C634.841 50.448 635.153 49.736 635.281 48.888H632.665C631.849 48.888 631.265 49.04 630.913 49.344C630.561 49.632 630.385 49.992 630.385 50.424C630.385 50.888 630.561 51.248 630.913 51.504C631.265 51.76 631.729 51.888 632.305 51.888ZM646.497 54C645.249 54 644.249 53.696 643.497 53.088C642.745 52.48 642.369 51.4 642.369 49.848V44.664H640.329V42.096H642.369L642.729 38.904H645.441V42.096H648.657V44.664H645.441V49.872C645.441 50.448 645.561 50.848 645.801 51.072C646.057 51.28 646.489 51.384 647.097 51.384H648.585V54H646.497ZM652.95 40.248C652.39 40.248 651.926 40.08 651.558 39.744C651.206 39.408 651.03 38.984 651.03 38.472C651.03 37.96 651.206 37.544 651.558 37.224C651.926 36.888 652.39 36.72 652.95 36.72C653.51 36.72 653.966 36.888 654.318 37.224C654.686 37.544 654.87 37.96 654.87 38.472C654.87 38.984 654.686 39.408 654.318 39.744C653.966 40.08 653.51 40.248 652.95 40.248ZM651.414 54V42.096H654.486V54H651.414ZM667.149 59.28V52.296C666.765 52.824 666.253 53.288 665.613 53.688C664.989 54.088 664.173 54.288 663.165 54.288C662.045 54.288 661.045 54.016 660.165 53.472C659.285 52.928 658.589 52.184 658.077 51.24C657.565 50.296 657.309 49.224 657.309 48.024C657.309 46.824 657.565 45.76 658.077 44.832C658.589 43.888 659.285 43.152 660.165 42.624C661.045 42.08 662.045 41.808 663.165 41.808C664.061 41.808 664.845 41.976 665.517 42.312C666.189 42.648 666.733 43.12 667.149 43.728L667.485 42.096H670.221V59.28H667.149ZM663.813 51.6C664.805 51.6 665.613 51.272 666.237 50.616C666.877 49.944 667.197 49.088 667.197 48.048C667.197 47.008 666.877 46.16 666.237 45.504C665.613 44.832 664.805 44.496 663.813 44.496C662.837 44.496 662.029 44.824 661.389 45.48C660.749 46.136 660.429 46.984 660.429 48.024C660.429 49.064 660.749 49.92 661.389 50.592C662.029 51.264 662.837 51.6 663.813 51.6ZM677.813 54.288C676.325 54.288 675.173 53.824 674.357 52.896C673.557 51.968 673.157 50.608 673.157 48.816V42.096H676.205V48.528C676.205 49.552 676.413 50.336 676.829 50.88C677.245 51.424 677.901 51.696 678.797 51.696C679.645 51.696 680.341 51.392 680.885 50.784C681.445 50.176 681.725 49.328 681.725 48.24V42.096H684.797V54H682.085L681.845 51.984C681.477 52.688 680.941 53.248 680.237 53.664C679.549 54.08 678.741 54.288 677.813 54.288ZM693.735 54.288C692.535 54.288 691.471 54.032 690.543 53.52C689.615 53.008 688.887 52.288 688.359 51.36C687.831 50.432 687.567 49.36 687.567 48.144C687.567 46.912 687.823 45.816 688.335 44.856C688.863 43.896 689.583 43.152 690.495 42.624C691.423 42.08 692.511 41.808 693.759 41.808C694.927 41.808 695.959 42.064 696.855 42.576C697.751 43.088 698.447 43.792 698.943 44.688C699.455 45.568 699.711 46.552 699.711 47.64C699.711 47.816 699.703 48 699.687 48.192C699.687 48.384 699.679 48.584 699.663 48.792H690.615C690.679 49.72 690.999 50.448 691.575 50.976C692.167 51.504 692.879 51.768 693.711 51.768C694.335 51.768 694.855 51.632 695.271 51.36C695.703 51.072 696.023 50.704 696.231 50.256H699.351C699.127 51.008 698.751 51.696 698.223 52.32C697.711 52.928 697.071 53.408 696.303 53.76C695.551 54.112 694.695 54.288 693.735 54.288ZM693.759 44.304C693.007 44.304 692.343 44.52 691.767 44.952C691.191 45.368 690.823 46.008 690.663 46.872H696.591C696.543 46.088 696.255 45.464 695.727 45C695.199 44.536 694.543 44.304 693.759 44.304ZM707.214 54.288C706.158 54.288 705.23 54.12 704.43 53.784C703.63 53.432 702.99 52.952 702.51 52.344C702.03 51.736 701.742 51.032 701.646 50.232H704.742C704.838 50.696 705.094 51.096 705.51 51.432C705.942 51.752 706.494 51.912 707.166 51.912C707.838 51.912 708.326 51.776 708.63 51.504C708.95 51.232 709.11 50.92 709.11 50.568C709.11 50.056 708.886 49.712 708.438 49.536C707.99 49.344 707.366 49.16 706.566 48.984C706.054 48.872 705.534 48.736 705.006 48.576C704.478 48.416 703.99 48.216 703.542 47.976C703.11 47.72 702.758 47.4 702.486 47.016C702.214 46.616 702.078 46.128 702.078 45.552C702.078 44.496 702.494 43.608 703.326 42.888C704.174 42.168 705.358 41.808 706.878 41.808C708.286 41.808 709.406 42.136 710.238 42.792C711.086 43.448 711.59 44.352 711.75 45.504H708.846C708.67 44.624 708.006 44.184 706.854 44.184C706.278 44.184 705.83 44.296 705.51 44.52C705.206 44.744 705.054 45.024 705.054 45.36C705.054 45.712 705.286 45.992 705.75 46.2C706.214 46.408 706.83 46.6 707.598 46.776C708.43 46.968 709.19 47.184 709.878 47.424C710.582 47.648 711.142 47.992 711.558 48.456C711.974 48.904 712.182 49.552 712.182 50.4C712.198 51.136 712.006 51.8 711.606 52.392C711.206 52.984 710.63 53.448 709.878 53.784C709.126 54.12 708.238 54.288 707.214 54.288Z" fill="black"/>
<mask id="path-4-inside-2_1893_20352" fill="white">
<path d="M0 184H305V298H0V184Z"/>
</mask>
<path d="M0 184H305V298H0V184Z" fill="#5D5D5D" fill-opacity="0.05"/>
<path d="M0 189H305V179H0V189Z" fill="#1B76FF" mask="url(#path-4-inside-2_1893_20352)"/>
<path d="M60.9249 227.264C59.7956 227.264 58.7982 227.073 57.9329 226.692C57.0676 226.296 56.3856 225.739 55.8869 225.02C55.3882 224.287 55.1316 223.399 55.1169 222.358H58.0869C58.1162 223.077 58.3729 223.685 58.8569 224.184C59.3556 224.668 60.0376 224.91 60.9029 224.91C61.6509 224.91 62.2449 224.734 62.6849 224.382C63.1249 224.015 63.3449 223.531 63.3449 222.93C63.3449 222.299 63.1469 221.808 62.7509 221.456C62.3696 221.104 61.8562 220.818 61.2109 220.598C60.5656 220.378 59.8762 220.143 59.1429 219.894C57.9549 219.483 57.0456 218.955 56.4149 218.31C55.7989 217.665 55.4909 216.807 55.4909 215.736C55.4762 214.827 55.6889 214.049 56.1289 213.404C56.5836 212.744 57.1996 212.238 57.9769 211.886C58.7542 211.519 59.6489 211.336 60.6609 211.336C61.6876 211.336 62.5896 211.519 63.3669 211.886C64.1589 212.253 64.7749 212.766 65.2149 213.426C65.6696 214.086 65.9116 214.871 65.9409 215.78H62.9269C62.9122 215.237 62.6996 214.761 62.2889 214.35C61.8929 213.925 61.3356 213.712 60.6169 213.712C60.0009 213.697 59.4802 213.851 59.0549 214.174C58.6442 214.482 58.4389 214.937 58.4389 215.538C58.4389 216.051 58.6002 216.462 58.9229 216.77C59.2456 217.063 59.6856 217.313 60.2429 217.518C60.8002 217.723 61.4382 217.943 62.1569 218.178C62.9196 218.442 63.6162 218.75 64.2469 219.102C64.8776 219.454 65.3836 219.923 65.7649 220.51C66.1462 221.082 66.3369 221.823 66.3369 222.732C66.3369 223.539 66.1316 224.287 65.7209 224.976C65.3102 225.665 64.7016 226.223 63.8949 226.648C63.0882 227.059 62.0982 227.264 60.9249 227.264ZM74.0299 227.264C72.9299 227.264 71.9545 227.029 71.1039 226.56C70.2532 226.091 69.5859 225.431 69.1019 224.58C68.6179 223.729 68.3759 222.747 68.3759 221.632C68.3759 220.503 68.6105 219.498 69.0799 218.618C69.5639 217.738 70.2239 217.056 71.0599 216.572C71.9105 216.073 72.9079 215.824 74.0519 215.824C75.1225 215.824 76.0685 216.059 76.8899 216.528C77.7112 216.997 78.3492 217.643 78.8039 218.464C79.2732 219.271 79.5079 220.173 79.5079 221.17C79.5079 221.331 79.5005 221.5 79.4859 221.676C79.4859 221.852 79.4785 222.035 79.4639 222.226H71.1699C71.2285 223.077 71.5219 223.744 72.0499 224.228C72.5925 224.712 73.2452 224.954 74.0079 224.954C74.5799 224.954 75.0565 224.829 75.4379 224.58C75.8339 224.316 76.1272 223.979 76.3179 223.568H79.1779C78.9725 224.257 78.6279 224.888 78.1439 225.46C77.6745 226.017 77.0879 226.457 76.3839 226.78C75.6945 227.103 74.9099 227.264 74.0299 227.264ZM74.0519 218.112C73.3625 218.112 72.7539 218.31 72.2259 218.706C71.6979 219.087 71.3605 219.674 71.2139 220.466H76.6479C76.6039 219.747 76.3399 219.175 75.8559 218.75C75.3719 218.325 74.7705 218.112 74.0519 218.112ZM81.8763 227V216.088H84.3843L84.6483 218.134C85.0443 217.43 85.5796 216.873 86.2543 216.462C86.9436 216.037 87.7503 215.824 88.6743 215.824V218.794H87.8823C87.2663 218.794 86.7163 218.889 86.2323 219.08C85.7483 219.271 85.367 219.601 85.0883 220.07C84.8243 220.539 84.6923 221.192 84.6923 222.028V227H81.8763ZM93.5469 227L89.5429 216.088H92.4909L95.2629 224.338L98.0349 216.088H100.983L96.9569 227H93.5469ZM104.277 214.394C103.764 214.394 103.338 214.24 103.001 213.932C102.678 213.624 102.517 213.235 102.517 212.766C102.517 212.297 102.678 211.915 103.001 211.622C103.338 211.314 103.764 211.16 104.277 211.16C104.79 211.16 105.208 211.314 105.531 211.622C105.868 211.915 106.037 212.297 106.037 212.766C106.037 213.235 105.868 213.624 105.531 213.932C105.208 214.24 104.79 214.394 104.277 214.394ZM102.869 227V216.088H105.685V227H102.869ZM113.97 227.264C112.856 227.264 111.873 227.022 111.022 226.538C110.172 226.054 109.497 225.379 108.998 224.514C108.514 223.649 108.272 222.659 108.272 221.544C108.272 220.429 108.514 219.439 108.998 218.574C109.497 217.709 110.172 217.034 111.022 216.55C111.873 216.066 112.856 215.824 113.97 215.824C115.364 215.824 116.537 216.191 117.49 216.924C118.444 217.643 119.052 218.64 119.316 219.916H116.346C116.2 219.388 115.906 218.977 115.466 218.684C115.041 218.376 114.535 218.222 113.948 218.222C113.171 218.222 112.511 218.515 111.968 219.102C111.426 219.689 111.154 220.503 111.154 221.544C111.154 222.585 111.426 223.399 111.968 223.986C112.511 224.573 113.171 224.866 113.948 224.866C114.535 224.866 115.041 224.719 115.466 224.426C115.906 224.133 116.2 223.715 116.346 223.172H119.316C119.052 224.404 118.444 225.394 117.49 226.142C116.537 226.89 115.364 227.264 113.97 227.264ZM127.118 227.264C126.018 227.264 125.042 227.029 124.192 226.56C123.341 226.091 122.674 225.431 122.19 224.58C121.706 223.729 121.464 222.747 121.464 221.632C121.464 220.503 121.698 219.498 122.168 218.618C122.652 217.738 123.312 217.056 124.148 216.572C124.998 216.073 125.996 215.824 127.14 215.824C128.21 215.824 129.156 216.059 129.978 216.528C130.799 216.997 131.437 217.643 131.892 218.464C132.361 219.271 132.596 220.173 132.596 221.17C132.596 221.331 132.588 221.5 132.574 221.676C132.574 221.852 132.566 222.035 132.552 222.226H124.258C124.316 223.077 124.61 223.744 125.138 224.228C125.68 224.712 126.333 224.954 127.096 224.954C127.668 224.954 128.144 224.829 128.526 224.58C128.922 224.316 129.215 223.979 129.406 223.568H132.266C132.06 224.257 131.716 224.888 131.232 225.46C130.762 226.017 130.176 226.457 129.472 226.78C128.782 227.103 127.998 227.264 127.118 227.264ZM127.14 218.112C126.45 218.112 125.842 218.31 125.314 218.706C124.786 219.087 124.448 219.674 124.302 220.466H129.736C129.692 219.747 129.428 219.175 128.944 218.75C128.46 218.325 127.858 218.112 127.14 218.112ZM145.222 227.264C144.196 227.264 143.279 227.015 142.472 226.516C141.666 226.017 141.028 225.335 140.558 224.47C140.089 223.605 139.854 222.622 139.854 221.522C139.854 220.422 140.089 219.447 140.558 218.596C141.028 217.731 141.666 217.056 142.472 216.572C143.279 216.073 144.196 215.824 145.222 215.824C146.044 215.824 146.762 215.978 147.378 216.286C147.994 216.594 148.493 217.027 148.874 217.584V211.16H151.69V227H149.182L148.874 225.438C148.522 225.922 148.053 226.347 147.466 226.714C146.894 227.081 146.146 227.264 145.222 227.264ZM145.816 224.8C146.726 224.8 147.466 224.499 148.038 223.898C148.625 223.282 148.918 222.497 148.918 221.544C148.918 220.591 148.625 219.813 148.038 219.212C147.466 218.596 146.726 218.288 145.816 218.288C144.922 218.288 144.181 218.589 143.594 219.19C143.008 219.791 142.714 220.569 142.714 221.522C142.714 222.475 143.008 223.26 143.594 223.876C144.181 224.492 144.922 224.8 145.816 224.8ZM159.86 227.264C158.76 227.264 157.785 227.029 156.934 226.56C156.083 226.091 155.416 225.431 154.932 224.58C154.448 223.729 154.206 222.747 154.206 221.632C154.206 220.503 154.441 219.498 154.91 218.618C155.394 217.738 156.054 217.056 156.89 216.572C157.741 216.073 158.738 215.824 159.882 215.824C160.953 215.824 161.899 216.059 162.72 216.528C163.541 216.997 164.179 217.643 164.634 218.464C165.103 219.271 165.338 220.173 165.338 221.17C165.338 221.331 165.331 221.5 165.316 221.676C165.316 221.852 165.309 222.035 165.294 222.226H157C157.059 223.077 157.352 223.744 157.88 224.228C158.423 224.712 159.075 224.954 159.838 224.954C160.41 224.954 160.887 224.829 161.268 224.58C161.664 224.316 161.957 223.979 162.148 223.568H165.008C164.803 224.257 164.458 224.888 163.974 225.46C163.505 226.017 162.918 226.457 162.214 226.78C161.525 227.103 160.74 227.264 159.86 227.264ZM159.882 218.112C159.193 218.112 158.584 218.31 158.056 218.706C157.528 219.087 157.191 219.674 157.044 220.466H162.478C162.434 219.747 162.17 219.175 161.686 218.75C161.202 218.325 160.601 218.112 159.882 218.112ZM177.569 223.744C177.041 223.744 176.549 223.685 176.095 223.568L175.281 224.382C175.53 224.514 175.867 224.624 176.293 224.712C176.718 224.8 177.407 224.888 178.361 224.976C179.813 225.108 180.869 225.453 181.529 226.01C182.189 226.567 182.519 227.337 182.519 228.32C182.519 228.965 182.343 229.574 181.991 230.146C181.639 230.733 181.096 231.202 180.363 231.554C179.629 231.921 178.691 232.104 177.547 232.104C175.992 232.104 174.738 231.811 173.785 231.224C172.831 230.652 172.355 229.787 172.355 228.628C172.355 227.645 172.831 226.795 173.785 226.076C173.491 225.944 173.235 225.805 173.015 225.658C172.809 225.511 172.626 225.357 172.465 225.196V224.69L174.379 222.666C173.528 221.918 173.103 220.957 173.103 219.784C173.103 219.051 173.279 218.383 173.631 217.782C173.997 217.181 174.511 216.704 175.171 216.352C175.831 216 176.63 215.824 177.569 215.824C178.185 215.824 178.757 215.912 179.285 216.088H183.421V217.804L181.551 217.936C181.844 218.493 181.991 219.109 181.991 219.784C181.991 220.517 181.815 221.185 181.463 221.786C181.111 222.387 180.597 222.864 179.923 223.216C179.263 223.568 178.478 223.744 177.569 223.744ZM177.569 221.588C178.141 221.588 178.61 221.434 178.977 221.126C179.358 220.818 179.549 220.378 179.549 219.806C179.549 219.234 179.358 218.794 178.977 218.486C178.61 218.178 178.141 218.024 177.569 218.024C176.967 218.024 176.483 218.178 176.117 218.486C175.75 218.794 175.567 219.234 175.567 219.806C175.567 220.378 175.75 220.818 176.117 221.126C176.483 221.434 176.967 221.588 177.569 221.588ZM174.929 228.342C174.929 228.885 175.178 229.288 175.677 229.552C176.19 229.831 176.813 229.97 177.547 229.97C178.251 229.97 178.823 229.823 179.263 229.53C179.703 229.251 179.923 228.87 179.923 228.386C179.923 227.99 179.776 227.66 179.483 227.396C179.204 227.132 178.639 226.971 177.789 226.912C177.187 226.868 176.63 226.802 176.117 226.714C175.691 226.949 175.383 227.205 175.193 227.484C175.017 227.763 174.929 228.049 174.929 228.342ZM190.346 227.264C189.246 227.264 188.271 227.029 187.42 226.56C186.57 226.091 185.902 225.431 185.418 224.58C184.934 223.729 184.692 222.747 184.692 221.632C184.692 220.503 184.927 219.498 185.396 218.618C185.88 217.738 186.54 217.056 187.376 216.572C188.227 216.073 189.224 215.824 190.368 215.824C191.439 215.824 192.385 216.059 193.206 216.528C194.028 216.997 194.666 217.643 195.12 218.464C195.59 219.271 195.824 220.173 195.824 221.17C195.824 221.331 195.817 221.5 195.802 221.676C195.802 221.852 195.795 222.035 195.78 222.226H187.486C187.545 223.077 187.838 223.744 188.366 224.228C188.909 224.712 189.562 224.954 190.324 224.954C190.896 224.954 191.373 224.829 191.754 224.58C192.15 224.316 192.444 223.979 192.634 223.568H195.494C195.289 224.257 194.944 224.888 194.46 225.46C193.991 226.017 193.404 226.457 192.7 226.78C192.011 227.103 191.226 227.264 190.346 227.264ZM190.368 218.112C189.679 218.112 189.07 218.31 188.542 218.706C188.014 219.087 187.677 219.674 187.53 220.466H192.964C192.92 219.747 192.656 219.175 192.172 218.75C191.688 218.325 191.087 218.112 190.368 218.112ZM202.703 227.264C201.735 227.264 200.884 227.11 200.151 226.802C199.417 226.479 198.831 226.039 198.391 225.482C197.951 224.925 197.687 224.279 197.599 223.546H200.437C200.525 223.971 200.759 224.338 201.141 224.646C201.537 224.939 202.043 225.086 202.659 225.086C203.275 225.086 203.722 224.961 204.001 224.712C204.294 224.463 204.441 224.177 204.441 223.854C204.441 223.385 204.235 223.069 203.825 222.908C203.414 222.732 202.842 222.563 202.109 222.402C201.639 222.299 201.163 222.175 200.679 222.028C200.195 221.881 199.747 221.698 199.337 221.478C198.941 221.243 198.618 220.95 198.369 220.598C198.119 220.231 197.995 219.784 197.995 219.256C197.995 218.288 198.376 217.474 199.139 216.814C199.916 216.154 201.001 215.824 202.395 215.824C203.685 215.824 204.712 216.125 205.475 216.726C206.252 217.327 206.714 218.156 206.861 219.212H204.199C204.037 218.405 203.429 218.002 202.373 218.002C201.845 218.002 201.434 218.105 201.141 218.31C200.862 218.515 200.723 218.772 200.723 219.08C200.723 219.403 200.935 219.659 201.361 219.85C201.786 220.041 202.351 220.217 203.055 220.378C203.817 220.554 204.514 220.752 205.145 220.972C205.79 221.177 206.303 221.493 206.685 221.918C207.066 222.329 207.257 222.923 207.257 223.7C207.271 224.375 207.095 224.983 206.729 225.526C206.362 226.069 205.834 226.494 205.145 226.802C204.455 227.11 203.641 227.264 202.703 227.264ZM214.27 227C213.126 227 212.209 226.721 211.52 226.164C210.83 225.607 210.486 224.617 210.486 223.194V218.442H208.616V216.088H210.486L210.816 213.162H213.302V216.088H216.25V218.442H213.302V223.216C213.302 223.744 213.412 224.111 213.632 224.316C213.866 224.507 214.262 224.602 214.82 224.602H216.184V227H214.27ZM220.185 214.394C219.672 214.394 219.247 214.24 218.909 213.932C218.587 213.624 218.425 213.235 218.425 212.766C218.425 212.297 218.587 211.915 218.909 211.622C219.247 211.314 219.672 211.16 220.185 211.16C220.699 211.16 221.117 211.314 221.439 211.622C221.777 211.915 221.945 212.297 221.945 212.766C221.945 213.235 221.777 213.624 221.439 213.932C221.117 214.24 220.699 214.394 220.185 214.394ZM218.777 227V216.088H221.593V227H218.777ZM229.769 227.264C228.713 227.264 227.759 227.022 226.909 226.538C226.073 226.054 225.405 225.387 224.907 224.536C224.423 223.671 224.181 222.673 224.181 221.544C224.181 220.415 224.43 219.425 224.929 218.574C225.427 217.709 226.095 217.034 226.931 216.55C227.781 216.066 228.735 215.824 229.791 215.824C230.832 215.824 231.771 216.066 232.607 216.55C233.457 217.034 234.125 217.709 234.609 218.574C235.107 219.425 235.357 220.415 235.357 221.544C235.357 222.673 235.107 223.671 234.609 224.536C234.125 225.387 233.457 226.054 232.607 226.538C231.756 227.022 230.81 227.264 229.769 227.264ZM229.769 224.822C230.502 224.822 231.14 224.551 231.683 224.008C232.225 223.451 232.497 222.629 232.497 221.544C232.497 220.459 232.225 219.645 231.683 219.102C231.14 218.545 230.509 218.266 229.791 218.266C229.043 218.266 228.397 218.545 227.855 219.102C227.327 219.645 227.063 220.459 227.063 221.544C227.063 222.629 227.327 223.451 227.855 224.008C228.397 224.551 229.035 224.822 229.769 224.822ZM237.874 227V216.088H240.36L240.58 217.936C240.918 217.291 241.402 216.777 242.032 216.396C242.678 216.015 243.433 215.824 244.298 215.824C245.648 215.824 246.696 216.249 247.444 217.1C248.192 217.951 248.566 219.197 248.566 220.84V227H245.75V221.104C245.75 220.165 245.56 219.447 245.178 218.948C244.797 218.449 244.203 218.2 243.396 218.2C242.604 218.2 241.952 218.479 241.438 219.036C240.94 219.593 240.69 220.371 240.69 221.368V227H237.874ZM30.6038 267V256.088H33.1118L33.3758 258.134C33.7718 257.43 34.3072 256.873 34.9818 256.462C35.6712 256.037 36.4778 255.824 37.4018 255.824V258.794H36.6098C35.9938 258.794 35.4438 258.889 34.9598 259.08C34.4758 259.271 34.0945 259.601 33.8158 260.07C33.5518 260.539 33.4198 261.192 33.4198 262.028V267H30.6038ZM44.4351 267.264C43.3351 267.264 42.3598 267.029 41.5091 266.56C40.6585 266.091 39.9911 265.431 39.5071 264.58C39.0231 263.729 38.7811 262.747 38.7811 261.632C38.7811 260.503 39.0158 259.498 39.4851 258.618C39.9691 257.738 40.6291 257.056 41.4651 256.572C42.3158 256.073 43.3131 255.824 44.4571 255.824C45.5278 255.824 46.4738 256.059 47.2951 256.528C48.1165 256.997 48.7545 257.643 49.2091 258.464C49.6785 259.271 49.9131 260.173 49.9131 261.17C49.9131 261.331 49.9058 261.5 49.8911 261.676C49.8911 261.852 49.8838 262.035 49.8691 262.226H41.5751C41.6338 263.077 41.9271 263.744 42.4551 264.228C42.9978 264.712 43.6505 264.954 44.4131 264.954C44.9851 264.954 45.4618 264.829 45.8431 264.58C46.2391 264.316 46.5325 263.979 46.7231 263.568H49.5831C49.3778 264.257 49.0331 264.888 48.5491 265.46C48.0798 266.017 47.4931 266.457 46.7891 266.78C46.0998 267.103 45.3151 267.264 44.4351 267.264ZM44.4571 258.112C43.7678 258.112 43.1591 258.31 42.6311 258.706C42.1031 259.087 41.7658 259.674 41.6191 260.466H47.0531C47.0091 259.747 46.7451 259.175 46.2611 258.75C45.7771 258.325 45.1758 258.112 44.4571 258.112ZM43.6651 255.208V253.228L48.6371 250.544V252.832L43.6651 255.208ZM56.7916 267.264C55.8236 267.264 54.9729 267.11 54.2396 266.802C53.5062 266.479 52.9196 266.039 52.4796 265.482C52.0396 264.925 51.7756 264.279 51.6876 263.546H54.5256C54.6136 263.971 54.8482 264.338 55.2296 264.646C55.6256 264.939 56.1316 265.086 56.7476 265.086C57.3636 265.086 57.8109 264.961 58.0896 264.712C58.3829 264.463 58.5296 264.177 58.5296 263.854C58.5296 263.385 58.3242 263.069 57.9136 262.908C57.5029 262.732 56.9309 262.563 56.1976 262.402C55.7282 262.299 55.2516 262.175 54.7676 262.028C54.2836 261.881 53.8362 261.698 53.4256 261.478C53.0296 261.243 52.7069 260.95 52.4576 260.598C52.2082 260.231 52.0836 259.784 52.0836 259.256C52.0836 258.288 52.4649 257.474 53.2276 256.814C54.0049 256.154 55.0902 255.824 56.4836 255.824C57.7742 255.824 58.8009 256.125 59.5636 256.726C60.3409 257.327 60.8029 258.156 60.9496 259.212H58.2876C58.1262 258.405 57.5176 258.002 56.4616 258.002C55.9336 258.002 55.5229 258.105 55.2296 258.31C54.9509 258.515 54.8116 258.772 54.8116 259.08C54.8116 259.403 55.0242 259.659 55.4496 259.85C55.8749 260.041 56.4396 260.217 57.1436 260.378C57.9062 260.554 58.6029 260.752 59.2336 260.972C59.8789 261.177 60.3922 261.493 60.7736 261.918C61.1549 262.329 61.3456 262.923 61.3456 263.7C61.3602 264.375 61.1842 264.983 60.8176 265.526C60.4509 266.069 59.9229 266.494 59.2336 266.802C58.5442 267.11 57.7302 267.264 56.7916 267.264ZM69.1422 267.264C68.0422 267.264 67.0668 267.029 66.2162 266.56C65.3655 266.091 64.6982 265.431 64.2142 264.58C63.7302 263.729 63.4882 262.747 63.4882 261.632C63.4882 260.503 63.7228 259.498 64.1922 258.618C64.6762 257.738 65.3362 257.056 66.1722 256.572C67.0228 256.073 68.0202 255.824 69.1642 255.824C70.2348 255.824 71.1808 256.059 72.0022 256.528C72.8235 256.997 73.4615 257.643 73.9162 258.464C74.3855 259.271 74.6202 260.173 74.6202 261.17C74.6202 261.331 74.6128 261.5 74.5982 261.676C74.5982 261.852 74.5908 262.035 74.5762 262.226H66.2822C66.3408 263.077 66.6342 263.744 67.1622 264.228C67.7048 264.712 68.3575 264.954 69.1202 264.954C69.6922 264.954 70.1688 264.829 70.5502 264.58C70.9462 264.316 71.2395 263.979 71.4302 263.568H74.2902C74.0848 264.257 73.7402 264.888 73.2562 265.46C72.7868 266.017 72.2002 266.457 71.4962 266.78C70.8068 267.103 70.0222 267.264 69.1422 267.264ZM69.1642 258.112C68.4748 258.112 67.8662 258.31 67.3382 258.706C66.8102 259.087 66.4728 259.674 66.3262 260.466H71.7602C71.7162 259.747 71.4522 259.175 70.9682 258.75C70.4842 258.325 69.8828 258.112 69.1642 258.112ZM80.7506 267.264C79.8119 267.264 79.0419 267.117 78.4406 266.824C77.8393 266.516 77.3919 266.113 77.0986 265.614C76.8053 265.115 76.6586 264.565 76.6586 263.964C76.6586 262.952 77.0546 262.131 77.8466 261.5C78.6386 260.869 79.8266 260.554 81.4106 260.554H84.1826V260.29C84.1826 259.542 83.9699 258.992 83.5446 258.64C83.1193 258.288 82.5913 258.112 81.9606 258.112C81.3886 258.112 80.8899 258.251 80.4646 258.53C80.0393 258.794 79.7753 259.19 79.6726 259.718H76.9226C76.9959 258.926 77.2599 258.237 77.7146 257.65C78.1839 257.063 78.7853 256.616 79.5186 256.308C80.2519 255.985 81.0733 255.824 81.9826 255.824C83.5373 255.824 84.7619 256.213 85.6566 256.99C86.5513 257.767 86.9986 258.867 86.9986 260.29V267H84.6006L84.3366 265.24C84.0139 265.827 83.5593 266.311 82.9726 266.692C82.4006 267.073 81.6599 267.264 80.7506 267.264ZM81.3886 265.064C82.1953 265.064 82.8186 264.8 83.2586 264.272C83.7133 263.744 83.9993 263.091 84.1166 262.314H81.7186C80.9706 262.314 80.4353 262.453 80.1126 262.732C79.7899 262.996 79.6286 263.326 79.6286 263.722C79.6286 264.147 79.7899 264.477 80.1126 264.712C80.4353 264.947 80.8606 265.064 81.3886 265.064ZM93.7779 267.264C92.4139 267.264 91.3579 266.839 90.6099 265.988C89.8765 265.137 89.5099 263.891 89.5099 262.248V256.088H92.3039V261.984C92.3039 262.923 92.4945 263.641 92.8759 264.14C93.2572 264.639 93.8585 264.888 94.6799 264.888C95.4572 264.888 96.0952 264.609 96.5939 264.052C97.1072 263.495 97.3639 262.717 97.3639 261.72V256.088H100.18V267H97.6939L97.4739 265.152C97.1365 265.797 96.6452 266.311 95.9999 266.692C95.3692 267.073 94.6285 267.264 93.7779 267.264ZM113.615 267.264C112.515 267.264 111.539 267.029 110.689 266.56C109.838 266.091 109.171 265.431 108.687 264.58C108.203 263.729 107.961 262.747 107.961 261.632C107.961 260.503 108.195 259.498 108.665 258.618C109.149 257.738 109.809 257.056 110.645 256.572C111.495 256.073 112.493 255.824 113.637 255.824C114.707 255.824 115.653 256.059 116.475 256.528C117.296 256.997 117.934 257.643 118.389 258.464C118.858 259.271 119.093 260.173 119.093 261.17C119.093 261.331 119.085 261.5 119.071 261.676C119.071 261.852 119.063 262.035 119.049 262.226H110.755C110.813 263.077 111.107 263.744 111.635 264.228C112.177 264.712 112.83 264.954 113.593 264.954C114.165 264.954 114.641 264.829 115.023 264.58C115.419 264.316 115.712 263.979 115.903 263.568H118.763C118.557 264.257 118.213 264.888 117.729 265.46C117.259 266.017 116.673 266.457 115.969 266.78C115.279 267.103 114.495 267.264 113.615 267.264ZM113.637 258.112C112.947 258.112 112.339 258.31 111.811 258.706C111.283 259.087 110.945 259.674 110.799 260.466H116.233C116.189 259.747 115.925 259.175 115.441 258.75C114.957 258.325 114.355 258.112 113.637 258.112ZM126.13 267C124.986 267 124.069 266.721 123.38 266.164C122.691 265.607 122.346 264.617 122.346 263.194V258.442H120.476V256.088H122.346L122.676 253.162H125.162V256.088H128.11V258.442H125.162V263.216C125.162 263.744 125.272 264.111 125.492 264.316C125.727 264.507 126.123 264.602 126.68 264.602H128.044V267H126.13ZM135.77 267V256.088H138.256L138.498 257.562C138.85 257.034 139.312 256.616 139.884 256.308C140.471 255.985 141.145 255.824 141.908 255.824C143.595 255.824 144.79 256.477 145.494 257.782C145.89 257.181 146.418 256.704 147.078 256.352C147.753 256 148.486 255.824 149.278 255.824C150.701 255.824 151.793 256.249 152.556 257.1C153.319 257.951 153.7 259.197 153.7 260.84V267H150.884V261.104C150.884 260.165 150.701 259.447 150.334 258.948C149.982 258.449 149.432 258.2 148.684 258.2C147.921 258.2 147.305 258.479 146.836 259.036C146.381 259.593 146.154 260.371 146.154 261.368V267H143.338V261.104C143.338 260.165 143.155 259.447 142.788 258.948C142.421 258.449 141.857 258.2 141.094 258.2C140.346 258.2 139.737 258.479 139.268 259.036C138.813 259.593 138.586 260.371 138.586 261.368V267H135.77ZM160.135 267.264C159.197 267.264 158.427 267.117 157.825 266.824C157.224 266.516 156.777 266.113 156.483 265.614C156.19 265.115 156.043 264.565 156.043 263.964C156.043 262.952 156.439 262.131 157.231 261.5C158.023 260.869 159.211 260.554 160.795 260.554H163.567V260.29C163.567 259.542 163.355 258.992 162.929 258.64C162.504 258.288 161.976 258.112 161.345 258.112C160.773 258.112 160.275 258.251 159.849 258.53C159.424 258.794 159.16 259.19 159.057 259.718H156.307C156.381 258.926 156.645 258.237 157.099 257.65C157.569 257.063 158.17 256.616 158.903 256.308C159.637 255.985 160.458 255.824 161.367 255.824C162.922 255.824 164.147 256.213 165.041 256.99C165.936 257.767 166.383 258.867 166.383 260.29V267H163.985L163.721 265.24C163.399 265.827 162.944 266.311 162.357 266.692C161.785 267.073 161.045 267.264 160.135 267.264ZM160.773 265.064C161.58 265.064 162.203 264.8 162.643 264.272C163.098 263.744 163.384 263.091 163.501 262.314H161.103C160.355 262.314 159.82 262.453 159.497 262.732C159.175 262.996 159.013 263.326 159.013 263.722C159.013 264.147 159.175 264.477 159.497 264.712C159.82 264.947 160.245 265.064 160.773 265.064ZM170.589 254.394C170.075 254.394 169.65 254.24 169.313 253.932C168.99 253.624 168.829 253.235 168.829 252.766C168.829 252.297 168.99 251.915 169.313 251.622C169.65 251.314 170.075 251.16 170.589 251.16C171.102 251.16 171.52 251.314 171.843 251.622C172.18 251.915 172.349 252.297 172.349 252.766C172.349 253.235 172.18 253.624 171.843 253.932C171.52 254.24 171.102 254.394 170.589 254.394ZM169.181 267V256.088H171.997V267H169.181ZM174.936 267V256.088H177.422L177.642 257.936C177.979 257.291 178.463 256.777 179.094 256.396C179.739 256.015 180.495 255.824 181.36 255.824C182.709 255.824 183.758 256.249 184.506 257.1C185.254 257.951 185.628 259.197 185.628 260.84V267H182.812V261.104C182.812 260.165 182.621 259.447 182.24 258.948C181.859 258.449 181.265 258.2 180.458 258.2C179.666 258.2 179.013 258.479 178.5 259.036C178.001 259.593 177.752 260.371 177.752 261.368V267H174.936ZM193.183 267C192.039 267 191.122 266.721 190.433 266.164C189.743 265.607 189.399 264.617 189.399 263.194V258.442H187.529V256.088H189.399L189.729 253.162H192.215V256.088H195.163V258.442H192.215V263.216C192.215 263.744 192.325 264.111 192.545 264.316C192.779 264.507 193.175 264.602 193.733 264.602H195.097V267H193.183ZM202.603 267.264C201.503 267.264 200.528 267.029 199.677 266.56C198.826 266.091 198.159 265.431 197.675 264.58C197.191 263.729 196.949 262.747 196.949 261.632C196.949 260.503 197.184 259.498 197.653 258.618C198.137 257.738 198.797 257.056 199.633 256.572C200.484 256.073 201.481 255.824 202.625 255.824C203.696 255.824 204.642 256.059 205.463 256.528C206.284 256.997 206.922 257.643 207.377 258.464C207.846 259.271 208.081 260.173 208.081 261.17C208.081 261.331 208.074 261.5 208.059 261.676C208.059 261.852 208.052 262.035 208.037 262.226H199.743C199.802 263.077 200.095 263.744 200.623 264.228C201.166 264.712 201.818 264.954 202.581 264.954C203.153 264.954 203.63 264.829 204.011 264.58C204.407 264.316 204.7 263.979 204.891 263.568H207.751C207.546 264.257 207.201 264.888 206.717 265.46C206.248 266.017 205.661 266.457 204.957 266.78C204.268 267.103 203.483 267.264 202.603 267.264ZM202.625 258.112C201.936 258.112 201.327 258.31 200.799 258.706C200.271 259.087 199.934 259.674 199.787 260.466H205.221C205.177 259.747 204.913 259.175 204.429 258.75C203.945 258.325 203.344 258.112 202.625 258.112ZM210.45 267V256.088H212.936L213.156 257.936C213.493 257.291 213.977 256.777 214.608 256.396C215.253 256.015 216.008 255.824 216.874 255.824C218.223 255.824 219.272 256.249 220.02 257.1C220.768 257.951 221.142 259.197 221.142 260.84V267H218.326V261.104C218.326 260.165 218.135 259.447 217.754 258.948C217.372 258.449 216.778 258.2 215.972 258.2C215.18 258.2 214.527 258.479 214.014 259.036C213.515 259.593 213.266 260.371 213.266 261.368V267H210.45ZM227.596 267.264C226.658 267.264 225.888 267.117 225.286 266.824C224.685 266.516 224.238 266.113 223.944 265.614C223.651 265.115 223.504 264.565 223.504 263.964C223.504 262.952 223.9 262.131 224.692 261.5C225.484 260.869 226.672 260.554 228.256 260.554H231.028V260.29C231.028 259.542 230.816 258.992 230.39 258.64C229.965 258.288 229.437 258.112 228.806 258.112C228.234 258.112 227.736 258.251 227.31 258.53C226.885 258.794 226.621 259.19 226.518 259.718H223.768C223.842 258.926 224.106 258.237 224.56 257.65C225.03 257.063 225.631 256.616 226.364 256.308C227.098 255.985 227.919 255.824 228.828 255.824C230.383 255.824 231.608 256.213 232.502 256.99C233.397 257.767 233.844 258.867 233.844 260.29V267H231.446L231.182 265.24C230.86 265.827 230.405 266.311 229.818 266.692C229.246 267.073 228.506 267.264 227.596 267.264ZM228.234 265.064C229.041 265.064 229.664 264.8 230.104 264.272C230.559 263.744 230.845 263.091 230.962 262.314H228.564C227.816 262.314 227.281 262.453 226.958 262.732C226.636 262.996 226.474 263.326 226.474 263.722C226.474 264.147 226.636 264.477 226.958 264.712C227.281 264.947 227.706 265.064 228.234 265.064ZM236.532 267V256.088H239.018L239.238 257.936C239.575 257.291 240.059 256.777 240.69 256.396C241.335 256.015 242.09 255.824 242.956 255.824C244.305 255.824 245.354 256.249 246.102 257.1C246.85 257.951 247.224 259.197 247.224 260.84V267H244.408V261.104C244.408 260.165 244.217 259.447 243.836 258.948C243.454 258.449 242.86 258.2 242.054 258.2C241.262 258.2 240.609 258.479 240.096 259.036C239.597 259.593 239.348 260.371 239.348 261.368V267H236.532ZM255.262 267.264C254.148 267.264 253.165 267.022 252.314 266.538C251.464 266.054 250.789 265.379 250.29 264.514C249.806 263.649 249.564 262.659 249.564 261.544C249.564 260.429 249.806 259.439 250.29 258.574C250.789 257.709 251.464 257.034 252.314 256.55C253.165 256.066 254.148 255.824 255.262 255.824C256.656 255.824 257.829 256.191 258.782 256.924C259.736 257.643 260.344 258.64 260.608 259.916H257.638C257.492 259.388 257.198 258.977 256.758 258.684C256.333 258.376 255.827 258.222 255.24 258.222C254.463 258.222 253.803 258.515 253.26 259.102C252.718 259.689 252.446 260.503 252.446 261.544C252.446 262.585 252.718 263.399 253.26 263.986C253.803 264.573 254.463 264.866 255.24 264.866C255.827 264.866 256.333 264.719 256.758 264.426C257.198 264.133 257.492 263.715 257.638 263.172H260.608C260.344 264.404 259.736 265.394 258.782 266.142C257.829 266.89 256.656 267.264 255.262 267.264ZM268.41 267.264C267.31 267.264 266.334 267.029 265.484 266.56C264.633 266.091 263.966 265.431 263.482 264.58C262.998 263.729 262.756 262.747 262.756 261.632C262.756 260.503 262.99 259.498 263.46 258.618C263.944 257.738 264.604 257.056 265.44 256.572C266.29 256.073 267.288 255.824 268.432 255.824C269.502 255.824 270.448 256.059 271.27 256.528C272.091 256.997 272.729 257.643 273.184 258.464C273.653 259.271 273.888 260.173 273.888 261.17C273.888 261.331 273.88 261.5 273.866 261.676C273.866 261.852 273.858 262.035 273.844 262.226H265.55C265.608 263.077 265.902 263.744 266.43 264.228C266.972 264.712 267.625 264.954 268.388 264.954C268.96 264.954 269.436 264.829 269.818 264.58C270.214 264.316 270.507 263.979 270.698 263.568H273.558C273.352 264.257 273.008 264.888 272.524 265.46C272.054 266.017 271.468 266.457 270.764 266.78C270.074 267.103 269.29 267.264 268.41 267.264ZM268.432 258.112C267.742 258.112 267.134 258.31 266.606 258.706C266.078 259.087 265.74 259.674 265.594 260.466H271.028C270.984 259.747 270.72 259.175 270.236 258.75C269.752 258.325 269.15 258.112 268.432 258.112Z" fill="black"/>
<mask id="path-7-inside-3_1893_20352" fill="white">
<path d="M630 184H951V295H630V184Z"/>
</mask>
<path d="M630 184H951V295H630V184Z" fill="#5D5D5D" fill-opacity="0.05"/>
<path d="M630 189H951V179H630V189Z" fill="#1B76FF" mask="url(#path-7-inside-3_1893_20352)"/>
<path d="M670.775 227.264C669.645 227.264 668.648 227.073 667.783 226.692C666.917 226.296 666.235 225.739 665.737 225.02C665.238 224.287 664.981 223.399 664.967 222.358H667.937C667.966 223.077 668.223 223.685 668.707 224.184C669.205 224.668 669.887 224.91 670.753 224.91C671.501 224.91 672.095 224.734 672.535 224.382C672.975 224.015 673.195 223.531 673.195 222.93C673.195 222.299 672.997 221.808 672.601 221.456C672.219 221.104 671.706 220.818 671.061 220.598C670.415 220.378 669.726 220.143 668.993 219.894C667.805 219.483 666.895 218.955 666.265 218.31C665.649 217.665 665.341 216.807 665.341 215.736C665.326 214.827 665.539 214.049 665.979 213.404C666.433 212.744 667.049 212.238 667.827 211.886C668.604 211.519 669.499 211.336 670.511 211.336C671.537 211.336 672.439 211.519 673.217 211.886C674.009 212.253 674.625 212.766 675.065 213.426C675.519 214.086 675.761 214.871 675.791 215.78H672.777C672.762 215.237 672.549 214.761 672.139 214.35C671.743 213.925 671.185 213.712 670.467 213.712C669.851 213.697 669.33 213.851 668.905 214.174C668.494 214.482 668.289 214.937 668.289 215.538C668.289 216.051 668.45 216.462 668.773 216.77C669.095 217.063 669.535 217.313 670.093 217.518C670.65 217.723 671.288 217.943 672.007 218.178C672.769 218.442 673.466 218.75 674.097 219.102C674.727 219.454 675.233 219.923 675.615 220.51C675.996 221.082 676.187 221.823 676.187 222.732C676.187 223.539 675.981 224.287 675.571 224.976C675.16 225.665 674.551 226.223 673.745 226.648C672.938 227.059 671.948 227.264 670.775 227.264ZM683.879 227.264C682.779 227.264 681.804 227.029 680.953 226.56C680.103 226.091 679.435 225.431 678.951 224.58C678.467 223.729 678.225 222.747 678.225 221.632C678.225 220.503 678.46 219.498 678.929 218.618C679.413 217.738 680.073 217.056 680.909 216.572C681.76 216.073 682.757 215.824 683.901 215.824C684.972 215.824 685.918 216.059 686.739 216.528C687.561 216.997 688.199 217.643 688.653 218.464C689.123 219.271 689.357 220.173 689.357 221.17C689.357 221.331 689.35 221.5 689.335 221.676C689.335 221.852 689.328 222.035 689.313 222.226H681.019C681.078 223.077 681.371 223.744 681.899 224.228C682.442 224.712 683.095 224.954 683.857 224.954C684.429 224.954 684.906 224.829 685.287 224.58C685.683 224.316 685.977 223.979 686.167 223.568H689.027C688.822 224.257 688.477 224.888 687.993 225.46C687.524 226.017 686.937 226.457 686.233 226.78C685.544 227.103 684.759 227.264 683.879 227.264ZM683.901 218.112C683.212 218.112 682.603 218.31 682.075 218.706C681.547 219.087 681.21 219.674 681.063 220.466H686.497C686.453 219.747 686.189 219.175 685.705 218.75C685.221 218.325 684.62 218.112 683.901 218.112ZM691.726 227V216.088H694.234L694.498 218.134C694.894 217.43 695.429 216.873 696.104 216.462C696.793 216.037 697.6 215.824 698.524 215.824V218.794H697.732C697.116 218.794 696.566 218.889 696.082 219.08C695.598 219.271 695.217 219.601 694.938 220.07C694.674 220.539 694.542 221.192 694.542 222.028V227H691.726ZM703.397 227L699.393 216.088H702.341L705.113 224.338L707.885 216.088H710.833L706.807 227H703.397ZM714.127 214.394C713.613 214.394 713.188 214.24 712.851 213.932C712.528 213.624 712.367 213.235 712.367 212.766C712.367 212.297 712.528 211.915 712.851 211.622C713.188 211.314 713.613 211.16 714.127 211.16C714.64 211.16 715.058 211.314 715.381 211.622C715.718 211.915 715.887 212.297 715.887 212.766C715.887 213.235 715.718 213.624 715.381 213.932C715.058 214.24 714.64 214.394 714.127 214.394ZM712.719 227V216.088H715.535V227H712.719ZM723.82 227.264C722.705 227.264 721.723 227.022 720.872 226.538C720.021 226.054 719.347 225.379 718.848 224.514C718.364 223.649 718.122 222.659 718.122 221.544C718.122 220.429 718.364 219.439 718.848 218.574C719.347 217.709 720.021 217.034 720.872 216.55C721.723 216.066 722.705 215.824 723.82 215.824C725.213 215.824 726.387 216.191 727.34 216.924C728.293 217.643 728.902 218.64 729.166 219.916H726.196C726.049 219.388 725.756 218.977 725.316 218.684C724.891 218.376 724.385 218.222 723.798 218.222C723.021 218.222 722.361 218.515 721.818 219.102C721.275 219.689 721.004 220.503 721.004 221.544C721.004 222.585 721.275 223.399 721.818 223.986C722.361 224.573 723.021 224.866 723.798 224.866C724.385 224.866 724.891 224.719 725.316 224.426C725.756 224.133 726.049 223.715 726.196 223.172H729.166C728.902 224.404 728.293 225.394 727.34 226.142C726.387 226.89 725.213 227.264 723.82 227.264ZM736.967 227.264C735.867 227.264 734.892 227.029 734.041 226.56C733.191 226.091 732.523 225.431 732.039 224.58C731.555 223.729 731.313 222.747 731.313 221.632C731.313 220.503 731.548 219.498 732.017 218.618C732.501 217.738 733.161 217.056 733.997 216.572C734.848 216.073 735.845 215.824 736.989 215.824C738.06 215.824 739.006 216.059 739.827 216.528C740.649 216.997 741.287 217.643 741.741 218.464C742.211 219.271 742.445 220.173 742.445 221.17C742.445 221.331 742.438 221.5 742.423 221.676C742.423 221.852 742.416 222.035 742.401 222.226H734.107C734.166 223.077 734.459 223.744 734.987 224.228C735.53 224.712 736.183 224.954 736.945 224.954C737.517 224.954 737.994 224.829 738.375 224.58C738.771 224.316 739.065 223.979 739.255 223.568H742.115C741.91 224.257 741.565 224.888 741.081 225.46C740.612 226.017 740.025 226.457 739.321 226.78C738.632 227.103 737.847 227.264 736.967 227.264ZM736.989 218.112C736.3 218.112 735.691 218.31 735.163 218.706C734.635 219.087 734.298 219.674 734.151 220.466H739.585C739.541 219.747 739.277 219.175 738.793 218.75C738.309 218.325 737.708 218.112 736.989 218.112ZM755.072 227.264C754.045 227.264 753.129 227.015 752.322 226.516C751.515 226.017 750.877 225.335 750.408 224.47C749.939 223.605 749.704 222.622 749.704 221.522C749.704 220.422 749.939 219.447 750.408 218.596C750.877 217.731 751.515 217.056 752.322 216.572C753.129 216.073 754.045 215.824 755.072 215.824C755.893 215.824 756.612 215.978 757.228 216.286C757.844 216.594 758.343 217.027 758.724 217.584V211.16H761.54V227H759.032L758.724 225.438C758.372 225.922 757.903 226.347 757.316 226.714C756.744 227.081 755.996 227.264 755.072 227.264ZM755.666 224.8C756.575 224.8 757.316 224.499 757.888 223.898C758.475 223.282 758.768 222.497 758.768 221.544C758.768 220.591 758.475 219.813 757.888 219.212C757.316 218.596 756.575 218.288 755.666 218.288C754.771 218.288 754.031 218.589 753.444 219.19C752.857 219.791 752.564 220.569 752.564 221.522C752.564 222.475 752.857 223.26 753.444 223.876C754.031 224.492 754.771 224.8 755.666 224.8ZM769.71 227.264C768.61 227.264 767.634 227.029 766.784 226.56C765.933 226.091 765.266 225.431 764.782 224.58C764.298 223.729 764.056 222.747 764.056 221.632C764.056 220.503 764.29 219.498 764.76 218.618C765.244 217.738 765.904 217.056 766.74 216.572C767.59 216.073 768.588 215.824 769.732 215.824C770.802 215.824 771.748 216.059 772.57 216.528C773.391 216.997 774.029 217.643 774.484 218.464C774.953 219.271 775.188 220.173 775.188 221.17C775.188 221.331 775.18 221.5 775.166 221.676C775.166 221.852 775.158 222.035 775.144 222.226H766.85C766.908 223.077 767.202 223.744 767.73 224.228C768.272 224.712 768.925 224.954 769.688 224.954C770.26 224.954 770.736 224.829 771.118 224.58C771.514 224.316 771.807 223.979 771.998 223.568H774.858C774.652 224.257 774.308 224.888 773.824 225.46C773.354 226.017 772.768 226.457 772.064 226.78C771.374 227.103 770.59 227.264 769.71 227.264ZM769.732 218.112C769.042 218.112 768.434 218.31 767.906 218.706C767.378 219.087 767.04 219.674 766.894 220.466H772.328C772.284 219.747 772.02 219.175 771.536 218.75C771.052 218.325 770.45 218.112 769.732 218.112ZM787.418 223.744C786.89 223.744 786.399 223.685 785.944 223.568L785.13 224.382C785.379 224.514 785.717 224.624 786.142 224.712C786.567 224.8 787.257 224.888 788.21 224.976C789.662 225.108 790.718 225.453 791.378 226.01C792.038 226.567 792.368 227.337 792.368 228.32C792.368 228.965 792.192 229.574 791.84 230.146C791.488 230.733 790.945 231.202 790.212 231.554C789.479 231.921 788.54 232.104 787.396 232.104C785.841 232.104 784.587 231.811 783.634 231.224C782.681 230.652 782.204 229.787 782.204 228.628C782.204 227.645 782.681 226.795 783.634 226.076C783.341 225.944 783.084 225.805 782.864 225.658C782.659 225.511 782.475 225.357 782.314 225.196V224.69L784.228 222.666C783.377 221.918 782.952 220.957 782.952 219.784C782.952 219.051 783.128 218.383 783.48 217.782C783.847 217.181 784.36 216.704 785.02 216.352C785.68 216 786.479 215.824 787.418 215.824C788.034 215.824 788.606 215.912 789.134 216.088H793.27V217.804L791.4 217.936C791.693 218.493 791.84 219.109 791.84 219.784C791.84 220.517 791.664 221.185 791.312 221.786C790.96 222.387 790.447 222.864 789.772 223.216C789.112 223.568 788.327 223.744 787.418 223.744ZM787.418 221.588C787.99 221.588 788.459 221.434 788.826 221.126C789.207 220.818 789.398 220.378 789.398 219.806C789.398 219.234 789.207 218.794 788.826 218.486C788.459 218.178 787.99 218.024 787.418 218.024C786.817 218.024 786.333 218.178 785.966 218.486C785.599 218.794 785.416 219.234 785.416 219.806C785.416 220.378 785.599 220.818 785.966 221.126C786.333 221.434 786.817 221.588 787.418 221.588ZM784.778 228.342C784.778 228.885 785.027 229.288 785.526 229.552C786.039 229.831 786.663 229.97 787.396 229.97C788.1 229.97 788.672 229.823 789.112 229.53C789.552 229.251 789.772 228.87 789.772 228.386C789.772 227.99 789.625 227.66 789.332 227.396C789.053 227.132 788.489 226.971 787.638 226.912C787.037 226.868 786.479 226.802 785.966 226.714C785.541 226.949 785.233 227.205 785.042 227.484C784.866 227.763 784.778 228.049 784.778 228.342ZM800.196 227.264C799.096 227.264 798.121 227.029 797.27 226.56C796.419 226.091 795.752 225.431 795.268 224.58C794.784 223.729 794.542 222.747 794.542 221.632C794.542 220.503 794.777 219.498 795.246 218.618C795.73 217.738 796.39 217.056 797.226 216.572C798.077 216.073 799.074 215.824 800.218 215.824C801.289 215.824 802.235 216.059 803.056 216.528C803.877 216.997 804.515 217.643 804.97 218.464C805.439 219.271 805.674 220.173 805.674 221.17C805.674 221.331 805.667 221.5 805.652 221.676C805.652 221.852 805.645 222.035 805.63 222.226H797.336C797.395 223.077 797.688 223.744 798.216 224.228C798.759 224.712 799.411 224.954 800.174 224.954C800.746 224.954 801.223 224.829 801.604 224.58C802 224.316 802.293 223.979 802.484 223.568H805.344C805.139 224.257 804.794 224.888 804.31 225.46C803.841 226.017 803.254 226.457 802.55 226.78C801.861 227.103 801.076 227.264 800.196 227.264ZM800.218 218.112C799.529 218.112 798.92 218.31 798.392 218.706C797.864 219.087 797.527 219.674 797.38 220.466H802.814C802.77 219.747 802.506 219.175 802.022 218.75C801.538 218.325 800.937 218.112 800.218 218.112ZM812.552 227.264C811.584 227.264 810.734 227.11 810 226.802C809.267 226.479 808.68 226.039 808.24 225.482C807.8 224.925 807.536 224.279 807.448 223.546H810.286C810.374 223.971 810.609 224.338 810.99 224.646C811.386 224.939 811.892 225.086 812.508 225.086C813.124 225.086 813.572 224.961 813.85 224.712C814.144 224.463 814.29 224.177 814.29 223.854C814.29 223.385 814.085 223.069 813.674 222.908C813.264 222.732 812.692 222.563 811.958 222.402C811.489 222.299 811.012 222.175 810.528 222.028C810.044 221.881 809.597 221.698 809.186 221.478C808.79 221.243 808.468 220.95 808.218 220.598C807.969 220.231 807.844 219.784 807.844 219.256C807.844 218.288 808.226 217.474 808.988 216.814C809.766 216.154 810.851 215.824 812.244 215.824C813.535 215.824 814.562 216.125 815.324 216.726C816.102 217.327 816.564 218.156 816.71 219.212H814.048C813.887 218.405 813.278 218.002 812.222 218.002C811.694 218.002 811.284 218.105 810.99 218.31C810.712 218.515 810.572 218.772 810.572 219.08C810.572 219.403 810.785 219.659 811.21 219.85C811.636 220.041 812.2 220.217 812.904 220.378C813.667 220.554 814.364 220.752 814.994 220.972C815.64 221.177 816.153 221.493 816.534 221.918C816.916 222.329 817.106 222.923 817.106 223.7C817.121 224.375 816.945 224.983 816.578 225.526C816.212 226.069 815.684 226.494 814.994 226.802C814.305 227.11 813.491 227.264 812.552 227.264ZM824.119 227C822.975 227 822.058 226.721 821.369 226.164C820.68 225.607 820.335 224.617 820.335 223.194V218.442H818.465V216.088H820.335L820.665 213.162H823.151V216.088H826.099V218.442H823.151V223.216C823.151 223.744 823.261 224.111 823.481 224.316C823.716 224.507 824.112 224.602 824.669 224.602H826.033V227H824.119ZM830.035 214.394C829.522 214.394 829.096 214.24 828.759 213.932C828.436 213.624 828.275 213.235 828.275 212.766C828.275 212.297 828.436 211.915 828.759 211.622C829.096 211.314 829.522 211.16 830.035 211.16C830.548 211.16 830.966 211.314 831.289 211.622C831.626 211.915 831.795 212.297 831.795 212.766C831.795 213.235 831.626 213.624 831.289 213.932C830.966 214.24 830.548 214.394 830.035 214.394ZM828.627 227V216.088H831.443V227H828.627ZM839.618 227.264C838.562 227.264 837.609 227.022 836.758 226.538C835.922 226.054 835.255 225.387 834.756 224.536C834.272 223.671 834.03 222.673 834.03 221.544C834.03 220.415 834.279 219.425 834.778 218.574C835.277 217.709 835.944 217.034 836.78 216.55C837.631 216.066 838.584 215.824 839.64 215.824C840.681 215.824 841.62 216.066 842.456 216.55C843.307 217.034 843.974 217.709 844.458 218.574C844.957 219.425 845.206 220.415 845.206 221.544C845.206 222.673 844.957 223.671 844.458 224.536C843.974 225.387 843.307 226.054 842.456 226.538C841.605 227.022 840.659 227.264 839.618 227.264ZM839.618 224.822C840.351 224.822 840.989 224.551 841.532 224.008C842.075 223.451 842.346 222.629 842.346 221.544C842.346 220.459 842.075 219.645 841.532 219.102C840.989 218.545 840.359 218.266 839.64 218.266C838.892 218.266 838.247 218.545 837.704 219.102C837.176 219.645 836.912 220.459 836.912 221.544C836.912 222.629 837.176 223.451 837.704 224.008C838.247 224.551 838.885 224.822 839.618 224.822ZM847.724 227V216.088H850.21L850.43 217.936C850.767 217.291 851.251 216.777 851.882 216.396C852.527 216.015 853.283 215.824 854.148 215.824C855.497 215.824 856.546 216.249 857.294 217.1C858.042 217.951 858.416 219.197 858.416 220.84V227H855.6V221.104C855.6 220.165 855.409 219.447 855.028 218.948C854.647 218.449 854.053 218.2 853.246 218.2C852.454 218.2 851.801 218.479 851.288 219.036C850.789 219.593 850.54 220.371 850.54 221.368V227H847.724ZM871.367 227.264C870.34 227.264 869.424 227.015 868.617 226.516C867.81 226.017 867.172 225.335 866.703 224.47C866.234 223.605 865.999 222.622 865.999 221.522C865.999 220.422 866.234 219.447 866.703 218.596C867.172 217.731 867.81 217.056 868.617 216.572C869.424 216.073 870.34 215.824 871.367 215.824C872.188 215.824 872.907 215.978 873.523 216.286C874.139 216.594 874.638 217.027 875.019 217.584V211.16H877.835V227H875.327L875.019 225.438C874.667 225.922 874.198 226.347 873.611 226.714C873.039 227.081 872.291 227.264 871.367 227.264ZM871.961 224.8C872.87 224.8 873.611 224.499 874.183 223.898C874.77 223.282 875.063 222.497 875.063 221.544C875.063 220.591 874.77 219.813 874.183 219.212C873.611 218.596 872.87 218.288 871.961 218.288C871.066 218.288 870.326 218.589 869.739 219.19C869.152 219.791 868.859 220.569 868.859 221.522C868.859 222.475 869.152 223.26 869.739 223.876C870.326 224.492 871.066 224.8 871.961 224.8ZM886.004 227.264C884.904 227.264 883.929 227.029 883.078 226.56C882.228 226.091 881.56 225.431 881.076 224.58C880.592 223.729 880.35 222.747 880.35 221.632C880.35 220.503 880.585 219.498 881.054 218.618C881.538 217.738 882.198 217.056 883.034 216.572C883.885 216.073 884.882 215.824 886.026 215.824C887.097 215.824 888.043 216.059 888.864 216.528C889.686 216.997 890.324 217.643 890.778 218.464C891.248 219.271 891.482 220.173 891.482 221.17C891.482 221.331 891.475 221.5 891.46 221.676C891.46 221.852 891.453 222.035 891.438 222.226H883.144C883.203 223.077 883.496 223.744 884.024 224.228C884.567 224.712 885.22 224.954 885.982 224.954C886.554 224.954 887.031 224.829 887.412 224.58C887.808 224.316 888.102 223.979 888.292 223.568H891.152C890.947 224.257 890.602 224.888 890.118 225.46C889.649 226.017 889.062 226.457 888.358 226.78C887.669 227.103 886.884 227.264 886.004 227.264ZM886.026 218.112C885.337 218.112 884.728 218.31 884.2 218.706C883.672 219.087 883.335 219.674 883.188 220.466H888.622C888.578 219.747 888.314 219.175 887.83 218.75C887.346 218.325 886.745 218.112 886.026 218.112ZM898.361 227.264C897.393 227.264 896.542 227.11 895.809 226.802C895.076 226.479 894.489 226.039 894.049 225.482C893.609 224.925 893.345 224.279 893.257 223.546H896.095C896.183 223.971 896.418 224.338 896.799 224.646C897.195 224.939 897.701 225.086 898.317 225.086C898.933 225.086 899.38 224.961 899.659 224.712C899.952 224.463 900.099 224.177 900.099 223.854C900.099 223.385 899.894 223.069 899.483 222.908C899.072 222.732 898.5 222.563 897.767 222.402C897.298 222.299 896.821 222.175 896.337 222.028C895.853 221.881 895.406 221.698 894.995 221.478C894.599 221.243 894.276 220.95 894.027 220.598C893.778 220.231 893.653 219.784 893.653 219.256C893.653 218.288 894.034 217.474 894.797 216.814C895.574 216.154 896.66 215.824 898.053 215.824C899.344 215.824 900.37 216.125 901.133 216.726C901.91 217.327 902.372 218.156 902.519 219.212H899.857C899.696 218.405 899.087 218.002 898.031 218.002C897.503 218.002 897.092 218.105 896.799 218.31C896.52 218.515 896.381 218.772 896.381 219.08C896.381 219.403 896.594 219.659 897.019 219.85C897.444 220.041 898.009 220.217 898.713 220.378C899.476 220.554 900.172 220.752 900.803 220.972C901.448 221.177 901.962 221.493 902.343 221.918C902.724 222.329 902.915 222.923 902.915 223.7C902.93 224.375 902.754 224.983 902.387 225.526C902.02 226.069 901.492 226.494 900.803 226.802C900.114 227.11 899.3 227.264 898.361 227.264ZM682.078 267.264C681.11 267.264 680.259 267.11 679.526 266.802C678.792 266.479 678.206 266.039 677.766 265.482C677.326 264.925 677.062 264.279 676.974 263.546H679.812C679.9 263.971 680.134 264.338 680.516 264.646C680.912 264.939 681.418 265.086 682.034 265.086C682.65 265.086 683.097 264.961 683.376 264.712C683.669 264.463 683.816 264.177 683.816 263.854C683.816 263.385 683.61 263.069 683.2 262.908C682.789 262.732 682.217 262.563 681.484 262.402C681.014 262.299 680.538 262.175 680.054 262.028C679.57 261.881 679.122 261.698 678.712 261.478C678.316 261.243 677.993 260.95 677.744 260.598C677.494 260.231 677.37 259.784 677.37 259.256C677.37 258.288 677.751 257.474 678.514 256.814C679.291 256.154 680.376 255.824 681.77 255.824C683.06 255.824 684.087 256.125 684.85 256.726C685.627 257.327 686.089 258.156 686.236 259.212H683.574C683.412 258.405 682.804 258.002 681.748 258.002C681.22 258.002 680.809 258.105 680.516 258.31C680.237 258.515 680.098 258.772 680.098 259.08C680.098 259.403 680.31 259.659 680.736 259.85C681.161 260.041 681.726 260.217 682.43 260.378C683.192 260.554 683.889 260.752 684.52 260.972C685.165 261.177 685.678 261.493 686.06 261.918C686.441 262.329 686.632 262.923 686.632 263.7C686.646 264.375 686.47 264.983 686.104 265.526C685.737 266.069 685.209 266.494 684.52 266.802C683.83 267.11 683.016 267.264 682.078 267.264ZM692.888 267.264C691.95 267.264 691.18 267.117 690.578 266.824C689.977 266.516 689.53 266.113 689.236 265.614C688.943 265.115 688.796 264.565 688.796 263.964C688.796 262.952 689.192 262.131 689.984 261.5C690.776 260.869 691.964 260.554 693.548 260.554H696.32V260.29C696.32 259.542 696.108 258.992 695.682 258.64C695.257 258.288 694.729 258.112 694.098 258.112C693.526 258.112 693.028 258.251 692.602 258.53C692.177 258.794 691.913 259.19 691.81 259.718H689.06C689.134 258.926 689.398 258.237 689.852 257.65C690.322 257.063 690.923 256.616 691.656 256.308C692.39 255.985 693.211 255.824 694.12 255.824C695.675 255.824 696.9 256.213 697.794 256.99C698.689 257.767 699.136 258.867 699.136 260.29V267H696.738L696.474 265.24C696.152 265.827 695.697 266.311 695.11 266.692C694.538 267.073 693.798 267.264 692.888 267.264ZM693.526 265.064C694.333 265.064 694.956 264.8 695.396 264.272C695.851 263.744 696.137 263.091 696.254 262.314H693.856C693.108 262.314 692.573 262.453 692.25 262.732C691.928 262.996 691.766 263.326 691.766 263.722C691.766 264.147 691.928 264.477 692.25 264.712C692.573 264.947 692.998 265.064 693.526 265.064ZM701.824 267V251.16H704.64V267H701.824ZM707.517 267V251.16H710.333V267H707.517ZM718.512 267.264C717.412 267.264 716.437 267.029 715.586 266.56C714.736 266.091 714.068 265.431 713.584 264.58C713.1 263.729 712.858 262.747 712.858 261.632C712.858 260.503 713.093 259.498 713.562 258.618C714.046 257.738 714.706 257.056 715.542 256.572C716.393 256.073 717.39 255.824 718.534 255.824C719.605 255.824 720.551 256.059 721.372 256.528C722.194 256.997 722.832 257.643 723.286 258.464C723.756 259.271 723.99 260.173 723.99 261.17C723.99 261.331 723.983 261.5 723.968 261.676C723.968 261.852 723.961 262.035 723.946 262.226H715.652C715.711 263.077 716.004 263.744 716.532 264.228C717.075 264.712 717.728 264.954 718.49 264.954C719.062 264.954 719.539 264.829 719.92 264.58C720.316 264.316 720.61 263.979 720.8 263.568H723.66C723.455 264.257 723.11 264.888 722.626 265.46C722.157 266.017 721.57 266.457 720.866 266.78C720.177 267.103 719.392 267.264 718.512 267.264ZM718.534 258.112C717.845 258.112 717.236 258.31 716.708 258.706C716.18 259.087 715.843 259.674 715.696 260.466H721.13C721.086 259.747 720.822 259.175 720.338 258.75C719.854 258.325 719.253 258.112 718.534 258.112ZM730.869 267.264C729.901 267.264 729.05 267.11 728.317 266.802C727.583 266.479 726.997 266.039 726.557 265.482C726.117 264.925 725.853 264.279 725.765 263.546H728.603C728.691 263.971 728.925 264.338 729.307 264.646C729.703 264.939 730.209 265.086 730.825 265.086C731.441 265.086 731.888 264.961 732.167 264.712C732.46 264.463 732.607 264.177 732.607 263.854C732.607 263.385 732.401 263.069 731.991 262.908C731.58 262.732 731.008 262.563 730.275 262.402C729.805 262.299 729.329 262.175 728.845 262.028C728.361 261.881 727.913 261.698 727.503 261.478C727.107 261.243 726.784 260.95 726.535 260.598C726.285 260.231 726.161 259.784 726.161 259.256C726.161 258.288 726.542 257.474 727.305 256.814C728.082 256.154 729.167 255.824 730.561 255.824C731.851 255.824 732.878 256.125 733.641 256.726C734.418 257.327 734.88 258.156 735.027 259.212H732.365C732.203 258.405 731.595 258.002 730.539 258.002C730.011 258.002 729.6 258.105 729.307 258.31C729.028 258.515 728.889 258.772 728.889 259.08C728.889 259.403 729.101 259.659 729.527 259.85C729.952 260.041 730.517 260.217 731.221 260.378C731.983 260.554 732.68 260.752 733.311 260.972C733.956 261.177 734.469 261.493 734.851 261.918C735.232 262.329 735.423 262.923 735.423 263.7C735.437 264.375 735.261 264.983 734.895 265.526C734.528 266.069 734 266.494 733.311 266.802C732.621 267.11 731.807 267.264 730.869 267.264ZM743.159 271.84V256.088H745.667L745.975 257.65C746.327 257.166 746.789 256.741 747.361 256.374C747.948 256.007 748.703 255.824 749.627 255.824C750.654 255.824 751.571 256.073 752.377 256.572C753.184 257.071 753.822 257.753 754.291 258.618C754.761 259.483 754.995 260.466 754.995 261.566C754.995 262.666 754.761 263.649 754.291 264.514C753.822 265.365 753.184 266.039 752.377 266.538C751.571 267.022 750.654 267.264 749.627 267.264C748.806 267.264 748.087 267.11 747.471 266.802C746.855 266.494 746.357 266.061 745.975 265.504V271.84H743.159ZM749.033 264.8C749.928 264.8 750.669 264.499 751.255 263.898C751.842 263.297 752.135 262.519 752.135 261.566C752.135 260.613 751.842 259.828 751.255 259.212C750.669 258.596 749.928 258.288 749.033 258.288C748.124 258.288 747.376 258.596 746.789 259.212C746.217 259.813 745.931 260.591 745.931 261.544C745.931 262.497 746.217 263.282 746.789 263.898C747.376 264.499 748.124 264.8 749.033 264.8ZM762.813 267.264C761.713 267.264 760.738 267.029 759.887 266.56C759.036 266.091 758.369 265.431 757.885 264.58C757.401 263.729 757.159 262.747 757.159 261.632C757.159 260.503 757.394 259.498 757.863 258.618C758.347 257.738 759.007 257.056 759.843 256.572C760.694 256.073 761.691 255.824 762.835 255.824C763.906 255.824 764.852 256.059 765.673 256.528C766.494 256.997 767.132 257.643 767.587 258.464C768.056 259.271 768.291 260.173 768.291 261.17C768.291 261.331 768.284 261.5 768.269 261.676C768.269 261.852 768.262 262.035 768.247 262.226H759.953C760.012 263.077 760.305 263.744 760.833 264.228C761.376 264.712 762.028 264.954 762.791 264.954C763.363 264.954 763.84 264.829 764.221 264.58C764.617 264.316 764.91 263.979 765.101 263.568H767.961C767.756 264.257 767.411 264.888 766.927 265.46C766.458 266.017 765.871 266.457 765.167 266.78C764.478 267.103 763.693 267.264 762.813 267.264ZM762.835 258.112C762.146 258.112 761.537 258.31 761.009 258.706C760.481 259.087 760.144 259.674 759.997 260.466H765.431C765.387 259.747 765.123 259.175 764.639 258.75C764.155 258.325 763.554 258.112 762.835 258.112ZM762.043 255.208V253.228L767.015 250.544V252.832L762.043 255.208ZM775.675 267.264C774.649 267.264 773.732 267.015 772.925 266.516C772.119 266.017 771.481 265.335 771.011 264.47C770.542 263.605 770.307 262.622 770.307 261.522C770.307 260.422 770.542 259.447 771.011 258.596C771.481 257.731 772.119 257.056 772.925 256.572C773.732 256.073 774.649 255.824 775.675 255.824C776.497 255.824 777.215 255.978 777.831 256.286C778.447 256.594 778.946 257.027 779.327 257.584V251.16H782.143V267H779.635L779.327 265.438C778.975 265.922 778.506 266.347 777.919 266.714C777.347 267.081 776.599 267.264 775.675 267.264ZM776.269 264.8C777.179 264.8 777.919 264.499 778.491 263.898C779.078 263.282 779.371 262.497 779.371 261.544C779.371 260.591 779.078 259.813 778.491 259.212C777.919 258.596 777.179 258.288 776.269 258.288C775.375 258.288 774.634 258.589 774.047 259.19C773.461 259.791 773.167 260.569 773.167 261.522C773.167 262.475 773.461 263.26 774.047 263.876C774.634 264.492 775.375 264.8 776.269 264.8ZM788.773 267.264C787.834 267.264 787.064 267.117 786.463 266.824C785.862 266.516 785.414 266.113 785.121 265.614C784.828 265.115 784.681 264.565 784.681 263.964C784.681 262.952 785.077 262.131 785.869 261.5C786.661 260.869 787.849 260.554 789.433 260.554H792.205V260.29C792.205 259.542 791.992 258.992 791.567 258.64C791.142 258.288 790.614 258.112 789.983 258.112C789.411 258.112 788.912 258.251 788.487 258.53C788.062 258.794 787.798 259.19 787.695 259.718H784.945C785.018 258.926 785.282 258.237 785.737 257.65C786.206 257.063 786.808 256.616 787.541 256.308C788.274 255.985 789.096 255.824 790.005 255.824C791.56 255.824 792.784 256.213 793.679 256.99C794.574 257.767 795.021 258.867 795.021 260.29V267H792.623L792.359 265.24C792.036 265.827 791.582 266.311 790.995 266.692C790.423 267.073 789.682 267.264 788.773 267.264ZM789.411 265.064C790.218 265.064 790.841 264.8 791.281 264.272C791.736 263.744 792.022 263.091 792.139 262.314H789.741C788.993 262.314 788.458 262.453 788.135 262.732C787.812 262.996 787.651 263.326 787.651 263.722C787.651 264.147 787.812 264.477 788.135 264.712C788.458 264.947 788.883 265.064 789.411 265.064ZM802.328 263.744C801.8 263.744 801.309 263.685 800.854 263.568L800.04 264.382C800.29 264.514 800.627 264.624 801.052 264.712C801.478 264.8 802.167 264.888 803.12 264.976C804.572 265.108 805.628 265.453 806.288 266.01C806.948 266.567 807.278 267.337 807.278 268.32C807.278 268.965 807.102 269.574 806.75 270.146C806.398 270.733 805.856 271.202 805.122 271.554C804.389 271.921 803.45 272.104 802.306 272.104C800.752 272.104 799.498 271.811 798.544 271.224C797.591 270.652 797.114 269.787 797.114 268.628C797.114 267.645 797.591 266.795 798.544 266.076C798.251 265.944 797.994 265.805 797.774 265.658C797.569 265.511 797.386 265.357 797.224 265.196V264.69L799.138 262.666C798.288 261.918 797.862 260.957 797.862 259.784C797.862 259.051 798.038 258.383 798.39 257.782C798.757 257.181 799.27 256.704 799.93 256.352C800.59 256 801.39 255.824 802.328 255.824C802.944 255.824 803.516 255.912 804.044 256.088H808.18V257.804L806.31 257.936C806.604 258.493 806.75 259.109 806.75 259.784C806.75 260.517 806.574 261.185 806.222 261.786C805.87 262.387 805.357 262.864 804.682 263.216C804.022 263.568 803.238 263.744 802.328 263.744ZM802.328 261.588C802.9 261.588 803.37 261.434 803.736 261.126C804.118 260.818 804.308 260.378 804.308 259.806C804.308 259.234 804.118 258.794 803.736 258.486C803.37 258.178 802.9 258.024 802.328 258.024C801.727 258.024 801.243 258.178 800.876 258.486C800.51 258.794 800.326 259.234 800.326 259.806C800.326 260.378 800.51 260.818 800.876 261.126C801.243 261.434 801.727 261.588 802.328 261.588ZM799.688 268.342C799.688 268.885 799.938 269.288 800.436 269.552C800.95 269.831 801.573 269.97 802.306 269.97C803.01 269.97 803.582 269.823 804.022 269.53C804.462 269.251 804.682 268.87 804.682 268.386C804.682 267.99 804.536 267.66 804.242 267.396C803.964 267.132 803.399 266.971 802.548 266.912C801.947 266.868 801.39 266.802 800.876 266.714C800.451 266.949 800.143 267.205 799.952 267.484C799.776 267.763 799.688 268.049 799.688 268.342ZM815.04 267.264C813.984 267.264 813.031 267.022 812.18 266.538C811.344 266.054 810.677 265.387 810.178 264.536C809.694 263.671 809.452 262.673 809.452 261.544C809.452 260.415 809.701 259.425 810.2 258.574C810.699 257.709 811.366 257.034 812.202 256.55C813.053 256.066 814.006 255.824 815.062 255.824C816.103 255.824 817.042 256.066 817.878 256.55C818.729 257.034 819.396 257.709 819.88 258.574C820.379 259.425 820.628 260.415 820.628 261.544C820.628 262.673 820.379 263.671 819.88 264.536C819.396 265.387 818.729 266.054 817.878 266.538C817.027 267.022 816.081 267.264 815.04 267.264ZM815.04 264.822C815.773 264.822 816.411 264.551 816.954 264.008C817.497 263.451 817.768 262.629 817.768 261.544C817.768 260.459 817.497 259.645 816.954 259.102C816.411 258.545 815.781 258.266 815.062 258.266C814.314 258.266 813.669 258.545 813.126 259.102C812.598 259.645 812.334 260.459 812.334 261.544C812.334 262.629 812.598 263.451 813.126 264.008C813.669 264.551 814.307 264.822 815.04 264.822ZM827.078 263.744C826.55 263.744 826.059 263.685 825.604 263.568L824.79 264.382C825.04 264.514 825.377 264.624 825.802 264.712C826.228 264.8 826.917 264.888 827.87 264.976C829.322 265.108 830.378 265.453 831.038 266.01C831.698 266.567 832.028 267.337 832.028 268.32C832.028 268.965 831.852 269.574 831.5 270.146C831.148 270.733 830.606 271.202 829.872 271.554C829.139 271.921 828.2 272.104 827.056 272.104C825.502 272.104 824.248 271.811 823.294 271.224C822.341 270.652 821.864 269.787 821.864 268.628C821.864 267.645 822.341 266.795 823.294 266.076C823.001 265.944 822.744 265.805 822.524 265.658C822.319 265.511 822.136 265.357 821.974 265.196V264.69L823.888 262.666C823.038 261.918 822.612 260.957 822.612 259.784C822.612 259.051 822.788 258.383 823.14 257.782C823.507 257.181 824.02 256.704 824.68 256.352C825.34 256 826.14 255.824 827.078 255.824C827.694 255.824 828.266 255.912 828.794 256.088H832.93V257.804L831.06 257.936C831.354 258.493 831.5 259.109 831.5 259.784C831.5 260.517 831.324 261.185 830.972 261.786C830.62 262.387 830.107 262.864 829.432 263.216C828.772 263.568 827.988 263.744 827.078 263.744ZM827.078 261.588C827.65 261.588 828.12 261.434 828.486 261.126C828.868 260.818 829.058 260.378 829.058 259.806C829.058 259.234 828.868 258.794 828.486 258.486C828.12 258.178 827.65 258.024 827.078 258.024C826.477 258.024 825.993 258.178 825.626 258.486C825.26 258.794 825.076 259.234 825.076 259.806C825.076 260.378 825.26 260.818 825.626 261.126C825.993 261.434 826.477 261.588 827.078 261.588ZM824.438 268.342C824.438 268.885 824.688 269.288 825.186 269.552C825.7 269.831 826.323 269.97 827.056 269.97C827.76 269.97 828.332 269.823 828.772 269.53C829.212 269.251 829.432 268.87 829.432 268.386C829.432 267.99 829.286 267.66 828.992 267.396C828.714 267.132 828.149 266.971 827.298 266.912C826.697 266.868 826.14 266.802 825.626 266.714C825.201 266.949 824.893 267.205 824.702 267.484C824.526 267.763 824.438 268.049 824.438 268.342ZM836.502 254.394C835.988 254.394 835.563 254.24 835.226 253.932C834.903 253.624 834.742 253.235 834.742 252.766C834.742 252.297 834.903 251.915 835.226 251.622C835.563 251.314 835.988 251.16 836.502 251.16C837.015 251.16 837.433 251.314 837.756 251.622C838.093 251.915 838.262 252.297 838.262 252.766C838.262 253.235 838.093 253.624 837.756 253.932C837.433 254.24 837.015 254.394 836.502 254.394ZM835.094 267V256.088H837.91V267H835.094ZM849.517 271.84V265.438C849.165 265.922 848.696 266.347 848.109 266.714C847.537 267.081 846.789 267.264 845.865 267.264C844.838 267.264 843.922 267.015 843.115 266.516C842.308 266.017 841.67 265.335 841.201 264.47C840.732 263.605 840.497 262.622 840.497 261.522C840.497 260.422 840.732 259.447 841.201 258.596C841.67 257.731 842.308 257.056 843.115 256.572C843.922 256.073 844.838 255.824 845.865 255.824C846.686 255.824 847.405 255.978 848.021 256.286C848.637 256.594 849.136 257.027 849.517 257.584L849.825 256.088H852.333V271.84H849.517ZM846.459 264.8C847.368 264.8 848.109 264.499 848.681 263.898C849.268 263.282 849.561 262.497 849.561 261.544C849.561 260.591 849.268 259.813 848.681 259.212C848.109 258.596 847.368 258.288 846.459 258.288C845.564 258.288 844.824 258.589 844.237 259.19C843.65 259.791 843.357 260.569 843.357 261.522C843.357 262.475 843.65 263.26 844.237 263.876C844.824 264.492 845.564 264.8 846.459 264.8ZM859.293 267.264C857.929 267.264 856.873 266.839 856.125 265.988C855.391 265.137 855.025 263.891 855.025 262.248V256.088H857.819V261.984C857.819 262.923 858.009 263.641 858.391 264.14C858.772 264.639 859.373 264.888 860.195 264.888C860.972 264.888 861.61 264.609 862.109 264.052C862.622 263.495 862.879 262.717 862.879 261.72V256.088H865.695V267H863.209L862.989 265.152C862.651 265.797 862.16 266.311 861.515 266.692C860.884 267.073 860.143 267.264 859.293 267.264ZM873.887 267.264C872.787 267.264 871.812 267.029 870.961 266.56C870.111 266.091 869.443 265.431 868.959 264.58C868.475 263.729 868.233 262.747 868.233 261.632C868.233 260.503 868.468 259.498 868.937 258.618C869.421 257.738 870.081 257.056 870.917 256.572C871.768 256.073 872.765 255.824 873.909 255.824C874.98 255.824 875.926 256.059 876.747 256.528C877.569 256.997 878.207 257.643 878.661 258.464C879.131 259.271 879.365 260.173 879.365 261.17C879.365 261.331 879.358 261.5 879.343 261.676C879.343 261.852 879.336 262.035 879.321 262.226H871.027C871.086 263.077 871.379 263.744 871.907 264.228C872.45 264.712 873.103 264.954 873.865 264.954C874.437 264.954 874.914 264.829 875.295 264.58C875.691 264.316 875.985 263.979 876.175 263.568H879.035C878.83 264.257 878.485 264.888 878.001 265.46C877.532 266.017 876.945 266.457 876.241 266.78C875.552 267.103 874.767 267.264 873.887 267.264ZM873.909 258.112C873.22 258.112 872.611 258.31 872.083 258.706C871.555 259.087 871.218 259.674 871.071 260.466H876.505C876.461 259.747 876.197 259.175 875.713 258.75C875.229 258.325 874.628 258.112 873.909 258.112ZM886.244 267.264C885.276 267.264 884.425 267.11 883.692 266.802C882.958 266.479 882.372 266.039 881.932 265.482C881.492 264.925 881.228 264.279 881.14 263.546H883.978C884.066 263.971 884.3 264.338 884.682 264.646C885.078 264.939 885.584 265.086 886.2 265.086C886.816 265.086 887.263 264.961 887.542 264.712C887.835 264.463 887.982 264.177 887.982 263.854C887.982 263.385 887.776 263.069 887.366 262.908C886.955 262.732 886.383 262.563 885.65 262.402C885.18 262.299 884.704 262.175 884.22 262.028C883.736 261.881 883.288 261.698 882.878 261.478C882.482 261.243 882.159 260.95 881.91 260.598C881.66 260.231 881.536 259.784 881.536 259.256C881.536 258.288 881.917 257.474 882.68 256.814C883.457 256.154 884.542 255.824 885.936 255.824C887.226 255.824 888.253 256.125 889.016 256.726C889.793 257.327 890.255 258.156 890.402 259.212H887.74C887.578 258.405 886.97 258.002 885.914 258.002C885.386 258.002 884.975 258.105 884.682 258.31C884.403 258.515 884.264 258.772 884.264 259.08C884.264 259.403 884.476 259.659 884.902 259.85C885.327 260.041 885.892 260.217 886.596 260.378C887.358 260.554 888.055 260.752 888.686 260.972C889.331 261.177 889.844 261.493 890.226 261.918C890.607 262.329 890.798 262.923 890.798 263.7C890.812 264.375 890.636 264.983 890.27 265.526C889.903 266.069 889.375 266.494 888.686 266.802C887.996 267.11 887.182 267.264 886.244 267.264Z" fill="black"/>
<path d="M142 134L798 134" stroke="#5D5D5D" stroke-opacity="0.6" stroke-width="2"/>
<line x1="142.5" y1="135" x2="142.5" y2="184" stroke="#5D5D5D" stroke-opacity="0.6"/>
<line x1="797.5" y1="135" x2="797.5" y2="184" stroke="#5D5D5D" stroke-opacity="0.6"/>
<line x1="498.508" y1="93" x2="498.508" y2="133" stroke="#5D5D5D" stroke-opacity="0.6"/>
</svg>
