<svg width="88" height="68" viewBox="0 0 88 68" fill="none" xmlns="http://www.w3.org/2000/svg">
<g filter="url(#filter0_d_1386_1595)">
<path d="M9.71501 0.607811C7.59677 1.02339 5.8487 2.32948 4.96439 4.15009L4.42969 5.25829V29.698V54.1377L4.96439 55.2261C5.68418 56.6708 6.60963 57.5217 8.2343 58.2737L9.57105 58.8872L17.1803 58.9465C25.1391 59.0257 26.2496 58.9465 27.8332 58.155C29.1082 57.5415 30.1365 56.4927 30.774 55.1866L31.3704 53.9398L31.4321 46.697L31.4938 39.4541L25.5915 39.3354C22.3422 39.2562 19.6481 39.2166 19.6276 39.2562C19.5864 39.2958 19.5453 42.4819 19.5453 46.321C19.5247 54.2565 19.5659 54.0388 18.0029 54.0388C16.3988 54.0388 16.4605 54.3752 16.4605 45.193C16.4605 37.6929 16.481 37.0596 16.8307 36.7628C17.1391 36.4857 18.2085 36.4264 24.337 36.3076L31.4938 36.1691L31.4321 20.7137L31.3704 5.25829L30.7946 4.15009C30.0748 2.72526 28.7997 1.57748 27.2368 0.983807C26.044 0.528652 25.9 0.508869 18.3114 0.469288C14.0749 0.449501 10.2086 0.528656 9.71501 0.607811ZM19.2779 6.54459C19.4836 6.92058 19.5453 9.61192 19.5453 18.1015C19.5453 30.5489 19.6276 29.8959 18.044 29.8959C16.3576 29.8959 16.4605 30.6875 16.4605 17.963C16.4605 5.11976 16.3576 5.89154 18.0851 5.99049C18.8461 6.03007 19.0723 6.1488 19.2779 6.54459Z" fill="#001228"/>
</g>
<g filter="url(#filter1_d_1386_1595)">
<path d="M40.9301 0.68718C39.3465 1.02359 38.236 1.63706 37.2694 2.68589C35.6036 4.5065 35.6859 3.53683 35.6242 20.8129L35.5625 36.1693L42.781 36.2683C49.3002 36.3672 50.0406 36.4068 50.3902 36.7234C50.7809 37.0598 50.8015 37.3962 50.8015 45.2328C50.8015 54.4348 50.8632 54.039 49.218 54.039C47.6755 54.039 47.7167 54.2369 47.7167 46.2618V39.1971H41.6293H35.5625L35.6242 46.6576C35.6859 53.8213 35.7065 54.1775 36.1383 55.068C37.0432 56.9282 38.5856 58.1354 40.8273 58.7093C42.164 59.0655 55.5727 59.105 57.2179 58.7686C59.912 58.2145 61.6395 56.7105 62.4004 54.2369C62.6883 53.3266 62.7295 51.6049 62.7295 41.6311V30.094H55.6755H48.601L48.1691 29.6389L47.7167 29.1837V17.884C47.7167 5.15955 47.6139 5.95112 49.3002 5.95112C50.8838 5.95112 50.8015 5.39702 50.8015 16.8946V27.1256H56.7655H62.75L62.6883 16.1822C62.6266 5.25849 62.6266 5.2585 62.1536 4.26903C61.2282 2.32969 59.4184 1.04338 57.074 0.627811C55.367 0.311184 42.4108 0.370552 40.9301 0.68718Z" fill="#001228"/>
</g>
<path d="M66.1241 0.726C65.8362 1.02284 65.7951 1.67588 65.8568 6.34614C65.939 12.9162 65.7745 12.5995 68.6948 12.3819C69.7642 12.3225 72.7462 12.0652 75.3169 11.8278C79.1626 11.4518 80.0469 11.3132 80.3966 11.0164C80.8079 10.6602 80.8284 10.4425 80.8284 5.85141C80.8284 1.4582 80.7873 1.04263 80.4583 0.745789C80.1086 0.44895 79.3066 0.409371 73.2603 0.409371C67.2552 0.409371 66.4326 0.448951 66.1241 0.726Z" fill="#0061B1"/>
<path d="M74.2699 13.3734C70.4036 13.7494 67.1748 14.0859 67.1132 14.1254C66.9486 14.2838 72.2134 16.6387 72.707 16.6387C72.9743 16.6387 75.8946 16.322 79.2056 15.946C82.5372 15.5503 85.766 15.1941 86.383 15.1149C87.2262 15.016 87.4112 14.9566 87.1028 14.8379C86.8765 14.7389 85.7043 14.264 84.5115 13.789C83.2982 13.2943 82.1054 12.8589 81.838 12.7996C81.5707 12.76 78.1568 13.0172 74.2699 13.3734Z" fill="#0061B1"/>
<path d="M69.8874 18.7528L66.8438 18.832V38.8983V58.9844H72.9106H78.9774V38.7993V18.6143L75.9542 18.6539C74.2679 18.6737 71.5532 18.733 69.8874 18.7528Z" fill="#001228"/>
<defs>
<filter id="filter0_d_1386_1595" x="0.301165" y="0.466797" width="35.3195" height="66.761" filterUnits="userSpaceOnUse" color-interpolation-filters="sRGB">
<feFlood flood-opacity="0" result="BackgroundImageFix"/>
<feColorMatrix in="SourceAlpha" type="matrix" values="0 0 0 0 0 0 0 0 0 0 0 0 0 0 0 0 0 0 127 0" result="hardAlpha"/>
<feOffset dy="4.12852"/>
<feGaussianBlur stdDeviation="2.06426"/>
<feComposite in2="hardAlpha" operator="out"/>
<feColorMatrix type="matrix" values="0 0 0 0 0.00392157 0 0 0 0 0.0784314 0 0 0 0 0.156863 0 0 0 0.15 0"/>
<feBlend mode="normal" in2="BackgroundImageFix" result="effect1_dropShadow_1386_1595"/>
<feBlend mode="normal" in="SourceGraphic" in2="effect1_dropShadow_1386_1595" result="shape"/>
</filter>
<filter id="filter1_d_1386_1595" x="31.434" y="0.417969" width="35.4445" height="66.8391" filterUnits="userSpaceOnUse" color-interpolation-filters="sRGB">
<feFlood flood-opacity="0" result="BackgroundImageFix"/>
<feColorMatrix in="SourceAlpha" type="matrix" values="0 0 0 0 0 0 0 0 0 0 0 0 0 0 0 0 0 0 127 0" result="hardAlpha"/>
<feOffset dy="4.12852"/>
<feGaussianBlur stdDeviation="2.06426"/>
<feComposite in2="hardAlpha" operator="out"/>
<feColorMatrix type="matrix" values="0 0 0 0 0.00392157 0 0 0 0 0.0784314 0 0 0 0 0.156863 0 0 0 0.15 0"/>
<feBlend mode="normal" in2="BackgroundImageFix" result="effect1_dropShadow_1386_1595"/>
<feBlend mode="normal" in="SourceGraphic" in2="effect1_dropShadow_1386_1595" result="shape"/>
</filter>
</defs>
</svg>
