<svg width="224" height="67" viewBox="0 0 224 67" fill="none" xmlns="http://www.w3.org/2000/svg">
<path d="M103.496 5.82617V9.49023H105.533C106.062 9.49023 106.415 9.41048 106.593 9.25098C106.83 9.04134 106.962 8.6722 106.989 8.14355H107.242V11.3701H106.989C106.925 10.9189 106.862 10.6296 106.798 10.502C106.716 10.3424 106.581 10.2171 106.395 10.126C106.208 10.0348 105.921 9.98926 105.533 9.98926H103.496V13.0449C103.496 13.4551 103.514 13.7057 103.551 13.7969C103.587 13.8835 103.651 13.9541 103.742 14.0088C103.833 14.0589 104.007 14.084 104.262 14.084H105.834C106.358 14.084 106.739 14.0475 106.976 13.9746C107.213 13.9017 107.44 13.7581 107.659 13.5439C107.942 13.2614 108.231 12.8353 108.527 12.2656H108.801L108.001 14.5898H100.857V14.3369H101.186C101.404 14.3369 101.612 14.2845 101.808 14.1797C101.953 14.1068 102.051 13.9974 102.102 13.8516C102.156 13.7057 102.184 13.4072 102.184 12.9561V6.93359C102.184 6.3457 102.124 5.9834 102.006 5.84668C101.842 5.66439 101.568 5.57324 101.186 5.57324H100.857V5.32031H108.001L108.104 7.35059H107.837C107.741 6.86296 107.634 6.52799 107.516 6.3457C107.402 6.16341 107.231 6.02441 107.003 5.92871C106.821 5.86035 106.499 5.82617 106.039 5.82617H103.496ZM117.558 5.1084L117.77 8.25977H117.558C117.275 7.31641 116.872 6.63737 116.348 6.22266C115.824 5.80794 115.195 5.60059 114.461 5.60059C113.846 5.60059 113.29 5.75781 112.793 6.07227C112.296 6.38216 111.904 6.87891 111.617 7.5625C111.335 8.24609 111.193 9.09603 111.193 10.1123C111.193 10.9508 111.328 11.6777 111.597 12.293C111.866 12.9082 112.269 13.3799 112.807 13.708C113.349 14.0361 113.966 14.2002 114.659 14.2002C115.261 14.2002 115.792 14.0726 116.252 13.8174C116.712 13.5576 117.218 13.0449 117.77 12.2793L117.981 12.416C117.517 13.2409 116.974 13.8447 116.354 14.2275C115.735 14.6104 114.999 14.8018 114.146 14.8018C112.611 14.8018 111.421 14.2321 110.578 13.0928C109.949 12.2451 109.635 11.2471 109.635 10.0986C109.635 9.1735 109.842 8.32357 110.257 7.54883C110.672 6.77409 111.241 6.1748 111.966 5.75098C112.695 5.32259 113.49 5.1084 114.352 5.1084C115.021 5.1084 115.682 5.27246 116.334 5.60059C116.525 5.70085 116.662 5.75098 116.744 5.75098C116.867 5.75098 116.974 5.70768 117.065 5.62109C117.184 5.49805 117.268 5.32715 117.318 5.1084H117.558ZM123.587 5.1084C124.79 5.1084 125.831 5.56641 126.711 6.48242C127.595 7.39388 128.037 8.5332 128.037 9.90039C128.037 11.3086 127.593 12.4775 126.704 13.4072C125.815 14.3369 124.74 14.8018 123.478 14.8018C122.201 14.8018 121.128 14.3483 120.258 13.4414C119.392 12.5345 118.959 11.361 118.959 9.9209C118.959 8.44889 119.46 7.24805 120.463 6.31836C121.333 5.51172 122.375 5.1084 123.587 5.1084ZM123.457 5.60742C122.628 5.60742 121.962 5.91504 121.461 6.53027C120.837 7.2959 120.524 8.41699 120.524 9.89355C120.524 11.4066 120.848 12.571 121.495 13.3867C121.992 14.0065 122.648 14.3164 123.464 14.3164C124.334 14.3164 125.052 13.9769 125.617 13.2979C126.187 12.6188 126.472 11.5479 126.472 10.085C126.472 8.49902 126.16 7.31641 125.535 6.53711C125.034 5.91732 124.341 5.60742 123.457 5.60742ZM136.609 12.0264L136.835 12.0742L136.042 14.5898H128.864V14.3369H129.213C129.605 14.3369 129.885 14.2093 130.054 13.9541C130.149 13.8083 130.197 13.471 130.197 12.9424V6.96094C130.197 6.38216 130.133 6.01986 130.006 5.87402C129.828 5.6735 129.564 5.57324 129.213 5.57324H128.864V5.32031H133.062V5.57324C132.569 5.56868 132.223 5.61426 132.022 5.70996C131.826 5.80566 131.692 5.92643 131.619 6.07227C131.546 6.2181 131.51 6.56673 131.51 7.11816V12.9424C131.51 13.3206 131.546 13.5804 131.619 13.7217C131.674 13.8174 131.758 13.888 131.872 13.9336C131.986 13.9792 132.341 14.002 132.938 14.002H133.615C134.326 14.002 134.825 13.9495 135.112 13.8447C135.399 13.7399 135.661 13.5553 135.898 13.291C136.135 13.0221 136.372 12.6006 136.609 12.0264ZM140.068 5.82617V9.49023H142.105C142.634 9.49023 142.987 9.41048 143.165 9.25098C143.402 9.04134 143.534 8.6722 143.562 8.14355H143.814V11.3701H143.562C143.498 10.9189 143.434 10.6296 143.37 10.502C143.288 10.3424 143.154 10.2171 142.967 10.126C142.78 10.0348 142.493 9.98926 142.105 9.98926H140.068V13.0449C140.068 13.4551 140.087 13.7057 140.123 13.7969C140.16 13.8835 140.223 13.9541 140.314 14.0088C140.406 14.0589 140.579 14.084 140.834 14.084H142.406C142.93 14.084 143.311 14.0475 143.548 13.9746C143.785 13.9017 144.013 13.7581 144.231 13.5439C144.514 13.2614 144.803 12.8353 145.1 12.2656H145.373L144.573 14.5898H137.43V14.3369H137.758C137.977 14.3369 138.184 14.2845 138.38 14.1797C138.526 14.1068 138.624 13.9974 138.674 13.8516C138.729 13.7057 138.756 13.4072 138.756 12.9561V6.93359C138.756 6.3457 138.697 5.9834 138.578 5.84668C138.414 5.66439 138.141 5.57324 137.758 5.57324H137.43V5.32031H144.573L144.676 7.35059H144.409C144.313 6.86296 144.206 6.52799 144.088 6.3457C143.974 6.16341 143.803 6.02441 143.575 5.92871C143.393 5.86035 143.072 5.82617 142.611 5.82617H140.068ZM149.017 5.32031H151.532L157.199 12.2725V6.92676C157.199 6.3571 157.135 6.00163 157.008 5.86035C156.839 5.66895 156.573 5.57324 156.208 5.57324H155.887V5.32031H159.113V5.57324H158.785C158.393 5.57324 158.115 5.69173 157.951 5.92871C157.851 6.07454 157.801 6.40723 157.801 6.92676V14.7402H157.555L151.443 7.27539V12.9834C151.443 13.5531 151.505 13.9085 151.628 14.0498C151.801 14.2412 152.068 14.3369 152.428 14.3369H152.756V14.5898H149.529V14.3369H149.851C150.247 14.3369 150.527 14.2184 150.691 13.9814C150.792 13.8356 150.842 13.5029 150.842 12.9834V6.53711C150.573 6.22266 150.368 6.0153 150.227 5.91504C150.09 5.81478 149.887 5.72135 149.618 5.63477C149.486 5.59375 149.285 5.57324 149.017 5.57324V5.32031ZM165.724 11.4863H162.135L161.506 12.9492C161.351 13.3092 161.273 13.5781 161.273 13.7559C161.273 13.8971 161.34 14.0225 161.472 14.1318C161.608 14.2367 161.9 14.305 162.347 14.3369V14.5898H159.428V14.3369C159.815 14.2686 160.066 14.1797 160.18 14.0703C160.412 13.8516 160.67 13.4072 160.952 12.7373L164.213 5.1084H164.452L167.679 12.8193C167.938 13.4391 168.173 13.8424 168.383 14.0293C168.597 14.2116 168.893 14.3141 169.271 14.3369V14.5898H165.614V14.3369C165.983 14.3187 166.232 14.2572 166.359 14.1523C166.492 14.0475 166.558 13.9199 166.558 13.7695C166.558 13.569 166.466 13.2523 166.284 12.8193L165.724 11.4863ZM165.532 10.9805L163.96 7.23438L162.347 10.9805H165.532ZM175.978 5.32031L176.08 7.49414H175.82C175.77 7.11133 175.702 6.83789 175.615 6.67383C175.474 6.40951 175.285 6.21582 175.048 6.09277C174.815 5.96517 174.508 5.90137 174.125 5.90137H172.819V12.9834C172.819 13.5531 172.881 13.9085 173.004 14.0498C173.177 14.2412 173.444 14.3369 173.804 14.3369H174.125V14.5898H170.194V14.3369H170.522C170.914 14.3369 171.192 14.2184 171.356 13.9814C171.457 13.8356 171.507 13.5029 171.507 12.9834V5.90137H170.393C169.96 5.90137 169.652 5.93327 169.47 5.99707C169.233 6.08366 169.03 6.25 168.861 6.49609C168.693 6.74219 168.592 7.07487 168.561 7.49414H168.301L168.41 5.32031H175.978ZM180.756 14.3369V14.5898H176.784V14.3369H177.112C177.495 14.3369 177.773 14.2253 177.946 14.002C178.056 13.8561 178.11 13.5052 178.11 12.9492V6.96094C178.11 6.49154 178.081 6.18164 178.021 6.03125C177.976 5.91732 177.882 5.81934 177.741 5.7373C177.541 5.62793 177.331 5.57324 177.112 5.57324H176.784V5.32031H180.756V5.57324H180.421C180.043 5.57324 179.767 5.6849 179.594 5.9082C179.48 6.05404 179.423 6.40495 179.423 6.96094V12.9492C179.423 13.4186 179.452 13.7285 179.512 13.8789C179.557 13.9928 179.653 14.0908 179.799 14.1729C179.995 14.2822 180.202 14.3369 180.421 14.3369H180.756ZM186.218 5.1084C187.421 5.1084 188.462 5.56641 189.342 6.48242C190.226 7.39388 190.668 8.5332 190.668 9.90039C190.668 11.3086 190.224 12.4775 189.335 13.4072C188.446 14.3369 187.371 14.8018 186.108 14.8018C184.832 14.8018 183.759 14.3483 182.889 13.4414C182.023 12.5345 181.59 11.361 181.59 9.9209C181.59 8.44889 182.091 7.24805 183.094 6.31836C183.964 5.51172 185.006 5.1084 186.218 5.1084ZM186.088 5.60742C185.258 5.60742 184.593 5.91504 184.092 6.53027C183.467 7.2959 183.155 8.41699 183.155 9.89355C183.155 11.4066 183.479 12.571 184.126 13.3867C184.623 14.0065 185.279 14.3164 186.095 14.3164C186.965 14.3164 187.683 13.9769 188.248 13.2979C188.818 12.6188 189.103 11.5479 189.103 10.085C189.103 8.49902 188.79 7.31641 188.166 6.53711C187.665 5.91732 186.972 5.60742 186.088 5.60742ZM191.03 5.32031H193.546L199.213 12.2725V6.92676C199.213 6.3571 199.149 6.00163 199.021 5.86035C198.853 5.66895 198.586 5.57324 198.222 5.57324H197.9V5.32031H201.127V5.57324H200.799C200.407 5.57324 200.129 5.69173 199.965 5.92871C199.865 6.07454 199.814 6.40723 199.814 6.92676V14.7402H199.568L193.457 7.27539V12.9834C193.457 13.5531 193.519 13.9085 193.642 14.0498C193.815 14.2412 194.081 14.3369 194.441 14.3369H194.77V14.5898H191.543V14.3369H191.864C192.261 14.3369 192.541 14.2184 192.705 13.9814C192.805 13.8356 192.855 13.5029 192.855 12.9834V6.53711C192.587 6.22266 192.382 6.0153 192.24 5.91504C192.104 5.81478 191.901 5.72135 191.632 5.63477C191.5 5.59375 191.299 5.57324 191.03 5.57324V5.32031ZM207.737 11.4863H204.148L203.52 12.9492C203.365 13.3092 203.287 13.5781 203.287 13.7559C203.287 13.8971 203.353 14.0225 203.485 14.1318C203.622 14.2367 203.914 14.305 204.36 14.3369V14.5898H201.441V14.3369C201.829 14.2686 202.079 14.1797 202.193 14.0703C202.426 13.8516 202.683 13.4072 202.966 12.7373L206.227 5.1084H206.466L209.692 12.8193C209.952 13.4391 210.187 13.8424 210.396 14.0293C210.611 14.2116 210.907 14.3141 211.285 14.3369V14.5898H207.628V14.3369C207.997 14.3187 208.245 14.2572 208.373 14.1523C208.505 14.0475 208.571 13.9199 208.571 13.7695C208.571 13.569 208.48 13.2523 208.298 12.8193L207.737 11.4863ZM207.546 10.9805L205.974 7.23438L204.36 10.9805H207.546ZM219.475 12.0264L219.7 12.0742L218.907 14.5898H211.729V14.3369H212.078C212.47 14.3369 212.75 14.2093 212.919 13.9541C213.015 13.8083 213.062 13.471 213.062 12.9424V6.96094C213.062 6.38216 212.999 6.01986 212.871 5.87402C212.693 5.6735 212.429 5.57324 212.078 5.57324H211.729V5.32031H215.927V5.57324C215.435 5.56868 215.088 5.61426 214.888 5.70996C214.692 5.80566 214.557 5.92643 214.484 6.07227C214.411 6.2181 214.375 6.56673 214.375 7.11816V12.9424C214.375 13.3206 214.411 13.5804 214.484 13.7217C214.539 13.8174 214.623 13.888 214.737 13.9336C214.851 13.9792 215.207 14.002 215.804 14.002H216.48C217.191 14.002 217.69 13.9495 217.978 13.8447C218.265 13.7399 218.527 13.5553 218.764 13.291C219.001 13.0221 219.238 12.6006 219.475 12.0264ZM106.989 25.1084V28.3145H106.736C106.654 27.6992 106.506 27.2093 106.292 26.8447C106.082 26.4801 105.782 26.1908 105.39 25.9766C104.998 25.7624 104.592 25.6553 104.173 25.6553C103.699 25.6553 103.307 25.8011 102.997 26.0928C102.687 26.3799 102.532 26.708 102.532 27.0771C102.532 27.3597 102.63 27.6172 102.826 27.8496C103.109 28.1914 103.781 28.6471 104.843 29.2168C105.709 29.6816 106.299 30.0394 106.613 30.29C106.932 30.5361 107.176 30.8278 107.345 31.165C107.518 31.5023 107.604 31.8555 107.604 32.2246C107.604 32.9264 107.331 33.5326 106.784 34.043C106.242 34.5488 105.542 34.8018 104.686 34.8018C104.417 34.8018 104.164 34.7812 103.927 34.7402C103.785 34.7174 103.492 34.6354 103.045 34.4941C102.603 34.3483 102.323 34.2754 102.204 34.2754C102.09 34.2754 101.999 34.3096 101.931 34.3779C101.867 34.4463 101.819 34.5876 101.787 34.8018H101.534V31.623H101.787C101.906 32.2884 102.065 32.7874 102.266 33.1201C102.466 33.4482 102.771 33.7217 103.182 33.9404C103.596 34.1592 104.05 34.2686 104.542 34.2686C105.112 34.2686 105.561 34.1182 105.889 33.8174C106.221 33.5166 106.388 33.1611 106.388 32.751C106.388 32.5231 106.324 32.293 106.196 32.0605C106.073 31.8281 105.88 31.6117 105.615 31.4111C105.438 31.2744 104.952 30.985 104.159 30.543C103.366 30.0964 102.801 29.7409 102.464 29.4766C102.131 29.2122 101.878 28.9206 101.705 28.6016C101.532 28.2826 101.445 27.9316 101.445 27.5488C101.445 26.8835 101.701 26.3115 102.211 25.833C102.721 25.3499 103.371 25.1084 104.159 25.1084C104.651 25.1084 105.173 25.2292 105.725 25.4707C105.98 25.5846 106.16 25.6416 106.265 25.6416C106.383 25.6416 106.479 25.6074 106.552 25.5391C106.629 25.4661 106.691 25.3226 106.736 25.1084H106.989ZM115.042 25.5732V25.3203H118.323V25.5732H117.975C117.61 25.5732 117.33 25.7259 117.134 26.0312C117.038 26.1725 116.99 26.5007 116.99 27.0156V30.7754C116.99 31.7051 116.897 32.4274 116.71 32.9424C116.528 33.4528 116.165 33.8926 115.623 34.2617C115.085 34.6263 114.352 34.8086 113.422 34.8086C112.41 34.8086 111.642 34.6331 111.118 34.2822C110.594 33.9313 110.223 33.4596 110.004 32.8672C109.858 32.4616 109.785 31.7005 109.785 30.584V26.9609C109.785 26.3913 109.705 26.0176 109.546 25.8398C109.391 25.6621 109.138 25.5732 108.787 25.5732H108.438V25.3203H112.444V25.5732H112.089C111.706 25.5732 111.433 25.694 111.269 25.9355C111.155 26.0996 111.098 26.4414 111.098 26.9609V31.001C111.098 31.361 111.13 31.7734 111.193 32.2383C111.262 32.7031 111.382 33.0654 111.556 33.3252C111.729 33.585 111.977 33.7992 112.301 33.9678C112.629 34.1364 113.03 34.2207 113.504 34.2207C114.11 34.2207 114.652 34.0885 115.131 33.8242C115.609 33.5599 115.935 33.2227 116.108 32.8125C116.286 32.3978 116.375 31.6982 116.375 30.7139V26.9609C116.375 26.3822 116.311 26.0199 116.184 25.874C116.006 25.6735 115.742 25.5732 115.391 25.5732H115.042ZM121.352 30.249V32.9492C121.352 33.5326 121.415 33.8949 121.543 34.0361C121.716 34.2367 121.978 34.3369 122.329 34.3369H122.685V34.5898H118.713V34.3369H119.062C119.453 34.3369 119.734 34.2093 119.902 33.9541C119.993 33.8128 120.039 33.4779 120.039 32.9492V26.9609C120.039 26.3776 119.978 26.0153 119.854 25.874C119.677 25.6735 119.412 25.5732 119.062 25.5732H118.713V25.3203H122.11C122.94 25.3203 123.594 25.4069 124.072 25.5801C124.551 25.7487 124.954 26.0358 125.282 26.4414C125.61 26.847 125.774 27.3278 125.774 27.8838C125.774 28.6403 125.524 29.2555 125.022 29.7295C124.526 30.2035 123.822 30.4404 122.91 30.4404C122.687 30.4404 122.445 30.4245 122.186 30.3926C121.926 30.3607 121.648 30.3128 121.352 30.249ZM121.352 29.8594C121.593 29.9049 121.807 29.9391 121.994 29.9619C122.181 29.9847 122.34 29.9961 122.473 29.9961C122.947 29.9961 123.354 29.8138 123.696 29.4492C124.043 29.0801 124.216 28.6038 124.216 28.0205C124.216 27.6195 124.134 27.248 123.97 26.9062C123.806 26.5599 123.573 26.3024 123.272 26.1338C122.972 25.9606 122.63 25.874 122.247 25.874C122.015 25.874 121.716 25.9173 121.352 26.0039V29.8594ZM129.199 25.8262V29.4902H131.236C131.765 29.4902 132.118 29.4105 132.296 29.251C132.533 29.0413 132.665 28.6722 132.692 28.1436H132.945V31.3701H132.692C132.629 30.9189 132.565 30.6296 132.501 30.502C132.419 30.3424 132.285 30.2171 132.098 30.126C131.911 30.0348 131.624 29.9893 131.236 29.9893H129.199V33.0449C129.199 33.4551 129.217 33.7057 129.254 33.7969C129.29 33.8835 129.354 33.9541 129.445 34.0088C129.536 34.0589 129.71 34.084 129.965 34.084H131.537C132.061 34.084 132.442 34.0475 132.679 33.9746C132.916 33.9017 133.144 33.7581 133.362 33.5439C133.645 33.2614 133.934 32.8353 134.23 32.2656H134.504L133.704 34.5898H126.561V34.3369H126.889C127.107 34.3369 127.315 34.2845 127.511 34.1797C127.657 34.1068 127.755 33.9974 127.805 33.8516C127.859 33.7057 127.887 33.4072 127.887 32.9561V26.9336C127.887 26.3457 127.827 25.9834 127.709 25.8467C127.545 25.6644 127.271 25.5732 126.889 25.5732H126.561V25.3203H133.704L133.807 27.3506H133.54C133.444 26.863 133.337 26.528 133.219 26.3457C133.105 26.1634 132.934 26.0244 132.706 25.9287C132.524 25.8604 132.202 25.8262 131.742 25.8262H129.199ZM144.293 34.5898H141.818L138.681 30.2559C138.448 30.265 138.259 30.2695 138.113 30.2695C138.054 30.2695 137.99 30.2695 137.922 30.2695C137.854 30.265 137.783 30.2604 137.71 30.2559V32.9492C137.71 33.5326 137.774 33.8949 137.901 34.0361C138.075 34.2367 138.334 34.3369 138.681 34.3369H139.043V34.5898H135.071V34.3369H135.42C135.812 34.3369 136.092 34.2093 136.261 33.9541C136.356 33.8128 136.404 33.4779 136.404 32.9492V26.9609C136.404 26.3776 136.34 26.0153 136.213 25.874C136.035 25.6735 135.771 25.5732 135.42 25.5732H135.071V25.3203H138.448C139.433 25.3203 140.157 25.3932 140.622 25.5391C141.091 25.6803 141.488 25.9447 141.812 26.332C142.14 26.7148 142.304 27.1729 142.304 27.7061C142.304 28.2757 142.117 28.7702 141.743 29.1895C141.374 29.6087 140.8 29.9049 140.021 30.0781L141.935 32.7373C142.372 33.348 142.748 33.7536 143.062 33.9541C143.377 34.1546 143.787 34.2822 144.293 34.3369V34.5898ZM137.71 29.8252C137.797 29.8252 137.872 29.8275 137.936 29.832C137.999 29.832 138.052 29.832 138.093 29.832C138.977 29.832 139.642 29.6406 140.089 29.2578C140.54 28.875 140.766 28.3874 140.766 27.7949C140.766 27.2161 140.583 26.7467 140.219 26.3867C139.859 26.0221 139.38 25.8398 138.783 25.8398C138.519 25.8398 138.161 25.8831 137.71 25.9697V29.8252ZM148.49 34.3369V34.5898H144.519V34.3369H144.847C145.229 34.3369 145.507 34.2253 145.681 34.002C145.79 33.8561 145.845 33.5052 145.845 32.9492V26.9609C145.845 26.4915 145.815 26.1816 145.756 26.0312C145.71 25.9173 145.617 25.8193 145.476 25.7373C145.275 25.6279 145.065 25.5732 144.847 25.5732H144.519V25.3203H148.49V25.5732H148.155C147.777 25.5732 147.501 25.6849 147.328 25.9082C147.214 26.054 147.157 26.4049 147.157 26.9609V32.9492C147.157 33.4186 147.187 33.7285 147.246 33.8789C147.292 33.9928 147.387 34.0908 147.533 34.1729C147.729 34.2822 147.937 34.3369 148.155 34.3369H148.49ZM151.758 25.8262V29.4902H153.795C154.324 29.4902 154.677 29.4105 154.854 29.251C155.091 29.0413 155.224 28.6722 155.251 28.1436H155.504V31.3701H155.251C155.187 30.9189 155.123 30.6296 155.06 30.502C154.978 30.3424 154.843 30.2171 154.656 30.126C154.469 30.0348 154.182 29.9893 153.795 29.9893H151.758V33.0449C151.758 33.4551 151.776 33.7057 151.812 33.7969C151.849 33.8835 151.913 33.9541 152.004 34.0088C152.095 34.0589 152.268 34.084 152.523 34.084H154.096C154.62 34.084 155 34.0475 155.237 33.9746C155.474 33.9017 155.702 33.7581 155.921 33.5439C156.203 33.2614 156.493 32.8353 156.789 32.2656H157.062L156.263 34.5898H149.119V34.3369H149.447C149.666 34.3369 149.873 34.2845 150.069 34.1797C150.215 34.1068 150.313 33.9974 150.363 33.8516C150.418 33.7057 150.445 33.4072 150.445 32.9561V26.9336C150.445 26.3457 150.386 25.9834 150.268 25.8467C150.104 25.6644 149.83 25.5732 149.447 25.5732H149.119V25.3203H156.263L156.365 27.3506H156.099C156.003 26.863 155.896 26.528 155.777 26.3457C155.663 26.1634 155.493 26.0244 155.265 25.9287C155.082 25.8604 154.761 25.8262 154.301 25.8262H151.758ZM164.069 25.5732V25.3203H167.351V25.5732H167.002C166.637 25.5732 166.357 25.7259 166.161 26.0312C166.065 26.1725 166.018 26.5007 166.018 27.0156V30.7754C166.018 31.7051 165.924 32.4274 165.737 32.9424C165.555 33.4528 165.193 33.8926 164.65 34.2617C164.113 34.6263 163.379 34.8086 162.449 34.8086C161.438 34.8086 160.67 34.6331 160.146 34.2822C159.621 33.9313 159.25 33.4596 159.031 32.8672C158.885 32.4616 158.812 31.7005 158.812 30.584V26.9609C158.812 26.3913 158.733 26.0176 158.573 25.8398C158.418 25.6621 158.165 25.5732 157.814 25.5732H157.466V25.3203H161.472V25.5732H161.116C160.733 25.5732 160.46 25.694 160.296 25.9355C160.182 26.0996 160.125 26.4414 160.125 26.9609V31.001C160.125 31.361 160.157 31.7734 160.221 32.2383C160.289 32.7031 160.41 33.0654 160.583 33.3252C160.756 33.585 161.005 33.7992 161.328 33.9678C161.656 34.1364 162.057 34.2207 162.531 34.2207C163.137 34.2207 163.68 34.0885 164.158 33.8242C164.637 33.5599 164.963 33.2227 165.136 32.8125C165.313 32.3978 165.402 31.6982 165.402 30.7139V26.9609C165.402 26.3822 165.339 26.0199 165.211 25.874C165.033 25.6735 164.769 25.5732 164.418 25.5732H164.069ZM176.969 34.5898H174.494L171.356 30.2559C171.124 30.265 170.935 30.2695 170.789 30.2695C170.73 30.2695 170.666 30.2695 170.598 30.2695C170.529 30.265 170.459 30.2604 170.386 30.2559V32.9492C170.386 33.5326 170.45 33.8949 170.577 34.0361C170.75 34.2367 171.01 34.3369 171.356 34.3369H171.719V34.5898H167.747V34.3369H168.096C168.488 34.3369 168.768 34.2093 168.937 33.9541C169.032 33.8128 169.08 33.4779 169.08 32.9492V26.9609C169.08 26.3776 169.016 26.0153 168.889 25.874C168.711 25.6735 168.447 25.5732 168.096 25.5732H167.747V25.3203H171.124C172.108 25.3203 172.833 25.3932 173.298 25.5391C173.767 25.6803 174.164 25.9447 174.487 26.332C174.815 26.7148 174.979 27.1729 174.979 27.7061C174.979 28.2757 174.793 28.7702 174.419 29.1895C174.05 29.6087 173.476 29.9049 172.696 30.0781L174.61 32.7373C175.048 33.348 175.424 33.7536 175.738 33.9541C176.053 34.1546 176.463 34.2822 176.969 34.3369V34.5898ZM170.386 29.8252C170.472 29.8252 170.548 29.8275 170.611 29.832C170.675 29.832 170.728 29.832 170.769 29.832C171.653 29.832 172.318 29.6406 172.765 29.2578C173.216 28.875 173.441 28.3874 173.441 27.7949C173.441 27.2161 173.259 26.7467 172.895 26.3867C172.535 26.0221 172.056 25.8398 171.459 25.8398C171.195 25.8398 170.837 25.8831 170.386 25.9697V29.8252ZM100.81 54.5898V54.3369H101.158C101.55 54.3369 101.828 54.2116 101.992 53.9609C102.092 53.8105 102.143 53.4733 102.143 52.9492V46.9609C102.143 46.3822 102.079 46.0199 101.951 45.874C101.773 45.6735 101.509 45.5732 101.158 45.5732H100.81V45.3203H104.583C105.968 45.3203 107.021 45.4775 107.741 45.792C108.466 46.1064 109.047 46.6305 109.484 47.3643C109.926 48.098 110.147 48.9456 110.147 49.9072C110.147 51.1969 109.756 52.2747 108.972 53.1406C108.092 54.1068 106.752 54.5898 104.952 54.5898H100.81ZM103.455 53.9199C104.034 54.0475 104.519 54.1113 104.911 54.1113C105.968 54.1113 106.846 53.7399 107.543 52.9971C108.24 52.2542 108.589 51.2471 108.589 49.9756C108.589 48.695 108.24 47.6855 107.543 46.9473C106.846 46.209 105.95 45.8398 104.856 45.8398C104.446 45.8398 103.979 45.9059 103.455 46.0381V53.9199ZM112.314 48.6494V48.3281C112.784 48.0501 113.103 47.7904 113.271 47.5488C113.39 47.3757 113.449 47.1683 113.449 46.9268C113.449 46.7855 113.424 46.6807 113.374 46.6123C113.319 46.5439 113.26 46.5098 113.196 46.5098C113.146 46.5098 113.08 46.5257 112.998 46.5576C112.88 46.5986 112.782 46.6191 112.704 46.6191C112.522 46.6191 112.36 46.5508 112.219 46.4141C112.077 46.2773 112.007 46.1064 112.007 45.9014C112.007 45.6735 112.077 45.4958 112.219 45.3682C112.41 45.195 112.638 45.1084 112.902 45.1084C113.208 45.1084 113.481 45.2383 113.723 45.498C113.969 45.7533 114.092 46.0723 114.092 46.4551C114.092 46.9928 113.889 47.4827 113.483 47.9248C113.215 48.2165 112.825 48.458 112.314 48.6494ZM119.67 54.3369V54.5898H115.698V54.3369H116.026C116.409 54.3369 116.687 54.2253 116.86 54.002C116.97 53.8561 117.024 53.5052 117.024 52.9492V46.9609C117.024 46.4915 116.995 46.1816 116.936 46.0312C116.89 45.9173 116.797 45.8193 116.655 45.7373C116.455 45.6279 116.245 45.5732 116.026 45.5732H115.698V45.3203H119.67V45.5732H119.335C118.957 45.5732 118.681 45.6849 118.508 45.9082C118.394 46.054 118.337 46.4049 118.337 46.9609V52.9492C118.337 53.4186 118.367 53.7285 118.426 53.8789C118.471 53.9928 118.567 54.0908 118.713 54.1729C118.909 54.2822 119.116 54.3369 119.335 54.3369H119.67ZM119.827 45.3203H122.343L128.01 52.2725V46.9268C128.01 46.3571 127.946 46.0016 127.818 45.8604C127.65 45.6689 127.383 45.5732 127.019 45.5732H126.697V45.3203H129.924V45.5732H129.596C129.204 45.5732 128.926 45.6917 128.762 45.9287C128.661 46.0745 128.611 46.4072 128.611 46.9268V54.7402H128.365L122.254 47.2754V52.9834C122.254 53.5531 122.315 53.9085 122.438 54.0498C122.612 54.2412 122.878 54.3369 123.238 54.3369H123.566V54.5898H120.34V54.3369H120.661C121.058 54.3369 121.338 54.2184 121.502 53.9814C121.602 53.8356 121.652 53.5029 121.652 52.9834V46.5371C121.383 46.2227 121.178 46.0153 121.037 45.915C120.9 45.8148 120.698 45.7214 120.429 45.6348C120.297 45.5938 120.096 45.5732 119.827 45.5732V45.3203ZM132.993 45.8262V49.4697H134.682C135.069 49.4697 135.352 49.3854 135.529 49.2168C135.712 49.0436 135.832 48.7041 135.892 48.1982H136.145V51.3359H135.892C135.887 50.9759 135.839 50.7116 135.748 50.543C135.661 50.3743 135.538 50.249 135.379 50.167C135.224 50.0804 134.992 50.0371 134.682 50.0371H132.993V52.9492C132.993 53.4186 133.023 53.7285 133.082 53.8789C133.128 53.9928 133.223 54.0908 133.369 54.1729C133.57 54.2822 133.779 54.3369 133.998 54.3369H134.333V54.5898H130.354V54.3369H130.683C131.065 54.3369 131.343 54.2253 131.517 54.002C131.626 53.8561 131.681 53.5052 131.681 52.9492V46.9609C131.681 46.4915 131.651 46.1816 131.592 46.0312C131.546 45.9173 131.453 45.8193 131.312 45.7373C131.116 45.6279 130.906 45.5732 130.683 45.5732H130.354V45.3203H137.252L137.341 47.3574H137.102C136.983 46.9245 136.844 46.6077 136.685 46.4072C136.53 46.2021 136.336 46.054 136.104 45.9629C135.876 45.8717 135.52 45.8262 135.037 45.8262H132.993ZM143.042 45.1084C144.245 45.1084 145.286 45.5664 146.166 46.4824C147.05 47.3939 147.492 48.5332 147.492 49.9004C147.492 51.3086 147.048 52.4775 146.159 53.4072C145.271 54.3369 144.195 54.8018 142.933 54.8018C141.657 54.8018 140.583 54.3483 139.713 53.4414C138.847 52.5345 138.414 51.361 138.414 49.9209C138.414 48.4489 138.915 47.248 139.918 46.3184C140.788 45.5117 141.83 45.1084 143.042 45.1084ZM142.912 45.6074C142.083 45.6074 141.417 45.915 140.916 46.5303C140.292 47.2959 139.979 48.417 139.979 49.8936C139.979 51.4066 140.303 52.571 140.95 53.3867C141.447 54.0065 142.103 54.3164 142.919 54.3164C143.789 54.3164 144.507 53.9769 145.072 53.2979C145.642 52.6188 145.927 51.5479 145.927 50.085C145.927 48.499 145.615 47.3164 144.99 46.5371C144.489 45.9173 143.796 45.6074 142.912 45.6074ZM157.5 54.5898H155.025L151.888 50.2559C151.655 50.265 151.466 50.2695 151.32 50.2695C151.261 50.2695 151.197 50.2695 151.129 50.2695C151.061 50.265 150.99 50.2604 150.917 50.2559V52.9492C150.917 53.5326 150.981 53.8949 151.108 54.0361C151.282 54.2367 151.541 54.3369 151.888 54.3369H152.25V54.5898H148.278V54.3369H148.627C149.019 54.3369 149.299 54.2093 149.468 53.9541C149.563 53.8128 149.611 53.4779 149.611 52.9492V46.9609C149.611 46.3776 149.548 46.0153 149.42 45.874C149.242 45.6735 148.978 45.5732 148.627 45.5732H148.278V45.3203H151.655C152.64 45.3203 153.364 45.3932 153.829 45.5391C154.299 45.6803 154.695 45.9447 155.019 46.332C155.347 46.7148 155.511 47.1729 155.511 47.7061C155.511 48.2757 155.324 48.7702 154.95 49.1895C154.581 49.6087 154.007 49.9049 153.228 50.0781L155.142 52.7373C155.579 53.348 155.955 53.7536 156.27 53.9541C156.584 54.1546 156.994 54.2822 157.5 54.3369V54.5898ZM150.917 49.8252C151.004 49.8252 151.079 49.8275 151.143 49.832C151.206 49.832 151.259 49.832 151.3 49.832C152.184 49.832 152.849 49.6406 153.296 49.2578C153.747 48.875 153.973 48.3874 153.973 47.7949C153.973 47.2161 153.79 46.7467 153.426 46.3867C153.066 46.0221 152.587 45.8398 151.99 45.8398C151.726 45.8398 151.368 45.8831 150.917 45.9697V49.8252ZM163.105 54.5898L159.523 46.79V52.9834C159.523 53.5531 159.585 53.9085 159.708 54.0498C159.877 54.2412 160.143 54.3369 160.508 54.3369H160.836V54.5898H157.609V54.3369H157.938C158.329 54.3369 158.607 54.2184 158.771 53.9814C158.872 53.8356 158.922 53.5029 158.922 52.9834V46.9268C158.922 46.5166 158.876 46.2204 158.785 46.0381C158.721 45.9059 158.603 45.7965 158.43 45.71C158.261 45.6188 157.988 45.5732 157.609 45.5732V45.3203H160.234L163.598 52.5732L166.906 45.3203H169.531V45.5732H169.21C168.813 45.5732 168.533 45.6917 168.369 45.9287C168.269 46.0745 168.219 46.4072 168.219 46.9268V52.9834C168.219 53.5531 168.283 53.9085 168.41 54.0498C168.579 54.2412 168.845 54.3369 169.21 54.3369H169.531V54.5898H165.594V54.3369H165.922C166.318 54.3369 166.596 54.2184 166.756 53.9814C166.856 53.8356 166.906 53.5029 166.906 52.9834V46.79L163.331 54.5898H163.105ZM176.237 51.4863H172.648L172.02 52.9492C171.865 53.3092 171.787 53.5781 171.787 53.7559C171.787 53.8971 171.853 54.0225 171.985 54.1318C172.122 54.2367 172.414 54.305 172.86 54.3369V54.5898H169.941V54.3369C170.329 54.2686 170.579 54.1797 170.693 54.0703C170.926 53.8516 171.183 53.4072 171.466 52.7373L174.727 45.1084H174.966L178.192 52.8193C178.452 53.4391 178.687 53.8424 178.896 54.0293C179.111 54.2116 179.407 54.3141 179.785 54.3369V54.5898H176.128V54.3369C176.497 54.3187 176.745 54.2572 176.873 54.1523C177.005 54.0475 177.071 53.9199 177.071 53.7695C177.071 53.569 176.98 53.2523 176.798 52.8193L176.237 51.4863ZM176.046 50.9805L174.474 47.2344L172.86 50.9805H176.046ZM186.491 45.3203L186.594 47.4941H186.334C186.284 47.1113 186.215 46.8379 186.129 46.6738C185.988 46.4095 185.799 46.2158 185.562 46.0928C185.329 45.9652 185.021 45.9014 184.639 45.9014H183.333V52.9834C183.333 53.5531 183.395 53.9085 183.518 54.0498C183.691 54.2412 183.957 54.3369 184.317 54.3369H184.639V54.5898H180.708V54.3369H181.036C181.428 54.3369 181.706 54.2184 181.87 53.9814C181.97 53.8356 182.021 53.5029 182.021 52.9834V45.9014H180.906C180.473 45.9014 180.166 45.9333 179.983 45.9971C179.746 46.0837 179.544 46.25 179.375 46.4961C179.206 46.7422 179.106 47.0749 179.074 47.4941H178.814L178.924 45.3203H186.491ZM191.27 54.3369V54.5898H187.298V54.3369H187.626C188.009 54.3369 188.287 54.2253 188.46 54.002C188.569 53.8561 188.624 53.5052 188.624 52.9492V46.9609C188.624 46.4915 188.594 46.1816 188.535 46.0312C188.49 45.9173 188.396 45.8193 188.255 45.7373C188.054 45.6279 187.845 45.5732 187.626 45.5732H187.298V45.3203H191.27V45.5732H190.935C190.556 45.5732 190.281 45.6849 190.107 45.9082C189.993 46.054 189.937 46.4049 189.937 46.9609V52.9492C189.937 53.4186 189.966 53.7285 190.025 53.8789C190.071 53.9928 190.167 54.0908 190.312 54.1729C190.508 54.2822 190.716 54.3369 190.935 54.3369H191.27ZM197.777 54.6924C198.242 55.4945 198.743 56.0846 199.281 56.4629C199.824 56.8411 200.439 57.0576 201.127 57.1123V57.3311C200.498 57.3083 199.826 57.1807 199.11 56.9482C198.395 56.7204 197.716 56.4014 197.073 55.9912C196.435 55.5856 195.884 55.1527 195.419 54.6924C194.763 54.4281 194.243 54.1478 193.86 53.8516C193.304 53.4095 192.871 52.8672 192.562 52.2246C192.256 51.5775 192.104 50.8141 192.104 49.9346C192.104 48.5492 192.552 47.3984 193.45 46.4824C194.348 45.5664 195.435 45.1084 196.711 45.1084C197.923 45.1084 198.971 45.5687 199.855 46.4893C200.744 47.4053 201.188 48.5628 201.188 49.9619C201.188 51.0967 200.872 52.0924 200.238 52.9492C199.609 53.806 198.789 54.387 197.777 54.6924ZM196.629 45.6348C195.799 45.6348 195.132 45.931 194.626 46.5234C193.988 47.2663 193.669 48.4033 193.669 49.9346C193.669 51.4339 193.993 52.5892 194.64 53.4004C195.141 54.0247 195.804 54.3369 196.629 54.3369C197.486 54.3369 198.176 54.0247 198.7 53.4004C199.315 52.6621 199.623 51.5729 199.623 50.1328C199.623 49.0254 199.454 48.0934 199.117 47.3369C198.857 46.7536 198.511 46.3252 198.078 46.0518C197.65 45.7738 197.167 45.6348 196.629 45.6348ZM208.407 45.5732V45.3203H211.688V45.5732H211.34C210.975 45.5732 210.695 45.7259 210.499 46.0312C210.403 46.1725 210.355 46.5007 210.355 47.0156V50.7754C210.355 51.7051 210.262 52.4274 210.075 52.9424C209.893 53.4528 209.531 53.8926 208.988 54.2617C208.451 54.6263 207.717 54.8086 206.787 54.8086C205.775 54.8086 205.007 54.6331 204.483 54.2822C203.959 53.9313 203.588 53.4596 203.369 52.8672C203.223 52.4616 203.15 51.7005 203.15 50.584V46.9609C203.15 46.3913 203.071 46.0176 202.911 45.8398C202.756 45.6621 202.503 45.5732 202.152 45.5732H201.804V45.3203H205.81V45.5732H205.454C205.071 45.5732 204.798 45.694 204.634 45.9355C204.52 46.0996 204.463 46.4414 204.463 46.9609V51.001C204.463 51.361 204.495 51.7734 204.559 52.2383C204.627 52.7031 204.748 53.0654 204.921 53.3252C205.094 53.585 205.342 53.7992 205.666 53.9678C205.994 54.1364 206.395 54.2207 206.869 54.2207C207.475 54.2207 208.018 54.0885 208.496 53.8242C208.975 53.5599 209.3 53.2227 209.474 52.8125C209.651 52.3978 209.74 51.6982 209.74 50.7139V46.9609C209.74 46.3822 209.676 46.0199 209.549 45.874C209.371 45.6735 209.107 45.5732 208.756 45.5732H208.407ZM214.771 45.8262V49.4902H216.809C217.337 49.4902 217.69 49.4105 217.868 49.251C218.105 49.0413 218.237 48.6722 218.265 48.1436H218.518V51.3701H218.265C218.201 50.9189 218.137 50.6296 218.073 50.502C217.991 50.3424 217.857 50.2171 217.67 50.126C217.483 50.0348 217.196 49.9893 216.809 49.9893H214.771V53.0449C214.771 53.4551 214.79 53.7057 214.826 53.7969C214.863 53.8835 214.926 53.9541 215.018 54.0088C215.109 54.0589 215.282 54.084 215.537 54.084H217.109C217.633 54.084 218.014 54.0475 218.251 53.9746C218.488 53.9017 218.716 53.7581 218.935 53.5439C219.217 53.2614 219.507 52.8353 219.803 52.2656H220.076L219.276 54.5898H212.133V54.3369H212.461C212.68 54.3369 212.887 54.2845 213.083 54.1797C213.229 54.1068 213.327 53.9974 213.377 53.8516C213.432 53.7057 213.459 53.4072 213.459 52.9561V46.9336C213.459 46.3457 213.4 45.9834 213.281 45.8467C213.117 45.6644 212.844 45.5732 212.461 45.5732H212.133V45.3203H219.276L219.379 47.3506H219.112C219.017 46.863 218.91 46.528 218.791 46.3457C218.677 46.1634 218.506 46.0244 218.278 45.9287C218.096 45.8604 217.775 45.8262 217.314 45.8262H214.771Z" fill="black"/>
<g filter="url(#filter0_d_2933_6536)">
<path d="M10.2853 0.195702C8.16708 0.611279 6.41902 1.91737 5.5347 3.73798L5 4.84618V29.2859V53.7256L5.5347 54.814C6.25449 56.2587 7.17994 57.1096 8.80461 57.8616L10.1414 58.475L17.7506 58.5344C25.7094 58.6136 26.8199 58.5344 28.4035 57.7428C29.6785 57.1294 30.7068 56.0806 31.3443 54.7745L31.9407 53.5277L32.0024 46.2849L32.0641 39.042L26.1618 38.9233C22.9125 38.8441 20.2184 38.8045 20.1979 38.8441C20.1567 38.8837 20.1156 42.0698 20.1156 45.9089C20.095 53.8444 20.1362 53.6267 18.5732 53.6267C16.9691 53.6267 17.0308 53.9631 17.0308 44.7809C17.0308 37.2808 17.0514 36.6475 17.401 36.3507C17.7094 36.0736 18.7789 36.0142 24.9074 35.8955L32.0641 35.757L32.0024 20.3016L31.9407 4.84618L31.3649 3.73798C30.6451 2.31315 29.3701 1.16537 27.8071 0.571697C26.6143 0.116543 26.4703 0.0967598 18.8817 0.0571785C14.6452 0.0373917 10.7789 0.116547 10.2853 0.195702ZM19.8483 6.13248C20.0539 6.50847 20.1156 9.19981 20.1156 17.6894C20.1156 30.1368 20.1979 29.4838 18.6143 29.4838C16.928 29.4838 17.0308 30.2754 17.0308 17.5509C17.0308 4.70765 16.928 5.47943 18.6555 5.57838C19.4164 5.61796 19.6426 5.73669 19.8483 6.13248Z" fill="#001228"/>
</g>
<g filter="url(#filter1_d_2933_6536)">
<path d="M41.5004 0.277023C39.9169 0.613438 38.8063 1.22691 37.8397 2.27574C36.1739 4.09635 36.2562 3.12668 36.1945 20.4027L36.1328 35.7591L43.3513 35.8581C49.8705 35.957 50.6109 35.9966 50.9605 36.3132C51.3512 36.6497 51.3718 36.9861 51.3718 44.8226C51.3718 54.0246 51.4335 53.6288 49.7883 53.6288C48.2459 53.6288 48.287 53.8267 48.287 45.8517V38.7869H42.1996H36.1328L36.1945 46.2475C36.2562 53.4112 36.2768 53.7674 36.7086 54.6579C37.6135 56.5181 39.1559 57.7252 41.3976 58.2991C42.7343 58.6553 56.143 58.6949 57.7882 58.3585C60.4823 57.8044 62.2098 56.3004 62.9707 53.8267C63.2586 52.9164 63.2998 51.1948 63.2998 41.221V29.6838H56.2458H49.1713L48.7394 29.2287L48.287 28.7735V17.4739C48.287 4.74939 48.1842 5.54096 49.8705 5.54096C51.4541 5.54096 51.3718 4.98687 51.3718 16.4844V26.7155H57.3358H63.3203L63.2586 15.772C63.1969 4.84834 63.1969 4.84834 62.7239 3.85888C61.7985 1.91953 59.9887 0.633228 57.6443 0.217655C55.9373 -0.0989723 42.9811 -0.0396042 41.5004 0.277023Z" fill="#001228"/>
</g>
<path d="M66.6944 0.315844C66.4065 0.612682 66.3654 1.26573 66.4271 5.93599C66.5094 12.506 66.3448 12.1894 69.2651 11.9717C70.3345 11.9123 73.3165 11.6551 75.8872 11.4176C79.7329 11.0416 80.6173 10.9031 80.9669 10.6062C81.3782 10.25 81.3987 10.0324 81.3987 5.44126C81.3987 1.04805 81.3576 0.632471 81.0286 0.335632C80.679 0.0387936 79.8769 -0.000784874 73.8307 -0.000784874C67.8255 -0.000784874 67.0029 0.0387945 66.6944 0.315844Z" fill="#0061B1"/>
<path d="M74.8402 12.9613C70.9739 13.3373 67.7452 13.6737 67.6835 13.7133C67.5189 13.8716 72.7837 16.2266 73.2773 16.2266C73.5446 16.2266 76.4649 15.9099 79.7759 15.5339C83.1075 15.1382 86.3363 14.7819 86.9533 14.7028C87.7965 14.6038 87.9816 14.5445 87.6731 14.4257C87.4469 14.3268 86.2746 13.8519 85.0818 13.3769C83.8685 12.8822 82.6757 12.4468 82.4083 12.3874C82.141 12.3479 78.7271 12.6051 74.8402 12.9613Z" fill="#0061B1"/>
<path d="M70.4577 18.3427L67.4141 18.4218V38.4881V58.5742H73.4809H79.5477V38.3892V18.2042L76.5246 18.2437C74.8382 18.2635 72.1235 18.3229 70.4577 18.3427Z" fill="#001228"/>
<defs>
<filter id="filter0_d_2933_6536" x="0.871478" y="0.0546875" width="35.3195" height="66.761" filterUnits="userSpaceOnUse" color-interpolation-filters="sRGB">
<feFlood flood-opacity="0" result="BackgroundImageFix"/>
<feColorMatrix in="SourceAlpha" type="matrix" values="0 0 0 0 0 0 0 0 0 0 0 0 0 0 0 0 0 0 127 0" result="hardAlpha"/>
<feOffset dy="4.12852"/>
<feGaussianBlur stdDeviation="2.06426"/>
<feComposite in2="hardAlpha" operator="out"/>
<feColorMatrix type="matrix" values="0 0 0 0 0.00392157 0 0 0 0 0.0784314 0 0 0 0 0.156863 0 0 0 0.15 0"/>
<feBlend mode="normal" in2="BackgroundImageFix" result="effect1_dropShadow_2933_6536"/>
<feBlend mode="normal" in="SourceGraphic" in2="effect1_dropShadow_2933_6536" result="shape"/>
</filter>
<filter id="filter1_d_2933_6536" x="32.0043" y="0.0078125" width="35.4445" height="66.8391" filterUnits="userSpaceOnUse" color-interpolation-filters="sRGB">
<feFlood flood-opacity="0" result="BackgroundImageFix"/>
<feColorMatrix in="SourceAlpha" type="matrix" values="0 0 0 0 0 0 0 0 0 0 0 0 0 0 0 0 0 0 127 0" result="hardAlpha"/>
<feOffset dy="4.12852"/>
<feGaussianBlur stdDeviation="2.06426"/>
<feComposite in2="hardAlpha" operator="out"/>
<feColorMatrix type="matrix" values="0 0 0 0 0.00392157 0 0 0 0 0.0784314 0 0 0 0 0.156863 0 0 0 0.15 0"/>
<feBlend mode="normal" in2="BackgroundImageFix" result="effect1_dropShadow_2933_6536"/>
<feBlend mode="normal" in="SourceGraphic" in2="effect1_dropShadow_2933_6536" result="shape"/>
</filter>
</defs>
</svg>
