<svg width="48" height="48" viewBox="0 0 48 48" fill="none" xmlns="http://www.w3.org/2000/svg">
<path d="M39.9988 24.1002C39.9613 21.0511 39.0533 18.0763 37.3818 15.526C35.7102 12.9757 33.3447 10.9562 30.5639 9.70526C27.783 8.45432 24.7026 8.02407 21.6854 8.46518C18.6682 8.90629 15.8399 10.2004 13.5336 12.1951C11.2272 14.1898 9.53888 16.802 8.66739 19.724C7.7959 22.6461 7.77755 25.7564 8.6145 28.6885C9.45145 31.6207 11.1089 34.2526 13.3915 36.2744C15.6742 38.2961 18.487 39.6235 21.4988 40.1002V28.7602H17.4988V24.1002H21.4988V20.5602C21.4062 19.737 21.4955 18.9036 21.7602 18.1187C22.0249 17.3339 22.4587 16.6167 23.0309 16.0178C23.6031 15.4188 24.2998 14.9528 25.0718 14.6526C25.8438 14.3524 26.6723 14.2252 27.4988 14.2802C28.6985 14.2966 29.8952 14.4036 31.0788 14.6002V18.6002H29.0788C28.7339 18.5567 28.3837 18.5912 28.0539 18.7013C27.7242 18.8114 27.4234 18.9941 27.1738 19.236C26.9242 19.478 26.7322 19.7729 26.6119 20.099C26.4916 20.4251 26.4461 20.7741 26.4788 21.1202V24.1402H30.9188L30.1988 28.8002H26.4988V40.0002C30.2786 39.4023 33.719 37.4695 36.1958 34.5523C38.6726 31.6352 40.0219 27.9269 39.9988 24.1002Z" fill="white"/>
</svg>
