<svg width="126" height="230" viewBox="0 0 126 230" fill="none" xmlns="http://www.w3.org/2000/svg">
<ellipse cx="0.501037" cy="1.09466" rx="1.37604" ry="1.09466" fill="#666666"/>
<ellipse cx="41.7823" cy="1.09466" rx="1.37604" ry="1.09466" fill="#666666"/>
<ellipse cx="83.0635" cy="1.09466" rx="1.37604" ry="1.09466" fill="#666666"/>
<ellipse cx="124.345" cy="1.09466" rx="1.37604" ry="1.09466" fill="#666666"/>
<ellipse cx="0.501037" cy="33.5165" rx="1.37604" ry="1.09466" fill="#666666"/>
<ellipse cx="41.7823" cy="33.5165" rx="1.37604" ry="1.09466" fill="#666666"/>
<ellipse cx="83.0635" cy="33.5165" rx="1.37604" ry="1.09466" fill="#666666"/>
<ellipse cx="124.345" cy="33.5165" rx="1.37604" ry="1.09466" fill="#666666"/>
<ellipse cx="0.501037" cy="65.9423" rx="1.37604" ry="1.09466" fill="#666666"/>
<ellipse cx="41.7823" cy="65.9423" rx="1.37604" ry="1.09466" fill="#666666"/>
<ellipse cx="83.0635" cy="65.9423" rx="1.37604" ry="1.09466" fill="#666666"/>
<ellipse cx="124.345" cy="65.9423" rx="1.37604" ry="1.09466" fill="#666666"/>
<ellipse cx="0.501037" cy="98.3642" rx="1.37604" ry="1.09466" fill="#666666"/>
<ellipse cx="41.7823" cy="98.3642" rx="1.37604" ry="1.09466" fill="#666666"/>
<ellipse cx="83.0635" cy="98.3642" rx="1.37604" ry="1.09466" fill="#666666"/>
<ellipse cx="124.345" cy="98.3642" rx="1.37604" ry="1.09466" fill="#666666"/>
<ellipse cx="0.501037" cy="130.79" rx="1.37604" ry="1.09466" fill="#666666"/>
<ellipse cx="41.7823" cy="130.79" rx="1.37604" ry="1.09466" fill="#666666"/>
<ellipse cx="83.0635" cy="130.79" rx="1.37604" ry="1.09466" fill="#666666"/>
<ellipse cx="124.345" cy="130.79" rx="1.37604" ry="1.09466" fill="#666666"/>
<ellipse cx="0.501037" cy="163.212" rx="1.37604" ry="1.09466" fill="#666666"/>
<ellipse cx="41.7823" cy="163.212" rx="1.37604" ry="1.09466" fill="#666666"/>
<ellipse cx="83.0635" cy="163.212" rx="1.37604" ry="1.09466" fill="#666666"/>
<ellipse cx="124.345" cy="163.212" rx="1.37604" ry="1.09466" fill="#666666"/>
<ellipse cx="0.501037" cy="195.634" rx="1.37604" ry="1.09466" fill="#666666"/>
<ellipse cx="41.7823" cy="195.634" rx="1.37604" ry="1.09466" fill="#666666"/>
<ellipse cx="83.0635" cy="195.634" rx="1.37604" ry="1.09466" fill="#666666"/>
<ellipse cx="124.345" cy="195.634" rx="1.37604" ry="1.09466" fill="#666666"/>
<ellipse cx="0.501037" cy="228.06" rx="1.37604" ry="1.09466" fill="#666666"/>
<ellipse cx="41.7823" cy="228.06" rx="1.37604" ry="1.09466" fill="#666666"/>
<ellipse cx="83.0635" cy="228.06" rx="1.37604" ry="1.09466" fill="#666666"/>
<ellipse cx="124.345" cy="228.06" rx="1.37604" ry="1.09466" fill="#666666"/>
</svg>
