<svg width="31" height="28" viewBox="0 0 31 28" fill="none" xmlns="http://www.w3.org/2000/svg">
<path d="M8.77344 25.8281H22.3164" stroke="white" stroke-width="2.5" stroke-linecap="round" stroke-linejoin="round"/>
<path d="M2 19.8711V4.38282C2 3.75085 2.28537 3.14478 2.79333 2.69791C3.30129 2.25105 3.99023 2 4.70859 2H26.3773C27.0957 2 27.7846 2.25105 28.2926 2.69791C28.8005 3.14478 29.0859 3.75085 29.0859 4.38282V19.8711C29.0859 20.5031 28.8005 21.1092 28.2926 21.556C27.7846 22.0029 27.0957 22.2539 26.3773 22.2539H4.70859C3.99023 22.2539 3.30129 22.0029 2.79333 21.556C2.28537 21.1092 2 20.5031 2 19.8711Z" stroke="white" stroke-width="2.5"/>
<path d="M11.4766 12.1289L14.1852 14.5117L19.6023 9.74609" stroke="white" stroke-width="2.5" stroke-linecap="round" stroke-linejoin="round"/>
</svg>
