<svg width="48" height="48" viewBox="0 0 48 48" fill="none" xmlns="http://www.w3.org/2000/svg">
<path d="M24.0013 15.8013C22.3794 15.8013 20.7941 16.2822 19.4456 17.1832C18.0971 18.0842 17.0461 19.3649 16.4254 20.8632C15.8048 22.3616 15.6424 24.0103 15.9588 25.601C16.2752 27.1916 17.0562 28.6527 18.203 29.7995C19.3498 30.9463 20.8109 31.7273 22.4015 32.0437C23.9922 32.3601 25.6409 32.1977 27.1393 31.5771C28.6376 30.9564 29.9183 29.9054 30.8193 28.5569C31.7203 27.2084 32.2013 25.6231 32.2013 24.0013C32.2039 22.9237 31.9936 21.8562 31.5824 20.8601C31.1713 19.8641 30.5674 18.9591 29.8054 18.1971C29.0434 17.4351 28.1384 16.8312 27.1424 16.4201C26.1463 16.0089 25.0788 15.7986 24.0013 15.8013ZM24.0013 29.3412C22.9451 29.3412 21.9127 29.0281 21.0345 28.4413C20.1563 27.8545 19.4719 27.0205 19.0677 26.0448C18.6636 25.069 18.5578 23.9953 18.7639 22.9595C18.9699 21.9236 19.4785 20.9721 20.2253 20.2253C20.9721 19.4785 21.9236 18.9699 22.9595 18.7639C23.9953 18.5578 25.069 18.6636 26.0448 19.0677C27.0205 19.4719 27.8545 20.1563 28.4413 21.0345C29.0281 21.9127 29.3413 22.9451 29.3413 24.0013C29.3413 25.4175 28.7786 26.7758 27.7772 27.7772C26.7758 28.7786 25.4175 29.3412 24.0013 29.3412ZM34.4613 15.4613C34.4613 15.8568 34.344 16.2435 34.1242 16.5724C33.9044 16.9013 33.5921 17.1576 33.2266 17.309C32.8612 17.4604 32.459 17.5 32.0711 17.4228C31.6831 17.3456 31.3267 17.1552 31.047 16.8755C30.7673 16.5958 30.5769 16.2394 30.4997 15.8514C30.4225 15.4635 30.4621 15.0613 30.6135 14.6959C30.7649 14.3304 31.0212 14.0181 31.3501 13.7983C31.679 13.5785 32.0657 13.4613 32.4613 13.4613C32.9917 13.4613 33.5004 13.672 33.8755 14.047C34.2505 14.4221 34.4613 14.9308 34.4613 15.4613ZM39.8813 17.4612C39.9394 14.9749 39.012 12.5664 37.3013 10.7613C35.5057 9.02863 33.0961 8.07916 30.6013 8.12125C28.0013 8.00125 20.0013 8.00125 17.4013 8.12125C14.9157 8.06743 12.5088 8.99425 10.7013 10.7012C8.99052 12.5064 8.06308 14.9149 8.12125 17.4012C8.00125 20.0012 8.00125 28.0012 8.12125 30.6012C8.06308 33.0876 8.99052 35.4961 10.7013 37.3012C12.5088 39.0082 14.9157 39.9351 17.4013 39.8813C20.0413 40.0413 27.9613 40.0413 30.6013 39.8813C33.0876 39.9394 35.4961 39.012 37.3013 37.3012C39.012 35.4961 39.9394 33.0876 39.8813 30.6012C40.0013 28.0012 40.0013 20.0012 39.8813 17.4012V17.4612ZM36.4813 33.4612C36.2097 34.1491 35.7998 34.7739 35.2768 35.2968C34.7539 35.8198 34.1291 36.2297 33.4413 36.5012C30.3364 37.129 27.1624 37.3442 24.0013 37.1412C20.8468 37.3445 17.6793 37.1293 14.5813 36.5012C13.8934 36.2297 13.2686 35.8198 12.7457 35.2968C12.2227 34.7739 11.8128 34.1491 11.5413 33.4612C10.7013 31.3412 10.8813 26.3413 10.8813 24.0213C10.8813 21.7013 10.7013 16.6812 11.5413 14.5813C11.8051 13.8866 12.2122 13.2552 12.7359 12.728C13.2596 12.2008 13.8883 11.7897 14.5813 11.5213C17.6793 10.8932 20.8468 10.678 24.0013 10.8813C27.1624 10.6783 30.3364 10.8935 33.4413 11.5213C34.1291 11.7928 34.7539 12.2027 35.2768 12.7257C35.7998 13.2486 36.2097 13.8734 36.4813 14.5613C37.3213 16.6813 37.1213 21.6813 37.1213 24.0013C37.1213 26.3213 37.3213 31.3412 36.4813 33.4412V33.4612Z" fill="white"/>
</svg>
