<svg width="16" height="16" viewBox="0 0 16 16" fill="none" xmlns="http://www.w3.org/2000/svg">
<g clip-path="url(#clip0_1476_4769)">
<path d="M11.2128 0.148438H4.92781C3.7725 0.149629 2.66484 0.609104 1.84791 1.42604C1.03098 2.24297 0.571504 3.35062 0.570312 4.50594L0.570313 10.7909C0.571504 11.9463 1.03098 13.0539 1.84791 13.8708C2.66484 14.6878 3.7725 15.1472 4.92781 15.1484H11.2128C12.3681 15.1472 13.4758 14.6878 14.2927 13.8708C15.1096 13.0539 15.5691 11.9463 15.5703 10.7909V4.50594C15.5691 3.35062 15.1096 2.24297 14.2927 1.42604C13.4758 0.609104 12.3681 0.149629 11.2128 0.148438V0.148438ZM14.3981 10.7909C14.3971 11.6354 14.0612 12.445 13.464 13.0422C12.8669 13.6393 12.0573 13.9752 11.2128 13.9762H4.92781C4.08334 13.9752 3.27373 13.6393 2.6766 13.0422C2.07946 12.445 1.74355 11.6354 1.74256 10.7909V4.50594C1.74336 3.66133 2.07918 2.85153 2.67633 2.25424C3.27349 1.65694 4.08321 1.32093 4.92781 1.31994H11.2128C12.0575 1.32073 12.8675 1.65665 13.4648 2.25397C14.0621 2.85129 14.398 3.6612 14.3988 4.50594L14.3981 10.7909Z" fill="#1B76FF" stroke="#1B76FF" stroke-width="0.3"/>
<path d="M8.07031 4.27344C7.4028 4.27344 6.75028 4.47138 6.19526 4.84223C5.64025 5.21308 5.20767 5.74018 4.95222 6.35688C4.69678 6.97358 4.62994 7.65218 4.76016 8.30687C4.89039 8.96155 5.21182 9.56292 5.68383 10.0349C6.15583 10.5069 6.7572 10.8284 7.41188 10.9586C8.06657 11.0888 8.74517 11.022 9.36187 10.7665C9.97857 10.5111 10.5057 10.0785 10.8765 9.52349C11.2474 8.96847 11.4453 8.31595 11.4453 7.64844C11.4453 6.75333 11.0897 5.89488 10.4568 5.26195C9.82387 4.62901 8.96542 4.27344 8.07031 4.27344ZM8.07031 10.0432C7.59638 10.0432 7.13309 9.90265 6.73903 9.63935C6.34497 9.37605 6.03783 9.0018 5.85647 8.56394C5.6751 8.12608 5.62765 7.64428 5.72011 7.17945C5.81257 6.71463 6.04079 6.28765 6.37591 5.95253C6.71103 5.61741 7.138 5.38919 7.60283 5.29673C8.06766 5.20427 8.54946 5.25172 8.98732 5.43309C9.42518 5.61446 9.79942 5.92159 10.0627 6.31565C10.326 6.70971 10.4666 7.173 10.4666 7.64694C10.4656 8.28216 10.2128 8.89108 9.76362 9.34025C9.31445 9.78942 8.70554 10.0422 8.07031 10.0432Z" fill="#1B76FF" stroke="#1B76FF" stroke-width="0.3"/>
<path d="M12.2312 3.978C12.5013 3.978 12.7202 3.75907 12.7202 3.489C12.7202 3.21893 12.5013 3 12.2312 3C11.9611 3 11.7422 3.21893 11.7422 3.489C11.7422 3.75907 11.9611 3.978 12.2312 3.978Z" fill="#1B76FF" stroke="#1B76FF" stroke-width="0.3"/>
</g>
<defs>
<clipPath id="clip0_1476_4769">
<rect width="15.3" height="15.3" fill="white" transform="translate(0.417969)"/>
</clipPath>
</defs>
</svg>
