<svg width="48" height="48" viewBox="0 0 48 48" fill="none" xmlns="http://www.w3.org/2000/svg">
<path d="M37.44 7.99896H10.74C10.3959 7.98284 10.0519 8.03475 9.72784 8.15172C9.40378 8.2687 9.10597 8.44844 8.85147 8.68065C8.59696 8.91287 8.39075 9.193 8.24464 9.50501C8.09854 9.81702 8.0154 10.1548 8 10.499V37.259C8.02016 37.9793 8.31531 38.6646 8.82485 39.1741C9.3344 39.6837 10.0197 39.9788 10.74 39.999H37.44C38.1403 39.9678 38.8005 39.6635 39.279 39.1513C39.7576 38.6391 40.0164 37.9597 40 37.259V10.499C40.0057 10.164 39.943 9.83134 39.8156 9.52147C39.6882 9.2116 39.4988 8.93102 39.2591 8.69693C39.0194 8.46285 38.7344 8.2802 38.4216 8.16017C38.1088 8.04015 37.7748 7.9853 37.44 7.99896ZM18 34.679H13.34V20.419H18V34.679ZM15.78 18.259C15.4548 18.2703 15.1308 18.2143 14.8283 18.0944C14.5258 17.9745 14.2514 17.7934 14.0223 17.5623C13.7931 17.3313 13.6142 17.0554 13.4968 16.752C13.3794 16.4485 13.326 16.124 13.34 15.799C13.3256 15.4704 13.3801 15.1424 13.4999 14.8361C13.6197 14.5298 13.8022 14.2519 14.0357 14.0203C14.2693 13.7887 14.5486 13.6084 14.8559 13.4911C15.1631 13.3737 15.4915 13.3219 15.82 13.339C16.1452 13.3276 16.4692 13.3837 16.7717 13.5036C17.0742 13.6234 17.3486 13.8046 17.5777 14.0356C17.8069 14.2666 17.9858 14.5425 18.1032 14.846C18.2206 15.1494 18.274 15.4739 18.26 15.799C18.2744 16.1276 18.2199 16.4555 18.1001 16.7618C17.9803 17.0681 17.7978 17.346 17.5643 17.5776C17.3307 17.8093 17.0514 17.9895 16.7441 18.1069C16.4369 18.2242 16.1085 18.276 15.78 18.259ZM34.68 34.679H30V26.879C30 25.019 29.34 23.739 27.68 23.739C27.1643 23.7434 26.6626 23.9073 26.2437 24.2081C25.8248 24.5088 25.5091 24.9318 25.34 25.419C25.21 25.7842 25.1555 26.172 25.18 26.559V34.679H20.58V20.419H25.18V22.419C25.589 21.6676 26.1977 21.044 26.9389 20.6169C27.6801 20.1898 28.5249 19.976 29.38 19.999C32.4 19.999 34.68 21.999 34.68 26.259V34.679Z" fill="white"/>
</svg>
