<svg width="216" height="65" viewBox="0 0 216 65" fill="none" xmlns="http://www.w3.org/2000/svg">
<g filter="url(#filter0_d_2118_3217)">
<path d="M9.46853 0.555027C7.42089 0.956749 5.73109 2.21931 4.87625 3.97924L4.35938 5.0505V28.6756V52.3008L4.87625 53.3529C5.57205 54.7494 6.46665 55.5719 8.03717 56.2989L9.32937 56.8919L16.685 56.9493C24.3785 57.0258 25.452 56.9493 26.9828 56.1841C28.2154 55.5911 29.2094 54.5772 29.8256 53.3146L30.4022 52.1095L30.4618 45.108L30.5215 38.1066L24.8159 37.9918C21.6749 37.9153 19.0706 37.877 19.0507 37.9153C19.0109 37.9535 18.9712 41.0334 18.9712 44.7446C18.9513 52.4156 18.9911 52.2051 17.4802 52.2051C15.9295 52.2051 15.9892 52.5303 15.9892 43.6542C15.9892 36.404 16.0091 35.7919 16.347 35.5049C16.6452 35.2371 17.679 35.1797 23.6032 35.0649L30.5215 34.931L30.4618 19.9908L30.4022 5.0505L29.8455 3.97924C29.1497 2.6019 27.9172 1.49238 26.4063 0.918491C25.2533 0.478508 25.1141 0.459381 17.7784 0.421124C13.6831 0.401993 9.94565 0.478508 9.46853 0.555027ZM18.7127 6.29393C18.9115 6.65739 18.9712 9.25903 18.9712 17.4657C18.9712 29.4982 19.0507 28.8669 17.5199 28.8669C15.8898 28.8669 15.9892 29.6321 15.9892 17.3317C15.9892 4.91659 15.8898 5.66265 17.5597 5.7583C18.2953 5.79655 18.5139 5.91133 18.7127 6.29393Z" fill="white"/>
</g>
<g filter="url(#filter1_d_2118_3217)">
<path d="M39.6418 0.630772C38.111 0.955975 37.0375 1.549 36.1032 2.56287C34.4929 4.3228 34.5724 3.38545 34.5128 20.0856L34.4531 34.9303L41.431 35.0259C47.733 35.1216 48.4486 35.1598 48.7866 35.4659C49.1643 35.7911 49.1842 36.1163 49.1842 43.6916C49.1842 52.5869 49.2438 52.2043 47.6534 52.2043C46.1624 52.2043 46.2022 52.3956 46.2022 44.6864V37.8571H40.3177H34.4531L34.5128 45.069C34.5724 51.9939 34.5923 52.3383 35.0098 53.1991C35.8845 54.9973 37.3755 56.1642 39.5424 56.719C40.8346 57.0633 53.7964 57.1015 55.3868 56.7763C57.991 56.2407 59.6609 54.7869 60.3965 52.3956C60.6748 51.5157 60.7146 49.8514 60.7146 40.2101V29.0575H53.8958H47.057L46.6396 28.6175L46.2022 28.1775V17.2545C46.2022 4.95407 46.1028 5.71926 47.733 5.71926C49.2637 5.71926 49.1842 5.18363 49.1842 16.298V26.188H54.9494H60.7345L60.6748 15.6093C60.6152 5.04972 60.6152 5.04972 60.1579 4.09324C59.2633 2.21853 57.5139 0.975105 55.2476 0.573383C53.5976 0.267311 41.0732 0.324696 39.6418 0.630772Z" fill="white"/>
</g>
<path d="M64.0011 0.668173C63.7228 0.955117 63.683 1.5864 63.7427 6.101C63.8222 12.452 63.6632 12.146 66.4861 11.9355C67.5199 11.8782 70.4025 11.6295 72.8875 11.3999C76.605 11.0364 77.4599 10.9025 77.7978 10.6156C78.1954 10.2713 78.2153 10.0608 78.2153 5.62275C78.2153 1.37597 78.1755 0.974247 77.8575 0.687302C77.5195 0.400357 76.7442 0.362097 70.8995 0.362097C65.0945 0.362097 64.2993 0.400357 64.0011 0.668173Z" fill="#0061B1"/>
<path d="M71.8711 12.8944C68.1337 13.2579 65.0125 13.5831 64.9529 13.6213C64.7938 13.7744 69.8831 16.0508 70.3602 16.0508C70.6187 16.0508 73.4416 15.7447 76.6423 15.3812C79.8629 14.9986 82.984 14.6543 83.5804 14.5778C84.3955 14.4821 84.5744 14.4248 84.2762 14.31C84.0575 14.2143 82.9244 13.7552 81.7713 13.2961C80.5984 12.8179 79.4454 12.397 79.1869 12.3396C78.9285 12.3014 75.6284 12.5501 71.8711 12.8944Z" fill="#0061B1"/>
<path d="M67.6297 18.0938L64.6875 18.1703V37.5678V56.9844H70.5521H76.4167V37.4721V17.9599L73.4943 17.9981C71.8642 18.0173 69.24 18.0746 67.6297 18.0938Z" fill="white"/>
<path d="M99.5665 5.43077V8.97271H101.536C102.047 8.97271 102.388 8.89561 102.56 8.74142C102.789 8.53878 102.917 8.18194 102.943 7.67091H103.188V10.7899H102.943C102.882 10.3538 102.82 10.0741 102.758 9.9507C102.679 9.79652 102.549 9.67537 102.368 9.58726C102.188 9.49915 101.91 9.4551 101.536 9.4551H99.5665V12.4089C99.5665 12.8054 99.5842 13.0477 99.6194 13.1358C99.6547 13.2195 99.7163 13.2878 99.8044 13.3407C99.8925 13.3891 100.06 13.4133 100.307 13.4133H101.827C102.333 13.4133 102.701 13.3781 102.93 13.3076C103.159 13.2371 103.379 13.0984 103.591 12.8913C103.864 12.6182 104.144 12.2063 104.43 11.6556H104.694L103.921 13.9023H97.0158V13.6578H97.333C97.5445 13.6578 97.7449 13.6072 97.9343 13.5059C98.0753 13.4354 98.17 13.3296 98.2185 13.1887C98.2714 13.0477 98.2978 12.7591 98.2978 12.323V6.50128C98.2978 5.93299 98.2405 5.58276 98.126 5.45059C97.9674 5.27438 97.7031 5.18627 97.333 5.18627H97.0158V4.94177H103.921L104.02 6.90437H103.763C103.67 6.433 103.567 6.1092 103.452 5.93299C103.342 5.75677 103.177 5.6224 102.956 5.52989C102.78 5.46381 102.47 5.43077 102.025 5.43077H99.5665ZM113.159 4.73692L113.364 7.78325H113.159C112.886 6.87133 112.496 6.21493 111.99 5.81404C111.483 5.41315 110.875 5.2127 110.166 5.2127C109.571 5.2127 109.034 5.36469 108.554 5.66866C108.073 5.96823 107.694 6.44842 107.417 7.10923C107.144 7.77003 107.007 8.59164 107.007 9.57404C107.007 10.3846 107.137 11.0873 107.397 11.682C107.657 12.2768 108.047 12.7327 108.567 13.0499C109.091 13.3671 109.688 13.5257 110.358 13.5257C110.939 13.5257 111.452 13.4023 111.897 13.1556C112.342 12.9045 112.831 12.4089 113.364 11.6688L113.569 11.801C113.12 12.5983 112.595 13.1821 111.996 13.5521C111.397 13.9222 110.686 14.1072 109.862 14.1072C108.377 14.1072 107.228 13.5565 106.413 12.4552C105.805 11.6358 105.501 10.671 105.501 9.56083C105.501 8.66653 105.701 7.84493 106.102 7.09601C106.503 6.34709 107.054 5.76778 107.754 5.35808C108.459 4.94397 109.228 4.73692 110.06 4.73692C110.708 4.73692 111.347 4.89551 111.977 5.2127C112.162 5.30962 112.294 5.35808 112.373 5.35808C112.492 5.35808 112.595 5.31623 112.684 5.23253C112.798 5.11358 112.88 4.94838 112.928 4.73692H113.159ZM118.988 4.73692C120.151 4.73692 121.157 5.17966 122.008 6.06515C122.862 6.94623 123.29 8.04757 123.29 9.36919C123.29 10.7305 122.86 11.8604 122.001 12.7591C121.142 13.6578 120.102 14.1072 118.882 14.1072C117.648 14.1072 116.611 13.6689 115.77 12.7922C114.933 11.9155 114.514 10.7811 114.514 9.38902C114.514 7.96607 114.999 6.80525 115.968 5.90655C116.809 5.1268 117.816 4.73692 118.988 4.73692ZM118.862 5.21931C118.06 5.21931 117.417 5.51668 116.933 6.1114C116.329 6.85151 116.027 7.93524 116.027 9.36258C116.027 10.8252 116.34 11.9508 116.966 12.7393C117.446 13.3385 118.08 13.638 118.869 13.638C119.71 13.638 120.404 13.3098 120.95 12.6534C121.501 11.997 121.776 10.9617 121.776 9.54761C121.776 8.01453 121.475 6.87133 120.871 6.11801C120.386 5.51888 119.717 5.21931 118.862 5.21931ZM131.576 11.4243L131.794 11.4706L131.028 13.9023H124.089V13.6578H124.426C124.805 13.6578 125.076 13.5345 125.239 13.2878C125.331 13.1468 125.378 12.8208 125.378 12.3098V6.52771C125.378 5.96823 125.316 5.618 125.193 5.47703C125.021 5.28319 124.765 5.18627 124.426 5.18627H124.089V4.94177H128.147V5.18627C127.671 5.18187 127.336 5.22592 127.142 5.31843C126.953 5.41095 126.823 5.52769 126.752 5.66866C126.682 5.80963 126.647 6.14665 126.647 6.6797V12.3098C126.647 12.6754 126.682 12.9265 126.752 13.0631C126.805 13.1556 126.887 13.2239 126.997 13.268C127.107 13.312 127.45 13.334 128.028 13.334H128.682C129.369 13.334 129.851 13.2834 130.129 13.1821C130.407 13.0807 130.66 12.9023 130.889 12.6468C131.118 12.3869 131.347 11.9794 131.576 11.4243ZM134.92 5.43077V8.97271H136.889C137.4 8.97271 137.741 8.89561 137.913 8.74142C138.142 8.53878 138.27 8.18194 138.297 7.67091H138.541V10.7899H138.297C138.235 10.3538 138.173 10.0741 138.112 9.9507C138.032 9.79652 137.902 9.67537 137.722 9.58726C137.541 9.49915 137.264 9.4551 136.889 9.4551H134.92V12.4089C134.92 12.8054 134.937 13.0477 134.973 13.1358C135.008 13.2195 135.07 13.2878 135.158 13.3407C135.246 13.3891 135.413 13.4133 135.66 13.4133H137.18C137.686 13.4133 138.054 13.3781 138.283 13.3076C138.512 13.2371 138.733 13.0984 138.944 12.8913C139.217 12.6182 139.497 12.2063 139.783 11.6556H140.048L139.275 13.9023H132.369V13.6578H132.686C132.898 13.6578 133.098 13.6072 133.288 13.5059C133.429 13.4354 133.523 13.3296 133.572 13.1887C133.625 13.0477 133.651 12.7591 133.651 12.323V6.50128C133.651 5.93299 133.594 5.58276 133.479 5.45059C133.321 5.27438 133.056 5.18627 132.686 5.18627H132.369V4.94177H139.275L139.374 6.90437H139.116C139.023 6.433 138.92 6.1092 138.805 5.93299C138.695 5.75677 138.53 5.6224 138.31 5.52989C138.134 5.46381 137.823 5.43077 137.378 5.43077H134.92ZM143.57 4.94177H146.002L151.48 11.6622V6.49467C151.48 5.944 151.418 5.60038 151.295 5.46381C151.132 5.27878 150.874 5.18627 150.522 5.18627H150.211V4.94177H153.33V5.18627H153.013C152.634 5.18627 152.365 5.30081 152.207 5.52989C152.11 5.67086 152.061 5.99246 152.061 6.49467V14.0477H151.823L145.916 6.83169V12.3494C145.916 12.9001 145.975 13.2437 146.094 13.3803C146.262 13.5653 146.519 13.6578 146.867 13.6578H147.184V13.9023H144.065V13.6578H144.376C144.759 13.6578 145.03 13.5433 145.189 13.3142C145.286 13.1733 145.334 12.8517 145.334 12.3494V6.11801C145.074 5.81404 144.876 5.61359 144.739 5.51668C144.607 5.41976 144.411 5.32945 144.151 5.24574C144.024 5.20609 143.83 5.18627 143.57 5.18627V4.94177ZM159.72 10.9023H156.251L155.643 12.3164C155.493 12.6644 155.418 12.9243 155.418 13.0962C155.418 13.2327 155.482 13.3539 155.61 13.4596C155.742 13.5609 156.024 13.627 156.456 13.6578V13.9023H153.634V13.6578C154.008 13.5918 154.251 13.5059 154.361 13.4001C154.586 13.1887 154.834 12.7591 155.108 12.1116L158.26 4.73692H158.491L161.61 12.1908C161.861 12.79 162.088 13.1799 162.291 13.3605C162.498 13.5367 162.784 13.6358 163.15 13.6578V13.9023H159.614V13.6578C159.971 13.6402 160.211 13.5807 160.335 13.4794C160.462 13.3781 160.526 13.2548 160.526 13.1094C160.526 12.9155 160.438 12.6094 160.262 12.1908L159.72 10.9023ZM159.535 10.4133L158.015 6.79204L156.456 10.4133H159.535ZM169.632 4.94177L169.731 7.04314H169.48C169.432 6.67309 169.366 6.40877 169.282 6.25017C169.145 5.99466 168.963 5.80743 168.733 5.68849C168.509 5.56513 168.211 5.50346 167.841 5.50346H166.579V12.3494C166.579 12.9001 166.639 13.2437 166.758 13.3803C166.925 13.5653 167.183 13.6578 167.531 13.6578H167.841V13.9023H164.042V13.6578H164.359C164.738 13.6578 165.006 13.5433 165.165 13.3142C165.262 13.1733 165.31 12.8517 165.31 12.3494V5.50346H164.233C163.815 5.50346 163.517 5.5343 163.341 5.59597C163.112 5.67967 162.916 5.84047 162.753 6.07836C162.59 6.31625 162.493 6.63785 162.462 7.04314H162.211L162.317 4.94177H169.632ZM174.251 13.6578V13.9023H170.412V13.6578H170.729C171.099 13.6578 171.368 13.5499 171.535 13.334C171.641 13.1931 171.694 12.8539 171.694 12.3164V6.52771C171.694 6.07396 171.665 5.77439 171.608 5.62901C171.564 5.51888 171.474 5.42416 171.337 5.34486C171.143 5.23914 170.941 5.18627 170.729 5.18627H170.412V4.94177H174.251V5.18627H173.927C173.562 5.18627 173.295 5.2942 173.128 5.51007C173.018 5.65104 172.963 5.99026 172.963 6.52771V12.3164C172.963 12.7702 172.991 13.0697 173.049 13.2151C173.093 13.3252 173.185 13.42 173.326 13.4993C173.516 13.605 173.716 13.6578 173.927 13.6578H174.251ZM179.531 4.73692C180.694 4.73692 181.701 5.17966 182.551 6.06515C183.406 6.94623 183.833 8.04757 183.833 9.36919C183.833 10.7305 183.403 11.8604 182.544 12.7591C181.685 13.6578 180.646 14.1072 179.425 14.1072C178.192 14.1072 177.154 13.6689 176.313 12.7922C175.476 11.9155 175.057 10.7811 175.057 9.38902C175.057 7.96607 175.542 6.80525 176.511 5.90655C177.353 5.1268 178.359 4.73692 179.531 4.73692ZM179.406 5.21931C178.604 5.21931 177.961 5.51668 177.476 6.1114C176.872 6.85151 176.571 7.93524 176.571 9.36258C176.571 10.8252 176.883 11.9508 177.509 12.7393C177.989 13.3385 178.624 13.638 179.412 13.638C180.254 13.638 180.947 13.3098 181.494 12.6534C182.044 11.997 182.32 10.9617 182.32 9.54761C182.32 8.01453 182.018 6.87133 181.414 6.11801C180.93 5.51888 180.26 5.21931 179.406 5.21931ZM184.183 4.94177H186.615L192.093 11.6622V6.49467C192.093 5.944 192.031 5.60038 191.908 5.46381C191.745 5.27878 191.487 5.18627 191.135 5.18627H190.824V4.94177H193.943V5.18627H193.626C193.247 5.18627 192.979 5.30081 192.82 5.52989C192.723 5.67086 192.675 5.99246 192.675 6.49467V14.0477H192.437L186.529 6.83169V12.3494C186.529 12.9001 186.588 13.2437 186.707 13.3803C186.875 13.5653 187.133 13.6578 187.481 13.6578H187.798V13.9023H184.679V13.6578H184.989C185.373 13.6578 185.644 13.5433 185.802 13.3142C185.899 13.1733 185.948 12.8517 185.948 12.3494V6.11801C185.688 5.81404 185.489 5.61359 185.353 5.51668C185.221 5.41976 185.025 5.32945 184.765 5.24574C184.637 5.20609 184.443 5.18627 184.183 5.18627V4.94177ZM200.333 10.9023H196.864L196.256 12.3164C196.106 12.6644 196.031 12.9243 196.031 13.0962C196.031 13.2327 196.095 13.3539 196.223 13.4596C196.355 13.5609 196.637 13.627 197.069 13.6578V13.9023H194.247V13.6578C194.622 13.5918 194.864 13.5059 194.974 13.4001C195.199 13.1887 195.448 12.7591 195.721 12.1116L198.873 4.73692H199.104L202.223 12.1908C202.474 12.79 202.701 13.1799 202.904 13.3605C203.111 13.5367 203.397 13.6358 203.763 13.6578V13.9023H200.228V13.6578C200.584 13.6402 200.825 13.5807 200.948 13.4794C201.076 13.3781 201.14 13.2548 201.14 13.1094C201.14 12.9155 201.051 12.6094 200.875 12.1908L200.333 10.9023ZM200.148 10.4133L198.628 6.79204L197.069 10.4133H200.148ZM211.679 11.4243L211.897 11.4706L211.131 13.9023H204.192V13.6578H204.529C204.908 13.6578 205.179 13.5345 205.342 13.2878C205.435 13.1468 205.481 12.8208 205.481 12.3098V6.52771C205.481 5.96823 205.419 5.618 205.296 5.47703C205.124 5.28319 204.869 5.18627 204.529 5.18627H204.192V4.94177H208.25V5.18627C207.774 5.18187 207.439 5.22592 207.245 5.31843C207.056 5.41095 206.926 5.52769 206.856 5.66866C206.785 5.80963 206.75 6.14665 206.75 6.6797V12.3098C206.75 12.6754 206.785 12.9265 206.856 13.0631C206.908 13.1556 206.99 13.2239 207.1 13.268C207.21 13.312 207.554 13.334 208.131 13.334H208.785C209.472 13.334 209.955 13.2834 210.232 13.1821C210.51 13.0807 210.763 12.9023 210.992 12.6468C211.221 12.3869 211.45 11.9794 211.679 11.4243ZM102.943 24.7369V27.8361H102.699C102.619 27.2414 102.476 26.7678 102.269 26.4154C102.067 26.0629 101.776 25.7832 101.397 25.5761C101.018 25.3691 100.626 25.2656 100.221 25.2656C99.7626 25.2656 99.3837 25.4065 99.0842 25.6885C98.7846 25.966 98.6348 26.2832 98.6348 26.6401C98.6348 26.9132 98.7295 27.1621 98.919 27.3868C99.1921 27.7172 99.8419 28.1577 100.868 28.7084C101.705 29.1577 102.276 29.5036 102.58 29.7459C102.888 29.9837 103.124 30.2657 103.287 30.5917C103.454 30.9177 103.538 31.2591 103.538 31.6159C103.538 32.2944 103.274 32.8803 102.745 33.3737C102.221 33.8627 101.545 34.1072 100.716 34.1072C100.456 34.1072 100.212 34.0874 99.9829 34.0477C99.8463 34.0257 99.5621 33.9464 99.1304 33.8098C98.7031 33.6689 98.4322 33.5984 98.3176 33.5984C98.2075 33.5984 98.1194 33.6314 98.0533 33.6975C97.9916 33.7636 97.9454 33.9001 97.9145 34.1072H97.67V31.0344H97.9145C98.0291 31.6776 98.1833 32.16 98.3771 32.4816C98.5709 32.7988 98.8661 33.0631 99.2626 33.2746C99.6635 33.486 100.102 33.5918 100.578 33.5918C101.128 33.5918 101.562 33.4464 101.879 33.1556C102.201 32.8649 102.362 32.5213 102.362 32.1248C102.362 31.9045 102.3 31.682 102.177 31.4573C102.058 31.2327 101.871 31.0234 101.615 30.8296C101.443 30.6974 100.974 30.4177 100.208 29.9904C99.441 29.5586 98.8947 29.215 98.5687 28.9595C98.2471 28.704 98.0026 28.422 97.8352 28.1137C97.6678 27.8053 97.5841 27.4661 97.5841 27.096C97.5841 26.4528 97.8308 25.8999 98.3242 25.4374C98.8176 24.9704 99.4454 24.7369 100.208 24.7369C100.683 24.7369 101.188 24.8537 101.721 25.0871C101.967 25.1973 102.141 25.2524 102.243 25.2524C102.357 25.2524 102.45 25.2193 102.52 25.1532C102.595 25.0827 102.655 24.944 102.699 24.7369H102.943ZM110.728 25.1863V24.9418H113.899V25.1863H113.562C113.21 25.1863 112.939 25.3339 112.75 25.629C112.657 25.7656 112.611 26.0828 112.611 26.5806V30.215C112.611 31.1137 112.521 31.812 112.34 32.3098C112.164 32.8032 111.814 33.2283 111.289 33.5852C110.769 33.9376 110.06 34.1138 109.161 34.1138C108.183 34.1138 107.441 33.9442 106.935 33.605C106.428 33.2658 106.069 32.8098 105.857 32.2371C105.716 31.845 105.646 31.1093 105.646 30.03V26.5277C105.646 25.977 105.569 25.6158 105.415 25.444C105.265 25.2722 105.02 25.1863 104.681 25.1863H104.344V24.9418H108.217V25.1863H107.873C107.503 25.1863 107.239 25.303 107.08 25.5365C106.97 25.6951 106.915 26.0255 106.915 26.5277V30.4331C106.915 30.7811 106.946 31.1798 107.007 31.6292C107.073 32.0785 107.19 32.4287 107.357 32.6798C107.525 32.931 107.765 33.138 108.078 33.301C108.395 33.464 108.783 33.5455 109.241 33.5455C109.827 33.5455 110.351 33.4178 110.814 33.1622C111.276 32.9067 111.591 32.5807 111.758 32.1842C111.93 31.7833 112.016 31.1071 112.016 30.1556V26.5277C112.016 25.9682 111.955 25.618 111.831 25.477C111.659 25.2832 111.404 25.1863 111.065 25.1863H110.728ZM116.827 29.7062V32.3164C116.827 32.8803 116.889 33.2305 117.012 33.3671C117.179 33.5609 117.433 33.6578 117.772 33.6578H118.115V33.9023H114.276V33.6578H114.613C114.992 33.6578 115.263 33.5345 115.426 33.2878C115.514 33.1512 115.558 32.8274 115.558 32.3164V26.5277C115.558 25.9638 115.499 25.6136 115.38 25.477C115.208 25.2832 114.952 25.1863 114.613 25.1863H114.276V24.9418H117.56C118.362 24.9418 118.994 25.0255 119.457 25.1929C119.919 25.3559 120.309 25.6334 120.627 26.0255C120.944 26.4176 121.102 26.8823 121.102 27.4198C121.102 28.1511 120.86 28.7458 120.375 29.204C119.895 29.6622 119.215 29.8912 118.334 29.8912C118.118 29.8912 117.884 29.8758 117.633 29.845C117.382 29.8141 117.113 29.7679 116.827 29.7062ZM116.827 29.3295C117.06 29.3736 117.267 29.4066 117.448 29.4287C117.629 29.4507 117.783 29.4617 117.911 29.4617C118.369 29.4617 118.763 29.2855 119.093 28.9331C119.428 28.5762 119.596 28.1159 119.596 27.552C119.596 27.1643 119.516 26.8053 119.358 26.4748C119.199 26.14 118.975 25.8911 118.684 25.7281C118.393 25.5607 118.063 25.477 117.693 25.477C117.468 25.477 117.179 25.5189 116.827 25.6026V29.3295ZM124.413 25.4308V28.9727H126.382C126.893 28.9727 127.235 28.8956 127.406 28.7414C127.636 28.5388 127.763 28.1819 127.79 27.6709H128.034V30.7899H127.79C127.728 30.3538 127.666 30.0741 127.605 29.9507C127.525 29.7965 127.395 29.6754 127.215 29.5873C127.034 29.4992 126.757 29.4551 126.382 29.4551H124.413V32.4089C124.413 32.8054 124.431 33.0477 124.466 33.1358C124.501 33.2195 124.563 33.2878 124.651 33.3407C124.739 33.3891 124.906 33.4133 125.153 33.4133H126.673C127.18 33.4133 127.547 33.3781 127.776 33.3076C128.006 33.2371 128.226 33.0984 128.437 32.8913C128.71 32.6182 128.99 32.2063 129.277 31.6556H129.541L128.768 33.9023H121.862V33.6578H122.179C122.391 33.6578 122.591 33.6072 122.781 33.5059C122.922 33.4354 123.016 33.3296 123.065 33.1887C123.118 33.0477 123.144 32.7591 123.144 32.323V26.5013C123.144 25.933 123.087 25.5828 122.972 25.4506C122.814 25.2744 122.549 25.1863 122.179 25.1863H121.862V24.9418H128.768L128.867 26.9044H128.609C128.517 26.433 128.413 26.1092 128.299 25.933C128.188 25.7568 128.023 25.6224 127.803 25.5299C127.627 25.4638 127.316 25.4308 126.871 25.4308H124.413ZM139.004 33.9023H136.612L133.578 29.7128C133.354 29.7216 133.171 29.726 133.03 29.726C132.973 29.726 132.911 29.726 132.845 29.726C132.779 29.7216 132.711 29.7172 132.64 29.7128V32.3164C132.64 32.8803 132.702 33.2305 132.825 33.3671C132.992 33.5609 133.244 33.6578 133.578 33.6578H133.929V33.9023H130.089V33.6578H130.426C130.805 33.6578 131.076 33.5345 131.239 33.2878C131.332 33.1512 131.378 32.8274 131.378 32.3164V26.5277C131.378 25.9638 131.316 25.6136 131.193 25.477C131.021 25.2832 130.766 25.1863 130.426 25.1863H130.089V24.9418H133.354C134.305 24.9418 135.006 25.0123 135.455 25.1532C135.909 25.2898 136.292 25.5453 136.605 25.9198C136.922 26.2898 137.081 26.7326 137.081 27.248C137.081 27.7987 136.9 28.2767 136.539 28.682C136.182 29.0872 135.627 29.3736 134.874 29.541L136.724 32.1116C137.147 32.7019 137.51 33.094 137.814 33.2878C138.118 33.4816 138.515 33.605 139.004 33.6578V33.9023ZM132.64 29.2965C132.724 29.2965 132.796 29.2987 132.858 29.3031C132.92 29.3031 132.97 29.3031 133.01 29.3031C133.865 29.3031 134.508 29.1181 134.94 28.748C135.376 28.378 135.594 27.9066 135.594 27.3339C135.594 26.7744 135.418 26.3207 135.065 25.9726C134.717 25.6202 134.255 25.444 133.678 25.444C133.422 25.444 133.076 25.4858 132.64 25.5695V29.2965ZM143.061 33.6578V33.9023H139.222V33.6578H139.539C139.909 33.6578 140.178 33.5499 140.345 33.334C140.451 33.1931 140.504 32.8539 140.504 32.3164V26.5277C140.504 26.074 140.475 25.7744 140.418 25.629C140.374 25.5189 140.283 25.4242 140.147 25.3449C139.953 25.2391 139.75 25.1863 139.539 25.1863H139.222V24.9418H143.061V25.1863H142.737C142.372 25.1863 142.105 25.2942 141.938 25.5101C141.827 25.651 141.772 25.9903 141.772 26.5277V32.3164C141.772 32.7702 141.801 33.0697 141.858 33.2151C141.902 33.3252 141.995 33.42 142.136 33.4993C142.325 33.605 142.526 33.6578 142.737 33.6578H143.061ZM146.22 25.4308V28.9727H148.189C148.7 28.9727 149.041 28.8956 149.213 28.7414C149.442 28.5388 149.57 28.1819 149.596 27.6709H149.841V30.7899H149.596C149.535 30.3538 149.473 30.0741 149.411 29.9507C149.332 29.7965 149.202 29.6754 149.022 29.5873C148.841 29.4992 148.563 29.4551 148.189 29.4551H146.22V32.4089C146.22 32.8054 146.237 33.0477 146.273 33.1358C146.308 33.2195 146.369 33.2878 146.458 33.3407C146.546 33.3891 146.713 33.4133 146.96 33.4133H148.48C148.986 33.4133 149.354 33.3781 149.583 33.3076C149.812 33.2371 150.033 33.0984 150.244 32.8913C150.517 32.6182 150.797 32.2063 151.083 31.6556H151.348L150.574 33.9023H143.669V33.6578H143.986C144.198 33.6578 144.398 33.6072 144.587 33.5059C144.728 33.4354 144.823 33.3296 144.872 33.1887C144.924 33.0477 144.951 32.7591 144.951 32.323V26.5013C144.951 25.933 144.894 25.5828 144.779 25.4506C144.621 25.2744 144.356 25.1863 143.986 25.1863H143.669V24.9418H150.574L150.674 26.9044H150.416C150.323 26.433 150.22 26.1092 150.105 25.933C149.995 25.7568 149.83 25.6224 149.61 25.5299C149.433 25.4638 149.123 25.4308 148.678 25.4308H146.22ZM158.121 25.1863V24.9418H161.293V25.1863H160.956C160.603 25.1863 160.332 25.3339 160.143 25.629C160.05 25.7656 160.004 26.0828 160.004 26.5806V30.215C160.004 31.1137 159.914 31.812 159.733 32.3098C159.557 32.8032 159.207 33.2283 158.683 33.5852C158.163 33.9376 157.453 34.1138 156.555 34.1138C155.577 34.1138 154.834 33.9442 154.328 33.605C153.821 33.2658 153.462 32.8098 153.251 32.2371C153.11 31.845 153.039 31.1093 153.039 30.03V26.5277C153.039 25.977 152.962 25.6158 152.808 25.444C152.658 25.2722 152.414 25.1863 152.074 25.1863H151.737V24.9418H155.61V25.1863H155.266C154.896 25.1863 154.632 25.303 154.473 25.5365C154.363 25.6951 154.308 26.0255 154.308 26.5277V30.4331C154.308 30.7811 154.339 31.1798 154.4 31.6292C154.467 32.0785 154.583 32.4287 154.751 32.6798C154.918 32.931 155.158 33.138 155.471 33.301C155.788 33.464 156.176 33.5455 156.634 33.5455C157.22 33.5455 157.744 33.4178 158.207 33.1622C158.669 32.9067 158.984 32.5807 159.152 32.1842C159.324 31.7833 159.409 31.1071 159.409 30.1556V26.5277C159.409 25.9682 159.348 25.618 159.224 25.477C159.053 25.2832 158.797 25.1863 158.458 25.1863H158.121ZM170.59 33.9023H168.198L165.165 29.7128C164.94 29.7216 164.758 29.726 164.617 29.726C164.559 29.726 164.498 29.726 164.432 29.726C164.365 29.7216 164.297 29.7172 164.227 29.7128V32.3164C164.227 32.8803 164.288 33.2305 164.412 33.3671C164.579 33.5609 164.83 33.6578 165.165 33.6578H165.515V33.9023H161.676V33.6578H162.013C162.392 33.6578 162.663 33.5345 162.826 33.2878C162.918 33.1512 162.965 32.8274 162.965 32.3164V26.5277C162.965 25.9638 162.903 25.6136 162.78 25.477C162.608 25.2832 162.352 25.1863 162.013 25.1863H161.676V24.9418H164.94C165.892 24.9418 166.592 25.0123 167.042 25.1532C167.496 25.2898 167.879 25.5453 168.192 25.9198C168.509 26.2898 168.667 26.7326 168.667 27.248C168.667 27.7987 168.487 28.2767 168.125 28.682C167.769 29.0872 167.214 29.3736 166.46 29.541L168.311 32.1116C168.733 32.7019 169.097 33.094 169.401 33.2878C169.705 33.4816 170.101 33.605 170.59 33.6578V33.9023ZM164.227 29.2965C164.31 29.2965 164.383 29.2987 164.445 29.3031C164.506 29.3031 164.557 29.3031 164.597 29.3031C165.451 29.3031 166.095 29.1181 166.526 28.748C166.962 28.378 167.181 27.9066 167.181 27.3339C167.181 26.7744 167.004 26.3207 166.652 25.9726C166.304 25.6202 165.841 25.444 165.264 25.444C165.009 25.444 164.663 25.4858 164.227 25.5695V29.2965ZM96.9696 52.9023V52.6578H97.3066C97.6854 52.6578 97.9542 52.5367 98.1128 52.2944C98.2097 52.149 98.2581 51.823 98.2581 51.3164V45.5277C98.2581 44.9682 98.1965 44.618 98.0731 44.477C97.9013 44.2832 97.6458 44.1863 97.3066 44.1863H96.9696V43.9418H100.617C101.956 43.9418 102.974 44.0938 103.67 44.3977C104.371 44.7017 104.932 45.2083 105.355 45.9176C105.783 46.6269 105.996 47.4463 105.996 48.3758C105.996 49.6225 105.617 50.6644 104.86 51.5014C104.009 52.4354 102.714 52.9023 100.974 52.9023H96.9696ZM99.5269 52.2548C100.086 52.3781 100.556 52.4398 100.934 52.4398C101.956 52.4398 102.805 52.0807 103.479 51.3627C104.153 50.6446 104.49 49.671 104.49 48.4419C104.49 47.204 104.153 46.2282 103.479 45.5145C102.805 44.8008 101.939 44.444 100.882 44.444C100.485 44.444 100.034 44.5079 99.5269 44.6356V52.2548ZM108.091 47.1599V46.8493C108.545 46.5806 108.853 46.3295 109.016 46.096C109.131 45.9286 109.188 45.7282 109.188 45.4947C109.188 45.3581 109.164 45.2568 109.115 45.1907C109.062 45.1246 109.005 45.0916 108.943 45.0916C108.895 45.0916 108.831 45.107 108.752 45.1378C108.637 45.1775 108.543 45.1973 108.468 45.1973C108.291 45.1973 108.135 45.1312 107.998 44.9991C107.862 44.8669 107.794 44.7017 107.794 44.5035C107.794 44.2832 107.862 44.1114 107.998 43.988C108.183 43.8206 108.404 43.7369 108.659 43.7369C108.954 43.7369 109.219 43.8625 109.452 44.1136C109.69 44.3603 109.809 44.6687 109.809 45.0387C109.809 45.5586 109.613 46.0321 109.221 46.4595C108.961 46.7414 108.584 46.9749 108.091 47.1599ZM115.201 52.6578V52.9023H111.362V52.6578H111.679C112.049 52.6578 112.318 52.5499 112.485 52.334C112.591 52.1931 112.644 51.8539 112.644 51.3164V45.5277C112.644 45.074 112.615 44.7744 112.558 44.629C112.514 44.5189 112.424 44.4242 112.287 44.3449C112.093 44.2391 111.891 44.1863 111.679 44.1863H111.362V43.9418H115.201V44.1863H114.877C114.512 44.1863 114.245 44.2942 114.078 44.5101C113.968 44.651 113.913 44.9903 113.913 45.5277V51.3164C113.913 51.7702 113.941 52.0697 113.999 52.2151C114.043 52.3252 114.135 52.42 114.276 52.4993C114.466 52.605 114.666 52.6578 114.877 52.6578H115.201ZM115.353 43.9418H117.785L123.263 50.6622V45.4947C123.263 44.944 123.201 44.6004 123.078 44.4638C122.915 44.2788 122.657 44.1863 122.305 44.1863H121.994V43.9418H125.113V44.1863H124.796C124.417 44.1863 124.149 44.3008 123.99 44.5299C123.893 44.6709 123.845 44.9925 123.845 45.4947V53.0477H123.607L117.699 45.8317V51.3494C117.699 51.9001 117.759 52.2437 117.878 52.3803C118.045 52.5653 118.303 52.6578 118.651 52.6578H118.968V52.9023H115.849V52.6578H116.159C116.543 52.6578 116.814 52.5433 116.972 52.3142C117.069 52.1733 117.118 51.8517 117.118 51.3494V45.118C116.858 44.814 116.659 44.6136 116.523 44.5167C116.391 44.4198 116.195 44.3294 115.935 44.2457C115.807 44.2061 115.613 44.1863 115.353 44.1863V43.9418ZM128.08 44.4308V47.9529H129.713C130.087 47.9529 130.36 47.8714 130.532 47.7084C130.708 47.541 130.825 47.2128 130.882 46.7238H131.127V49.7569H130.882C130.878 49.4089 130.832 49.1534 130.744 48.9904C130.66 48.8274 130.541 48.7062 130.387 48.6269C130.237 48.5432 130.012 48.5014 129.713 48.5014H128.08V51.3164C128.08 51.7702 128.109 52.0697 128.166 52.2151C128.21 52.3252 128.303 52.42 128.444 52.4993C128.638 52.605 128.84 52.6578 129.052 52.6578H129.376V52.9023H125.53V52.6578H125.847C126.217 52.6578 126.486 52.5499 126.653 52.334C126.759 52.1931 126.812 51.8539 126.812 51.3164V45.5277C126.812 45.074 126.783 44.7744 126.726 44.629C126.682 44.5189 126.591 44.4242 126.455 44.3449C126.265 44.2391 126.063 44.1863 125.847 44.1863H125.53V43.9418H132.197L132.283 45.911H132.052C131.937 45.4925 131.803 45.1863 131.649 44.9925C131.499 44.7942 131.312 44.651 131.087 44.5629C130.867 44.4748 130.523 44.4308 130.056 44.4308H128.08ZM137.794 43.7369C138.957 43.7369 139.964 44.1797 140.814 45.0651C141.669 45.9462 142.096 47.0476 142.096 48.3692C142.096 49.7305 141.667 50.8604 140.808 51.7591C139.949 52.6578 138.909 53.1072 137.689 53.1072C136.455 53.1072 135.418 52.6689 134.576 51.7922C133.739 50.9155 133.321 49.7811 133.321 48.389C133.321 46.9661 133.805 45.8053 134.774 44.9066C135.616 44.1268 136.623 43.7369 137.794 43.7369ZM137.669 44.2193C136.867 44.2193 136.224 44.5167 135.739 45.1114C135.136 45.8515 134.834 46.9352 134.834 48.3626C134.834 49.8252 135.147 50.9508 135.772 51.7393C136.252 52.3385 136.887 52.638 137.675 52.638C138.517 52.638 139.211 52.3098 139.757 51.6534C140.308 50.997 140.583 49.9617 140.583 48.5476C140.583 47.0145 140.281 45.8713 139.678 45.118C139.193 44.5189 138.523 44.2193 137.669 44.2193ZM151.77 52.9023H149.378L146.345 48.7128C146.121 48.7216 145.938 48.726 145.797 48.726C145.739 48.726 145.678 48.726 145.612 48.726C145.546 48.7216 145.477 48.7172 145.407 48.7128V51.3164C145.407 51.8803 145.469 52.2305 145.592 52.3671C145.759 52.5609 146.01 52.6578 146.345 52.6578H146.695V52.9023H142.856V52.6578H143.193C143.572 52.6578 143.843 52.5345 144.006 52.2878C144.098 52.1512 144.145 51.8274 144.145 51.3164V45.5277C144.145 44.9638 144.083 44.6136 143.96 44.477C143.788 44.2832 143.532 44.1863 143.193 44.1863H142.856V43.9418H146.121C147.072 43.9418 147.773 44.0123 148.222 44.1532C148.676 44.2898 149.059 44.5453 149.372 44.9198C149.689 45.2898 149.848 45.7326 149.848 46.248C149.848 46.7987 149.667 47.2767 149.306 47.682C148.949 48.0872 148.394 48.3736 147.64 48.541L149.491 51.1116C149.914 51.7019 150.277 52.094 150.581 52.2878C150.885 52.4816 151.281 52.605 151.77 52.6578V52.9023ZM145.407 48.2965C145.491 48.2965 145.563 48.2987 145.625 48.3031C145.687 48.3031 145.737 48.3031 145.777 48.3031C146.632 48.3031 147.275 48.1181 147.706 47.748C148.143 47.378 148.361 46.9066 148.361 46.3339C148.361 45.7744 148.184 45.3207 147.832 44.9726C147.484 44.6202 147.021 44.444 146.444 44.444C146.189 44.444 145.843 44.4858 145.407 44.5695V48.2965ZM157.189 52.9023L153.726 45.3625V51.3494C153.726 51.9001 153.786 52.2437 153.905 52.3803C154.068 52.5653 154.326 52.6578 154.678 52.6578H154.995V52.9023H151.876V52.6578H152.193C152.572 52.6578 152.841 52.5433 153 52.3142C153.096 52.1733 153.145 51.8517 153.145 51.3494V45.4947C153.145 45.0982 153.101 44.8118 153.013 44.6356C152.951 44.5079 152.837 44.4021 152.669 44.3184C152.506 44.2303 152.242 44.1863 151.876 44.1863V43.9418H154.414L157.665 50.953L160.863 43.9418H163.401V44.1863H163.09C162.707 44.1863 162.436 44.3008 162.277 44.5299C162.18 44.6709 162.132 44.9925 162.132 45.4947V51.3494C162.132 51.9001 162.194 52.2437 162.317 52.3803C162.48 52.5653 162.738 52.6578 163.09 52.6578H163.401V52.9023H159.594V52.6578H159.912C160.295 52.6578 160.564 52.5433 160.718 52.3142C160.815 52.1733 160.863 51.8517 160.863 51.3494V45.3625L157.407 52.9023H157.189ZM169.883 49.9023H166.414L165.806 51.3164C165.656 51.6644 165.581 51.9243 165.581 52.0962C165.581 52.2327 165.645 52.3539 165.773 52.4596C165.905 52.5609 166.187 52.627 166.619 52.6578V52.9023H163.797V52.6578C164.172 52.5918 164.414 52.5059 164.524 52.4001C164.749 52.1887 164.998 51.7591 165.271 51.1116L168.423 43.7369H168.654L171.773 51.1908C172.024 51.79 172.251 52.1799 172.454 52.3605C172.661 52.5367 172.947 52.6358 173.313 52.6578V52.9023H169.778V52.6578C170.134 52.6402 170.374 52.5807 170.498 52.4794C170.626 52.3781 170.689 52.2548 170.689 52.1094C170.689 51.9155 170.601 51.6094 170.425 51.1908L169.883 49.9023ZM169.698 49.4133L168.178 45.792L166.619 49.4133H169.698ZM179.795 43.9418L179.895 46.0431H179.643C179.595 45.6731 179.529 45.4088 179.445 45.2502C179.309 44.9947 179.126 44.8074 178.897 44.6885C178.672 44.5651 178.375 44.5035 178.005 44.5035H176.742V51.3494C176.742 51.9001 176.802 52.2437 176.921 52.3803C177.088 52.5653 177.346 52.6578 177.694 52.6578H178.005V52.9023H174.205V52.6578H174.522C174.901 52.6578 175.17 52.5433 175.328 52.3142C175.425 52.1733 175.474 51.8517 175.474 51.3494V44.5035H174.397C173.978 44.5035 173.681 44.5343 173.504 44.596C173.275 44.6797 173.079 44.8405 172.916 45.0784C172.753 45.3163 172.656 45.6378 172.626 46.0431H172.375L172.48 43.9418H179.795ZM184.414 52.6578V52.9023H180.575V52.6578H180.892C181.262 52.6578 181.531 52.5499 181.699 52.334C181.804 52.1931 181.857 51.8539 181.857 51.3164V45.5277C181.857 45.074 181.828 44.7744 181.771 44.629C181.727 44.5189 181.637 44.4242 181.5 44.3449C181.306 44.2391 181.104 44.1863 180.892 44.1863H180.575V43.9418H184.414V44.1863H184.091C183.725 44.1863 183.458 44.2942 183.291 44.5101C183.181 44.651 183.126 44.9903 183.126 45.5277V51.3164C183.126 51.7702 183.155 52.0697 183.212 52.2151C183.256 52.3252 183.348 52.42 183.489 52.4993C183.679 52.605 183.879 52.6578 184.091 52.6578H184.414ZM190.705 53.0015C191.155 53.7768 191.639 54.3473 192.159 54.713C192.683 55.0786 193.278 55.2879 193.943 55.3407V55.5522C193.335 55.5302 192.686 55.4068 191.994 55.1821C191.302 54.9619 190.646 54.6535 190.025 54.257C189.408 53.8649 188.875 53.4464 188.426 53.0015C187.791 52.746 187.289 52.475 186.919 52.1887C186.381 51.7613 185.963 51.2371 185.663 50.6159C185.368 49.9904 185.221 49.2525 185.221 48.4022C185.221 47.063 185.655 45.9506 186.522 45.0651C187.39 44.1797 188.441 43.7369 189.674 43.7369C190.846 43.7369 191.86 44.1819 192.714 45.0718C193.573 45.9572 194.003 47.0762 194.003 48.4287C194.003 49.5256 193.697 50.4882 193.084 51.3164C192.476 52.1446 191.683 52.7063 190.705 53.0015ZM189.595 44.2457C188.793 44.2457 188.148 44.5321 187.659 45.1048C187.042 45.8229 186.734 46.922 186.734 48.4022C186.734 49.8516 187.047 50.9684 187.672 51.7525C188.157 52.3561 188.798 52.6578 189.595 52.6578C190.423 52.6578 191.091 52.3561 191.597 51.7525C192.192 51.0389 192.49 49.986 192.49 48.5939C192.49 47.5234 192.327 46.6225 192.001 45.8912C191.749 45.3273 191.415 44.9132 190.996 44.6488C190.582 44.3801 190.115 44.2457 189.595 44.2457ZM200.981 44.1863V43.9418H204.153V44.1863H203.816C203.463 44.1863 203.192 44.3339 203.003 44.629C202.911 44.7656 202.864 45.0828 202.864 45.5806V49.215C202.864 50.1137 202.774 50.812 202.593 51.3098C202.417 51.8032 202.067 52.2283 201.543 52.5852C201.023 52.9376 200.314 53.1138 199.415 53.1138C198.437 53.1138 197.695 52.9442 197.188 52.605C196.681 52.2658 196.322 51.8098 196.111 51.2371C195.97 50.845 195.899 50.1093 195.899 49.03V45.5277C195.899 44.977 195.822 44.6158 195.668 44.444C195.518 44.2722 195.274 44.1863 194.935 44.1863H194.598V43.9418H198.47V44.1863H198.126C197.756 44.1863 197.492 44.303 197.333 44.5365C197.223 44.6951 197.168 45.0255 197.168 45.5277V49.4331C197.168 49.7811 197.199 50.1798 197.261 50.6292C197.327 51.0785 197.443 51.4287 197.611 51.6798C197.778 51.931 198.018 52.138 198.331 52.301C198.648 52.464 199.036 52.5455 199.494 52.5455C200.08 52.5455 200.604 52.4178 201.067 52.1622C201.529 51.9067 201.844 51.5807 202.012 51.1842C202.184 50.7833 202.27 50.1071 202.27 49.1556V45.5277C202.27 44.9682 202.208 44.618 202.084 44.477C201.913 44.2832 201.657 44.1863 201.318 44.1863H200.981ZM207.133 44.4308V47.9727H209.102C209.613 47.9727 209.955 47.8956 210.127 47.7414C210.356 47.5388 210.483 47.1819 210.51 46.6709H210.754V49.7899H210.51C210.448 49.3538 210.386 49.0741 210.325 48.9507C210.245 48.7965 210.116 48.6754 209.935 48.5873C209.754 48.4992 209.477 48.4551 209.102 48.4551H207.133V51.4089C207.133 51.8054 207.151 52.0477 207.186 52.1358C207.221 52.2195 207.283 52.2878 207.371 52.3407C207.459 52.3891 207.626 52.4133 207.873 52.4133H209.393C209.9 52.4133 210.268 52.3781 210.497 52.3076C210.726 52.2371 210.946 52.0984 211.157 51.8913C211.431 51.6182 211.71 51.2063 211.997 50.6556H212.261L211.488 52.9023H204.582V52.6578H204.9C205.111 52.6578 205.311 52.6072 205.501 52.5059C205.642 52.4354 205.737 52.3296 205.785 52.1887C205.838 52.0477 205.864 51.7591 205.864 51.323V45.5013C205.864 44.933 205.807 44.5828 205.693 44.4506C205.534 44.2744 205.27 44.1863 204.9 44.1863H204.582V43.9418H211.488L211.587 45.9044H211.329C211.237 45.433 211.133 45.1092 211.019 44.933C210.908 44.7568 210.743 44.6224 210.523 44.5299C210.347 44.4638 210.036 44.4308 209.591 44.4308H207.133Z" fill="white"/>
<defs>
<filter id="filter0_d_2118_3217" x="0.368459" y="0.417969" width="34.142" height="64.5365" filterUnits="userSpaceOnUse" color-interpolation-filters="sRGB">
<feFlood flood-opacity="0" result="BackgroundImageFix"/>
<feColorMatrix in="SourceAlpha" type="matrix" values="0 0 0 0 0 0 0 0 0 0 0 0 0 0 0 0 0 0 127 0" result="hardAlpha"/>
<feOffset dy="3.99092"/>
<feGaussianBlur stdDeviation="1.99546"/>
<feComposite in2="hardAlpha" operator="out"/>
<feColorMatrix type="matrix" values="0 0 0 0 0.00392157 0 0 0 0 0.0784314 0 0 0 0 0.156863 0 0 0 0.15 0"/>
<feBlend mode="normal" in2="BackgroundImageFix" result="effect1_dropShadow_2118_3217"/>
<feBlend mode="normal" in="SourceGraphic" in2="effect1_dropShadow_2118_3217" result="shape"/>
</filter>
<filter id="filter1_d_2118_3217" x="30.4622" y="0.371094" width="34.2631" height="64.6107" filterUnits="userSpaceOnUse" color-interpolation-filters="sRGB">
<feFlood flood-opacity="0" result="BackgroundImageFix"/>
<feColorMatrix in="SourceAlpha" type="matrix" values="0 0 0 0 0 0 0 0 0 0 0 0 0 0 0 0 0 0 127 0" result="hardAlpha"/>
<feOffset dy="3.99092"/>
<feGaussianBlur stdDeviation="1.99546"/>
<feComposite in2="hardAlpha" operator="out"/>
<feColorMatrix type="matrix" values="0 0 0 0 0.00392157 0 0 0 0 0.0784314 0 0 0 0 0.156863 0 0 0 0.15 0"/>
<feBlend mode="normal" in2="BackgroundImageFix" result="effect1_dropShadow_2118_3217"/>
<feBlend mode="normal" in="SourceGraphic" in2="effect1_dropShadow_2118_3217" result="shape"/>
</filter>
</defs>
</svg>
