<svg width="36" height="38" viewBox="0 0 36 38" fill="none" xmlns="http://www.w3.org/2000/svg">
<path d="M18.75 21.057C18.45 20.2654 18.45 19.632 18.6 18.9987H4.5V7.1237L13.5 13.457L22.5 7.1237V9.81536C23.4 9.34036 24.15 9.34036 24.6 9.34036C24.75 9.18203 25.05 9.0237 25.35 8.86536V4.11536C25.5 2.69036 24.45 1.58203 23.1 1.58203H3.9C2.55 1.58203 1.5 2.69036 1.5 4.11536V19.632C1.5 21.057 2.55 22.1654 3.9 22.1654H19.35C19.05 21.8487 18.9 21.532 18.75 21.057ZM22.5 4.7487L13.5 11.082L4.5 4.7487H22.5ZM33.9 15.6737C33.6 14.7237 32.85 14.5654 32.4 14.0904C32.1 13.6154 32.1 12.6654 31.35 12.1904C30.6 11.557 29.85 11.8737 29.25 11.7154C28.65 11.557 28.2 10.7654 27.3 10.7654C26.4 10.7654 25.95 11.3987 25.35 11.7154C24.75 11.8737 24 11.557 23.25 12.1904C22.5 12.6654 22.65 13.457 22.2 14.0904C21.75 14.5654 21 14.882 20.7 15.6737C20.4 16.6237 21 17.257 21 17.8904C21 18.5237 20.4 19.157 20.7 20.107C21 21.057 21.75 21.2154 22.2 21.6904C22.5 22.1654 22.5 23.1154 23.25 23.5904C24 24.2237 24.75 23.907 25.35 24.0654C25.95 24.2237 26.4 25.0154 27.3 25.0154C28.2 25.0154 28.65 24.382 29.25 24.0654C29.85 23.907 30.6 24.2237 31.35 23.5904C32.1 22.957 32.1 22.1654 32.4 21.6904C32.85 21.2154 33.6 20.8987 33.9 20.107C34.2 19.157 33.6 18.5237 33.6 17.8904C33.6 17.257 34.2 16.6237 33.9 15.6737ZM27.3 22.7987C24.75 22.7987 22.8 20.582 22.8 18.0487C22.8 15.5154 24.9 13.2987 27.3 13.2987C29.7 13.2987 31.8 15.5154 31.8 18.0487C31.8 20.582 29.85 22.7987 27.3 22.7987ZM29.55 17.8904C29.55 19.157 28.5 20.2654 27.3 20.2654C26.1 20.2654 25.05 19.157 25.05 17.8904C25.05 16.6237 26.1 15.5154 27.3 15.5154C28.5 15.5154 29.55 16.6237 29.55 17.8904ZM29.25 27.0737L28.5 31.3487L27.6 36.257L24.6 33.2487L21 34.9904L22.5 25.9654C23.1 26.282 23.85 26.4404 24.6 26.4404C25.05 26.757 25.65 27.0737 26.1 27.232C26.4 27.3904 26.85 27.3904 27.3 27.3904C28.05 27.5487 28.65 27.3904 29.25 27.0737ZM34.05 30.8737L31.05 29.7654L31.65 26.282L32.55 25.807L32.7 25.6487L34.05 30.8737Z" fill="white"/>
</svg>
