<svg width="48" height="48" viewBox="0 0 48 48" fill="none" xmlns="http://www.w3.org/2000/svg">
<path d="M36.8002 41.4995H36.3402C31.1577 40.9357 26.1787 39.1687 21.8002 36.3395C17.7325 33.7488 14.2789 30.302 11.6802 26.2395C8.8445 21.8495 7.07723 16.856 6.52019 11.6595C6.4565 11.0397 6.51938 10.4134 6.70503 9.81867C6.89068 9.2239 7.19523 8.67305 7.60019 8.19953C7.99407 7.71967 8.48023 7.32373 9.0299 7.03516C9.57956 6.74658 10.1815 6.57125 10.8002 6.51953H16.0002C17.1264 6.52067 18.2151 6.92447 19.0697 7.65801C19.9243 8.39155 20.4884 9.40649 20.6602 10.5195C20.8501 11.9493 21.2058 13.3521 21.7202 14.6995C22.0331 15.5463 22.0976 16.4648 21.9063 17.347C21.715 18.2292 21.2757 19.0385 20.6402 19.6795L19.4202 20.8995C21.341 23.9319 23.9176 26.4949 26.9602 28.3995L28.1802 27.1995C28.8213 26.564 29.6305 26.1247 30.5127 25.9334C31.3949 25.7421 32.3134 25.8067 33.1602 26.1195C34.5091 26.6292 35.9114 26.9848 37.3402 27.1795C38.4722 27.3497 39.5033 27.9272 40.2397 28.8036C40.9762 29.68 41.3675 30.7951 41.3402 31.9395V36.7395C41.3402 37.9879 40.8457 39.1854 39.9648 40.07C39.084 40.9546 37.8885 41.4542 36.6402 41.4595L36.8002 41.4995ZM16.0002 9.49953H11.2202C10.9855 9.51505 10.7564 9.57799 10.5467 9.68456C10.337 9.79112 10.1511 9.93909 10.0002 10.1195C9.85334 10.2886 9.74219 10.4855 9.67345 10.6986C9.60471 10.9117 9.57979 11.1365 9.60019 11.3595C10.0852 16.0731 11.6674 20.6075 14.2202 24.5995C16.5735 28.2929 19.7068 31.4263 23.4002 33.7795C27.3947 36.3592 31.9341 37.975 36.6602 38.4995C36.906 38.5134 37.152 38.4761 37.3826 38.39C37.6133 38.304 37.8236 38.171 38.0002 37.9995C38.3186 37.673 38.4979 37.2356 38.5002 36.7795V31.9995C38.5092 31.5786 38.3635 31.169 38.0907 30.8484C37.818 30.5277 37.4371 30.3182 37.0202 30.2595C35.3679 30.0374 33.7449 29.635 32.1802 29.0595C31.8719 28.9443 31.5373 28.9188 31.2152 28.9861C30.893 29.0533 30.5966 29.2106 30.3602 29.4395L28.3602 31.4395C28.1259 31.6679 27.8243 31.8146 27.5 31.8579C27.1757 31.9011 26.8461 31.8386 26.5602 31.6795C22.2925 29.268 18.7601 25.7424 16.3402 21.4795C16.1745 21.1955 16.1082 20.8643 16.1517 20.5384C16.1951 20.2125 16.3459 19.9103 16.5802 19.6795L18.5802 17.6795C18.8095 17.4476 18.9673 17.1545 19.0347 16.8354C19.1021 16.5162 19.0762 16.1844 18.9602 15.8795C18.3826 14.3155 17.9801 12.6923 17.7602 11.0395C17.7106 10.6101 17.5028 10.2144 17.1775 9.92976C16.8521 9.64507 16.4324 9.4917 16.0002 9.49953Z" fill="white"/>
</svg>
