<svg width="259" height="230" viewBox="0 0 259 230" fill="none" xmlns="http://www.w3.org/2000/svg">
<ellipse cx="9.65729" cy="1.09466" rx="1.37604" ry="1.09466" fill="#0061B1"/>
<ellipse cx="50.9385" cy="1.09466" rx="1.37604" ry="1.09466" fill="#0061B1"/>
<ellipse cx="92.2198" cy="1.09466" rx="1.37604" ry="1.09466" fill="#0061B1"/>
<ellipse cx="133.501" cy="1.09466" rx="1.37604" ry="1.09466" fill="#0061B1"/>
<ellipse cx="174.782" cy="1.09466" rx="1.37604" ry="1.09466" fill="#0061B1"/>
<ellipse cx="216.064" cy="1.09466" rx="1.37604" ry="1.09466" fill="#0061B1"/>
<ellipse cx="257.345" cy="1.09466" rx="1.37604" ry="1.09466" fill="#0061B1"/>
<ellipse cx="9.65729" cy="33.5165" rx="1.37604" ry="1.09466" fill="#0061B1"/>
<ellipse cx="50.9385" cy="33.5165" rx="1.37604" ry="1.09466" fill="#0061B1"/>
<ellipse cx="92.2198" cy="33.5165" rx="1.37604" ry="1.09466" fill="#0061B1"/>
<ellipse cx="133.501" cy="33.5165" rx="1.37604" ry="1.09466" fill="#0061B1"/>
<ellipse cx="174.782" cy="33.5165" rx="1.37604" ry="1.09466" fill="#0061B1"/>
<ellipse cx="216.064" cy="33.5165" rx="1.37604" ry="1.09466" fill="#0061B1"/>
<ellipse cx="257.345" cy="33.5165" rx="1.37604" ry="1.09466" fill="#0061B1"/>
<ellipse cx="9.65729" cy="65.9423" rx="1.37604" ry="1.09466" fill="#0061B1"/>
<ellipse cx="50.9385" cy="65.9423" rx="1.37604" ry="1.09466" fill="#0061B1"/>
<ellipse cx="92.2198" cy="65.9423" rx="1.37604" ry="1.09466" fill="#0061B1"/>
<ellipse cx="133.501" cy="65.9423" rx="1.37604" ry="1.09466" fill="#0061B1"/>
<ellipse cx="174.782" cy="65.9423" rx="1.37604" ry="1.09466" fill="#0061B1"/>
<ellipse cx="216.064" cy="65.9423" rx="1.37604" ry="1.09466" fill="#0061B1"/>
<ellipse cx="257.345" cy="65.9423" rx="1.37604" ry="1.09466" fill="#0061B1"/>
<ellipse cx="9.65729" cy="98.3642" rx="1.37604" ry="1.09466" fill="#0061B1"/>
<ellipse cx="50.9385" cy="98.3642" rx="1.37604" ry="1.09466" fill="#0061B1"/>
<ellipse cx="92.2198" cy="98.3642" rx="1.37604" ry="1.09466" fill="#0061B1"/>
<ellipse cx="133.501" cy="98.3642" rx="1.37604" ry="1.09466" fill="#0061B1"/>
<ellipse cx="174.782" cy="98.3642" rx="1.37604" ry="1.09466" fill="#0061B1"/>
<ellipse cx="216.064" cy="98.3642" rx="1.37604" ry="1.09466" fill="#0061B1"/>
<ellipse cx="257.345" cy="98.3642" rx="1.37604" ry="1.09466" fill="#0061B1"/>
<ellipse cx="9.65729" cy="130.79" rx="1.37604" ry="1.09466" fill="#0061B1"/>
<ellipse cx="50.9385" cy="130.79" rx="1.37604" ry="1.09466" fill="#0061B1"/>
<ellipse cx="92.2198" cy="130.79" rx="1.37604" ry="1.09466" fill="#0061B1"/>
<ellipse cx="133.501" cy="130.79" rx="1.37604" ry="1.09466" fill="#0061B1"/>
<ellipse cx="174.782" cy="130.79" rx="1.37604" ry="1.09466" fill="#0061B1"/>
<ellipse cx="216.064" cy="130.79" rx="1.37604" ry="1.09466" fill="#0061B1"/>
<ellipse cx="257.345" cy="130.79" rx="1.37604" ry="1.09466" fill="#0061B1"/>
<ellipse cx="9.65729" cy="163.212" rx="1.37604" ry="1.09466" fill="#0061B1"/>
<ellipse cx="50.9385" cy="163.212" rx="1.37604" ry="1.09466" fill="#0061B1"/>
<ellipse cx="92.2198" cy="163.212" rx="1.37604" ry="1.09466" fill="#0061B1"/>
<ellipse cx="133.501" cy="163.212" rx="1.37604" ry="1.09466" fill="#0061B1"/>
<ellipse cx="174.782" cy="163.212" rx="1.37604" ry="1.09466" fill="#0061B1"/>
<ellipse cx="216.064" cy="163.212" rx="1.37604" ry="1.09466" fill="#0061B1"/>
<ellipse cx="257.345" cy="163.212" rx="1.37604" ry="1.09466" fill="#0061B1"/>
<ellipse cx="9.65729" cy="195.634" rx="1.37604" ry="1.09466" fill="#0061B1"/>
<ellipse cx="50.9385" cy="195.634" rx="1.37604" ry="1.09466" fill="#0061B1"/>
<ellipse cx="92.2198" cy="195.634" rx="1.37604" ry="1.09466" fill="#0061B1"/>
<ellipse cx="133.501" cy="195.634" rx="1.37604" ry="1.09466" fill="#0061B1"/>
<ellipse cx="174.782" cy="195.634" rx="1.37604" ry="1.09466" fill="#0061B1"/>
<ellipse cx="216.064" cy="195.634" rx="1.37604" ry="1.09466" fill="#0061B1"/>
<ellipse cx="257.345" cy="195.634" rx="1.37604" ry="1.09466" fill="#0061B1"/>
<ellipse cx="9.65729" cy="228.06" rx="1.37604" ry="1.09466" fill="#0061B1"/>
<ellipse cx="50.9385" cy="228.06" rx="1.37604" ry="1.09466" fill="#0061B1"/>
<ellipse cx="92.2198" cy="228.06" rx="1.37604" ry="1.09466" fill="#0061B1"/>
<ellipse cx="133.501" cy="228.06" rx="1.37604" ry="1.09466" fill="#0061B1"/>
<ellipse cx="174.782" cy="228.06" rx="1.37604" ry="1.09466" fill="#0061B1"/>
<ellipse cx="216.064" cy="228.06" rx="1.37604" ry="1.09466" fill="#0061B1"/>
<ellipse cx="257.345" cy="228.06" rx="1.37604" ry="1.09466" fill="#0061B1"/>
</svg>
