<svg width="183" height="230" viewBox="0 0 183 230" fill="none" xmlns="http://www.w3.org/2000/svg">
<ellipse cx="1.37604" cy="1.09466" rx="1.37604" ry="1.09466" fill="#F8F8F8"/>
<ellipse cx="42.6573" cy="1.09466" rx="1.37604" ry="1.09466" fill="#F8F8F8"/>
<ellipse cx="83.9385" cy="1.09466" rx="1.37604" ry="1.09466" fill="#F8F8F8"/>
<ellipse cx="125.22" cy="1.09466" rx="1.37604" ry="1.09466" fill="#F8F8F8"/>
<ellipse cx="166.501" cy="1.09466" rx="1.37604" ry="1.09466" fill="#F8F8F8"/>
<ellipse cx="1.37604" cy="33.5165" rx="1.37604" ry="1.09466" fill="#F8F8F8"/>
<ellipse cx="42.6573" cy="33.5165" rx="1.37604" ry="1.09466" fill="#F8F8F8"/>
<ellipse cx="83.9385" cy="33.5165" rx="1.37604" ry="1.09466" fill="#F8F8F8"/>
<ellipse cx="125.22" cy="33.5165" rx="1.37604" ry="1.09466" fill="#F8F8F8"/>
<ellipse cx="166.501" cy="33.5165" rx="1.37604" ry="1.09466" fill="#F8F8F8"/>
<ellipse cx="1.37604" cy="65.9423" rx="1.37604" ry="1.09466" fill="#F8F8F8"/>
<ellipse cx="42.6573" cy="65.9423" rx="1.37604" ry="1.09466" fill="#F8F8F8"/>
<ellipse cx="83.9385" cy="65.9423" rx="1.37604" ry="1.09466" fill="#F8F8F8"/>
<ellipse cx="125.22" cy="65.9423" rx="1.37604" ry="1.09466" fill="#F8F8F8"/>
<ellipse cx="166.501" cy="65.9423" rx="1.37604" ry="1.09466" fill="#F8F8F8"/>
<ellipse cx="1.37604" cy="98.3642" rx="1.37604" ry="1.09466" fill="#F8F8F8"/>
<ellipse cx="42.6573" cy="98.3642" rx="1.37604" ry="1.09466" fill="#F8F8F8"/>
<ellipse cx="83.9385" cy="98.3642" rx="1.37604" ry="1.09466" fill="#F8F8F8"/>
<ellipse cx="125.22" cy="98.3642" rx="1.37604" ry="1.09466" fill="#F8F8F8"/>
<ellipse cx="166.501" cy="98.3642" rx="1.37604" ry="1.09466" fill="#F8F8F8"/>
<ellipse cx="1.37604" cy="130.79" rx="1.37604" ry="1.09466" fill="#F8F8F8"/>
<ellipse cx="42.6573" cy="130.79" rx="1.37604" ry="1.09466" fill="#F8F8F8"/>
<ellipse cx="83.9385" cy="130.79" rx="1.37604" ry="1.09466" fill="#F8F8F8"/>
<ellipse cx="125.22" cy="130.79" rx="1.37604" ry="1.09466" fill="#F8F8F8"/>
<ellipse cx="166.501" cy="130.79" rx="1.37604" ry="1.09466" fill="#F8F8F8"/>
<ellipse cx="1.37604" cy="163.212" rx="1.37604" ry="1.09466" fill="#F8F8F8"/>
<ellipse cx="42.6573" cy="163.212" rx="1.37604" ry="1.09466" fill="#F8F8F8"/>
<ellipse cx="83.9385" cy="163.212" rx="1.37604" ry="1.09466" fill="#F8F8F8"/>
<ellipse cx="125.22" cy="163.212" rx="1.37604" ry="1.09466" fill="#F8F8F8"/>
<ellipse cx="166.501" cy="163.212" rx="1.37604" ry="1.09466" fill="#F8F8F8"/>
<ellipse cx="1.37604" cy="195.634" rx="1.37604" ry="1.09466" fill="#F8F8F8"/>
<ellipse cx="42.6573" cy="195.634" rx="1.37604" ry="1.09466" fill="#F8F8F8"/>
<ellipse cx="83.9385" cy="195.634" rx="1.37604" ry="1.09466" fill="#F8F8F8"/>
<ellipse cx="125.22" cy="195.634" rx="1.37604" ry="1.09466" fill="#F8F8F8"/>
<ellipse cx="166.501" cy="195.634" rx="1.37604" ry="1.09466" fill="#F8F8F8"/>
<ellipse cx="1.37604" cy="228.06" rx="1.37604" ry="1.09466" fill="#F8F8F8"/>
<ellipse cx="42.6573" cy="228.06" rx="1.37604" ry="1.09466" fill="#F8F8F8"/>
<ellipse cx="83.9385" cy="228.06" rx="1.37604" ry="1.09466" fill="#F8F8F8"/>
<ellipse cx="125.22" cy="228.06" rx="1.37604" ry="1.09466" fill="#F8F8F8"/>
<ellipse cx="166.501" cy="228.06" rx="1.37604" ry="1.09466" fill="#F8F8F8"/>
</svg>
