<svg width="16" height="13" viewBox="0 0 16 13" fill="none" xmlns="http://www.w3.org/2000/svg">
<path d="M15.8633 2.12224C15.3005 2.36492 14.7052 2.52386 14.0963 2.59399C14.7328 2.22464 15.2128 1.63586 15.4463 0.937985C14.8394 1.28735 14.1786 1.53321 13.491 1.66549C13.2001 1.36486 12.8514 1.12607 12.4659 0.963429C12.0805 0.800789 11.6662 0.717647 11.2478 0.718985C10.4431 0.708971 9.66727 1.01872 9.09073 1.58021C8.51419 2.1417 8.18405 2.90904 8.17278 3.71374C8.17238 3.94357 8.19906 4.17265 8.25228 4.39624C7.03601 4.34086 5.8444 4.03419 4.7525 3.49554C3.66061 2.95688 2.69212 2.19793 1.90803 1.26649C1.63499 1.72129 1.49132 2.24202 1.49253 2.77249C1.49426 3.26921 1.62036 3.75758 1.85932 4.19305C2.09828 4.62852 2.44248 4.99721 2.86053 5.26549C2.37189 5.25068 1.89344 5.12201 1.46328 4.88974V4.92724C1.47109 5.62788 1.72227 6.30402 2.17379 6.83983C2.62532 7.37564 3.2491 7.73778 3.93828 7.86424C3.67364 7.93379 3.40116 7.96908 3.12753 7.96924C2.9332 7.96934 2.73931 7.95075 2.54853 7.91374C2.75329 8.51536 3.13973 9.03859 3.65452 9.41125C4.1693 9.7839 4.78705 9.9876 5.42253 9.99424C4.32295 10.8299 2.97861 11.2799 1.59753 11.2745C1.35221 11.2742 1.10709 11.2604 0.863281 11.2332C2.27734 12.1177 3.91213 12.5856 5.58003 12.5832C6.71701 12.6072 7.84741 12.4048 8.9054 11.9877C9.96339 11.5706 10.9278 10.9473 11.7426 10.1539C12.5573 9.36046 13.2061 8.41291 13.6512 7.36636C14.0962 6.31982 14.3286 5.1952 14.3348 4.05799L14.3243 3.67024C14.9268 3.25167 15.4482 2.72716 15.8633 2.12224Z" fill="#1B76FF"/>
</svg>
