<svg width="33" height="31" viewBox="0 0 33 31" fill="none" xmlns="http://www.w3.org/2000/svg">
<path d="M11.2273 14.2727C12.9753 14.2727 14.6517 13.6262 15.8877 12.4754C17.1238 11.3246 17.8182 9.76383 17.8182 8.13636C17.8182 6.5089 17.1238 4.94809 15.8877 3.7973C14.6517 2.64651 12.9753 2 11.2273 2C9.47926 2 7.80283 2.64651 6.5668 3.7973C5.33076 4.94809 4.63636 6.5089 4.63636 8.13636C4.63636 9.76383 5.33076 11.3246 6.5668 12.4754C7.80283 13.6262 9.47926 14.2727 11.2273 14.2727ZM11.2273 14.2727C13.8808 14.2727 16.1995 15.2055 17.8485 16.7555C18.8264 17.6782 19.5578 18.8019 19.984 20.036M11.2273 14.2727C5.95455 14.2727 2 17.9545 2 22.8636V29H15.1818M16.5 23.8749L22.0232 27.7727L31 16.7273" stroke="#0061B1" stroke-width="3"/>
</svg>
