<svg width="16" height="11" viewBox="0 0 16 11" fill="none" xmlns="http://www.w3.org/2000/svg">
<path d="M15.5507 2.00665C15.464 1.68697 15.2952 1.39554 15.061 1.16133C14.8268 0.927125 14.5354 0.758301 14.2157 0.67165C13.0307 0.34765 8.29066 0.347656 8.29066 0.347656C8.29066 0.347656 3.54917 0.347657 2.36567 0.659657C2.04596 0.751122 1.75519 0.923373 1.52137 1.15982C1.28755 1.39627 1.11856 1.68894 1.03067 2.00965C0.614777 4.42085 0.614777 6.88545 1.03067 9.29665C1.11739 9.6163 1.28623 9.90769 1.52043 10.1419C1.75462 10.3761 2.04602 10.5449 2.36567 10.6316C3.56567 10.9564 8.29066 10.9564 8.29066 10.9564C8.29066 10.9564 13.0322 10.9564 14.2157 10.6444C14.5353 10.5577 14.8267 10.3888 15.0609 10.1546C15.2951 9.92044 15.464 9.62905 15.5507 9.3094C15.7657 8.10697 15.8701 6.88738 15.8627 5.6659C15.877 4.43993 15.7725 3.21546 15.5507 2.00965V2.00665ZM6.77567 7.92115V3.37915L10.7184 5.65015L6.77567 7.92115Z" fill="#1B76FF"/>
</svg>
