<svg width="48" height="48" viewBox="0 0 48 48" fill="none" xmlns="http://www.w3.org/2000/svg">
<path d="M39.3408 16.2808C39.163 15.5953 38.8063 14.9694 38.3074 14.4669C37.8084 13.9644 37.185 13.6034 36.5008 13.4208C32.3527 12.9315 28.1774 12.7111 24.0008 12.7608C19.8243 12.7111 15.6489 12.9315 11.5008 13.4208C10.8166 13.6034 10.1932 13.9644 9.69427 14.4669C9.1953 14.9694 8.83867 15.5953 8.66082 16.2808C8.20644 18.8287 7.98552 21.4127 8.00082 24.0008C7.98475 26.6021 8.20567 29.1995 8.66082 31.7608C8.84789 32.4351 9.20861 33.0486 9.70697 33.54C10.2053 34.0313 10.8239 34.3833 11.5008 34.5608C15.6489 35.05 19.8243 35.2705 24.0008 35.2208C28.1774 35.2705 32.3527 35.05 36.5008 34.5608C37.1778 34.3833 37.7963 34.0313 38.2947 33.54C38.793 33.0486 39.1537 32.4351 39.3408 31.7608C39.796 29.1995 40.0169 26.6021 40.0008 24.0008C40.0161 21.4127 39.7952 18.8287 39.3408 16.2808ZM20.7208 28.7808V19.2608L29.1008 24.0008L20.7208 28.7608V28.7808Z" fill="white"/>
</svg>
