<svg width="293" height="212" viewBox="0 0 293 212" fill="none" xmlns="http://www.w3.org/2000/svg">
<circle cx="1" cy="211" r="1" transform="rotate(-90 1 211)" fill="black"/>
<circle cx="1" cy="181" r="1" transform="rotate(-90 1 181)" fill="black"/>
<circle cx="1" cy="151" r="1" transform="rotate(-90 1 151)" fill="black"/>
<circle cx="1" cy="121" r="1" transform="rotate(-90 1 121)" fill="black"/>
<circle cx="1" cy="91" r="1" transform="rotate(-90 1 91)" fill="black"/>
<circle cx="1" cy="61" r="1" transform="rotate(-90 1 61)" fill="black"/>
<circle cx="1" cy="31" r="1" transform="rotate(-90 1 31)" fill="black"/>
<circle cx="1" cy="1" r="1" transform="rotate(-90 1 1)" fill="black"/>
<circle cx="31" cy="211" r="1" transform="rotate(-90 31 211)" fill="black"/>
<circle cx="31" cy="181" r="1" transform="rotate(-90 31 181)" fill="black"/>
<circle cx="31" cy="151" r="1" transform="rotate(-90 31 151)" fill="black"/>
<circle cx="31" cy="121" r="1" transform="rotate(-90 31 121)" fill="black"/>
<circle cx="31" cy="91" r="1" transform="rotate(-90 31 91)" fill="black"/>
<circle cx="31" cy="61" r="1" transform="rotate(-90 31 61)" fill="black"/>
<circle cx="31" cy="31" r="1" transform="rotate(-90 31 31)" fill="black"/>
<circle cx="31" cy="1" r="1" transform="rotate(-90 31 1)" fill="black"/>
<circle cx="61" cy="211" r="1" transform="rotate(-90 61 211)" fill="black"/>
<circle cx="61" cy="181" r="1" transform="rotate(-90 61 181)" fill="black"/>
<circle cx="61" cy="151" r="1" transform="rotate(-90 61 151)" fill="black"/>
<circle cx="61" cy="121" r="1" transform="rotate(-90 61 121)" fill="black"/>
<circle cx="61" cy="91" r="1" transform="rotate(-90 61 91)" fill="black"/>
<circle cx="61" cy="61" r="1" transform="rotate(-90 61 61)" fill="black"/>
<circle cx="61" cy="31" r="1" transform="rotate(-90 61 31)" fill="black"/>
<circle cx="61" cy="1" r="1" transform="rotate(-90 61 1)" fill="black"/>
<circle cx="91" cy="211" r="1" transform="rotate(-90 91 211)" fill="black"/>
<circle cx="91" cy="181" r="1" transform="rotate(-90 91 181)" fill="black"/>
<circle cx="91" cy="151" r="1" transform="rotate(-90 91 151)" fill="black"/>
<circle cx="91" cy="121" r="1" transform="rotate(-90 91 121)" fill="black"/>
<circle cx="91" cy="91" r="1" transform="rotate(-90 91 91)" fill="black"/>
<circle cx="91" cy="61" r="1" transform="rotate(-90 91 61)" fill="black"/>
<circle cx="91" cy="31" r="1" transform="rotate(-90 91 31)" fill="black"/>
<circle cx="91" cy="1" r="1" transform="rotate(-90 91 1)" fill="black"/>
<circle cx="121" cy="211" r="1" transform="rotate(-90 121 211)" fill="black"/>
<circle cx="121" cy="181" r="1" transform="rotate(-90 121 181)" fill="black"/>
<circle cx="121" cy="151" r="1" transform="rotate(-90 121 151)" fill="black"/>
<circle cx="121" cy="121" r="1" transform="rotate(-90 121 121)" fill="black"/>
<circle cx="121" cy="91" r="1" transform="rotate(-90 121 91)" fill="black"/>
<circle cx="121" cy="61" r="1" transform="rotate(-90 121 61)" fill="black"/>
<circle cx="121" cy="31" r="1" transform="rotate(-90 121 31)" fill="black"/>
<circle cx="121" cy="1" r="1" transform="rotate(-90 121 1)" fill="black"/>
<circle cx="151" cy="211" r="1" transform="rotate(-90 151 211)" fill="black"/>
<circle cx="151" cy="181" r="1" transform="rotate(-90 151 181)" fill="black"/>
<circle cx="151" cy="151" r="1" transform="rotate(-90 151 151)" fill="black"/>
<circle cx="151" cy="121" r="1" transform="rotate(-90 151 121)" fill="black"/>
<circle cx="151" cy="91" r="1" transform="rotate(-90 151 91)" fill="black"/>
<circle cx="151" cy="61" r="1" transform="rotate(-90 151 61)" fill="black"/>
<circle cx="151" cy="31" r="1" transform="rotate(-90 151 31)" fill="black"/>
<circle cx="151" cy="1" r="1" transform="rotate(-90 151 1)" fill="black"/>
<circle cx="181" cy="211" r="1" transform="rotate(-90 181 211)" fill="black"/>
<circle cx="181" cy="181" r="1" transform="rotate(-90 181 181)" fill="black"/>
<circle cx="181" cy="151" r="1" transform="rotate(-90 181 151)" fill="black"/>
<circle cx="181" cy="121" r="1" transform="rotate(-90 181 121)" fill="black"/>
<circle cx="181" cy="91" r="1" transform="rotate(-90 181 91)" fill="black"/>
<circle cx="181" cy="61" r="1" transform="rotate(-90 181 61)" fill="black"/>
<circle cx="181" cy="31" r="1" transform="rotate(-90 181 31)" fill="black"/>
<circle cx="181" cy="1" r="1" transform="rotate(-90 181 1)" fill="black"/>
<circle cx="211" cy="211" r="1" transform="rotate(-90 211 211)" fill="black"/>
<circle cx="211" cy="181" r="1" transform="rotate(-90 211 181)" fill="black"/>
<circle cx="211" cy="151" r="1" transform="rotate(-90 211 151)" fill="black"/>
<circle cx="211" cy="121" r="1" transform="rotate(-90 211 121)" fill="black"/>
<circle cx="211" cy="91" r="1" transform="rotate(-90 211 91)" fill="black"/>
<circle cx="211" cy="61" r="1" transform="rotate(-90 211 61)" fill="black"/>
<circle cx="211" cy="31" r="1" transform="rotate(-90 211 31)" fill="black"/>
<circle cx="211" cy="1" r="1" transform="rotate(-90 211 1)" fill="black"/>
<circle cx="238" cy="211" r="1" transform="rotate(-90 238 211)" fill="black"/>
<circle cx="238" cy="181" r="1" transform="rotate(-90 238 181)" fill="black"/>
<circle cx="238" cy="151" r="1" transform="rotate(-90 238 151)" fill="black"/>
<circle cx="238" cy="121" r="1" transform="rotate(-90 238 121)" fill="black"/>
<circle cx="238" cy="91" r="1" transform="rotate(-90 238 91)" fill="black"/>
<circle cx="238" cy="61" r="1" transform="rotate(-90 238 61)" fill="black"/>
<circle cx="238" cy="31" r="1" transform="rotate(-90 238 31)" fill="black"/>
<circle cx="238" cy="1" r="1" transform="rotate(-90 238 1)" fill="black"/>
<circle cx="265" cy="211" r="1" transform="rotate(-90 265 211)" fill="black"/>
<circle cx="265" cy="181" r="1" transform="rotate(-90 265 181)" fill="black"/>
<circle cx="265" cy="151" r="1" transform="rotate(-90 265 151)" fill="black"/>
<circle cx="265" cy="121" r="1" transform="rotate(-90 265 121)" fill="black"/>
<circle cx="265" cy="91" r="1" transform="rotate(-90 265 91)" fill="black"/>
<circle cx="265" cy="61" r="1" transform="rotate(-90 265 61)" fill="black"/>
<circle cx="265" cy="31" r="1" transform="rotate(-90 265 31)" fill="black"/>
<circle cx="265" cy="1" r="1" transform="rotate(-90 265 1)" fill="black"/>
<circle cx="292" cy="211" r="1" transform="rotate(-90 292 211)" fill="black"/>
<circle cx="292" cy="181" r="1" transform="rotate(-90 292 181)" fill="black"/>
<circle cx="292" cy="151" r="1" transform="rotate(-90 292 151)" fill="black"/>
<circle cx="292" cy="121" r="1" transform="rotate(-90 292 121)" fill="black"/>
<circle cx="292" cy="91" r="1" transform="rotate(-90 292 91)" fill="black"/>
<circle cx="292" cy="61" r="1" transform="rotate(-90 292 61)" fill="black"/>
<circle cx="292" cy="31" r="1" transform="rotate(-90 292 31)" fill="black"/>
<circle cx="292" cy="1" r="1" transform="rotate(-90 292 1)" fill="black"/>
</svg>
