<svg width="1440" height="887" viewBox="0 0 1440 887" fill="none" xmlns="http://www.w3.org/2000/svg">
<g clip-path="url(#clip0_1476_9676)">
<path d="M1457.39 244.323C1456.36 244.533 1455.12 244.609 1454.32 245.007C1415.14 264.264 1375.11 282.872 1337.12 303.07C1305.8 319.74 1272.87 323.861 1238.2 318.235C1223.73 315.889 1210.5 310.78 1196.33 307.429C1163.61 299.7 1128.8 297.655 1092.81 299.166C1048.76 301.008 1005.62 307.271 964.064 319.537C938.363 327.121 913.747 336.379 894.241 349.953C869.228 367.359 851.551 386.599 859.496 409.935C863.291 421.115 873.524 429.57 886.449 436.7C896.194 442.091 907.692 445.83 919.349 449.591C933.751 454.242 949.127 457.521 963.931 461.564C968.395 462.794 972.725 464.213 976.119 466.495C983.01 471.143 982.916 475.751 975.812 481.238C963.872 490.425 947.669 494.191 931.105 496.925C906.886 500.918 883.906 499.946 862.229 493.727C835.728 486.123 808.05 480.322 777.832 478.986C730.016 476.872 682.53 480.976 635.253 491.058C595.409 499.554 559.165 512.238 529.083 532.045C507.902 545.977 495.093 562.116 496.784 580.636C498.224 596.553 510.101 608.98 529.279 618.315C549.411 628.111 573.944 632.792 597.404 638.778C603.717 640.391 610.029 641.986 615.082 644.905C620.566 648.07 621.475 651.868 617.824 656.433C612.58 662.984 603.744 667.158 593.705 670.002C562.317 678.885 531.548 680.804 501.88 672.16C471.828 663.422 439.919 657.691 405.632 657.049C346.864 655.969 289.178 662.583 233.669 680.398C207.466 688.816 183.166 698.975 163.711 713.595C138.634 732.431 127.815 752.563 140.571 774.557C149.804 790.486 169.428 800.2 193.106 806.767C214.213 812.619 236.289 817.333 257.507 823.056C353.156 848.772 451.425 871.047 547.864 895.704C557.767 898.233 567.439 901.215 577.352 903.841C582.263 905.158 587.096 905.471 592.733 904.859C642.589 899.329 692.463 893.952 742.301 888.54C744.765 888.273 747.229 888.005 752.065 887.48C747.192 886.217 744.307 885.478 741.482 884.713C643.871 858.431 543.28 836.018 445.236 810.348C387.315 795.186 328.418 781.378 270.363 766.426C261.867 764.231 253.375 761.49 248.922 756.051C240.77 746.084 245.679 739.024 260.257 729.453C289.125 710.518 324.988 705.844 362.203 704.453C378.81 703.838 395.147 704.772 409.313 709.254C421.155 712.995 433.744 715.583 445.983 718.677C473.794 725.71 503.801 727.108 534.534 726.011C574.707 724.591 613.642 718.064 650.836 705.804C670.305 699.384 689.119 691.808 703.182 680.929C718.223 669.301 731.15 656.558 730.078 641.166C728.92 624.692 716.227 613.075 695.486 604.845C675.688 596.981 652.646 593.131 631.145 587.381C622.48 585.068 615.847 581.073 610.904 576.291C603.035 568.651 606.214 559.714 618.379 551.749C636.251 540.067 658.02 533.592 681.656 529.681C701.678 526.357 721.687 525.217 741.69 526.046C753.587 526.546 764.221 529.21 775.06 531.462C798.335 536.319 820.01 543.668 845.313 545.382C908.259 549.652 969.412 542.817 1027.31 520.535C1050.97 511.419 1071.95 499.672 1083.92 483.234C1095.34 467.518 1092.9 453.288 1079.35 439.816C1066.74 427.293 1046.97 421.413 1026.32 416.037C1013.02 412.572 998.777 410.3 986.07 406.049C962.723 398.219 961.395 383.634 982.907 371.031C1008.05 356.299 1038 350.552 1069.48 347.953C1094.62 345.885 1118.05 348.134 1140.55 353.893C1158.92 358.582 1176.92 364.01 1197.08 365.991C1250.82 371.261 1304.07 366.843 1357.06 352.594C1375.08 347.753 1391.53 341.369 1407.11 333.794C1426.17 324.515 1445.17 315.166 1464.17 305.836L1464.74 311.15C1453.76 313.356 1446.25 319.101 1437.39 323.317C1416.08 333.482 1395.89 344.792 1371.84 352.08C1355.28 357.094 1338.22 361.342 1320.68 364.513C1307.81 366.846 1294.85 368.389 1281.87 369.681C1248.27 373.019 1215.19 372.928 1183.56 367.771C1166.08 364.915 1149.37 360.534 1132.76 356.239C1113.14 351.161 1092.57 350.004 1070.63 351.686C1049.86 353.279 1029.64 356.253 1010.55 362.671C999.09 366.507 988.418 371.27 980.243 378.1C971.468 385.424 972.096 394.123 982.248 399.528C992.992 405.219 1006.67 407.514 1019.65 410.546C1037.33 414.666 1055.49 418.637 1069.14 426.663C1101.42 445.679 1109.03 470.493 1076.77 496.948C1050.95 518.124 1016.56 530.995 977.885 539.325C959.704 543.248 941.359 546.799 922.765 548.35C886.165 551.389 849.817 552.16 815.664 544.978C799.592 541.599 784.17 537.312 768.206 533.785C751.606 530.132 734.252 529.016 715.766 529.835C692.099 530.866 669.704 534.72 648.028 541.769C638.213 544.958 629 549.095 621.965 554.36C606.855 565.645 609.214 574.487 629.767 582.133C644.898 587.758 662.402 590.552 678.501 595.039C705.62 602.595 728.016 613.159 734.681 633.009C738.534 644.436 734.285 655.575 725.301 666.448C703.122 693.346 664.783 706.822 623.543 717.398C595.221 724.663 565.965 727.898 536.328 729.343C505.079 730.866 475.071 729.156 446.743 722.822C430.328 719.149 413.91 715.457 398.118 710.918C384.158 706.9 368.172 707.487 352.758 708.459C331.246 709.821 309.765 712.621 289.59 719.429C274.645 724.462 262.82 731.824 253.453 740.596C248.161 745.554 251.459 753.282 258.487 757.467C267.813 763.02 280.381 764.831 291.911 767.71C342.232 780.306 393.428 791.775 443.031 805.229C482.425 815.915 522.743 825.35 562.465 835.61C602.443 845.94 643.082 855.458 683.417 865.339C697.885 868.873 712.882 871.823 726.6 876.198C737.478 879.673 748.913 882.25 760.029 885.329C762.696 886.072 765.761 886.753 765.319 889.294L578.318 909.6C577.519 907.115 573.783 906.858 570.929 906.116C543.64 899.007 516.377 891.855 488.864 884.984C451.198 875.573 413.338 866.396 375.561 857.113C338.809 848.09 301.446 839.755 265.463 829.771C242.362 823.356 218.421 818.104 195.409 811.641C166.128 803.403 141.533 792.105 132.727 771.181C125.89 754.934 130.503 739.081 145.598 723.628C169.586 699.047 205.991 684.689 245.169 672.915C281.056 662.121 318.897 656.999 356.841 654.281C408.948 650.533 458.244 655.097 503.608 668.543C531.585 676.825 560.515 675.184 590.347 667.191C597.738 665.219 604.232 662.157 609.611 658.299C615.916 653.777 615.65 650.162 608.915 646.958C597.122 641.361 582.432 639.235 568.849 635.819C545.657 629.999 523.681 623.033 508.571 610.393C484.175 589.974 484.943 564.504 510.28 541.744C539.878 515.15 581.335 499.952 627.411 489.143C649.872 483.879 672.696 479.959 695.784 477.608C754.26 471.667 810.281 473.864 861.42 489.412C879.688 494.948 899.145 497.064 919.6 494.862C937.712 492.895 956.192 489.72 970.322 480.041C976.502 475.805 976.773 471.392 970.073 468.223C960.253 463.58 948.137 461.623 936.798 458.782C909.542 451.981 883.97 443.75 866.611 428.47C842.538 407.295 850.059 381.735 874.475 359.971C903.499 334.121 944.461 320.107 988.54 309.281C1018.87 301.838 1050.23 298.141 1081.54 296.046C1129.18 292.84 1174.33 296.745 1216.73 308.213C1231.63 312.246 1246.06 317.44 1264.19 317.088C1288.76 316.602 1310.65 312.179 1331.18 301.709C1371.14 281.296 1411.95 261.57 1452.42 241.589C1453.78 240.915 1455.52 240.551 1457.06 240.054L1457.52 244.309L1457.39 244.323Z" fill="#EEEEEF"/>
<path d="M356.238 820.708C355.525 821.128 355.287 822.048 355.708 822.762L362.563 834.392C362.983 835.106 363.903 835.343 364.617 834.922C365.33 834.502 365.568 833.582 365.147 832.869L359.054 822.531L369.392 816.437C370.106 816.017 370.343 815.097 369.922 814.383C369.502 813.67 368.582 813.432 367.869 813.853L356.238 820.708ZM477.375 851.548L357.375 820.548L356.625 823.452L476.625 854.452L477.375 851.548Z" fill="white"/>
<path d="M784.4 803.48C781.573 803.48 779.147 802.88 777.12 801.68C775.093 800.453 773.533 798.76 772.44 796.6C771.347 794.413 770.8 791.893 770.8 789.04C770.8 786.187 771.347 783.667 772.44 781.48C773.533 779.293 775.093 777.587 777.12 776.36C779.147 775.133 781.573 774.52 784.4 774.52C787.76 774.52 790.507 775.36 792.64 777.04C794.8 778.693 796.147 781.027 796.68 784.04H791.04C790.693 782.52 789.947 781.333 788.8 780.48C787.68 779.6 786.187 779.16 784.32 779.16C781.733 779.16 779.707 780.04 778.24 781.8C776.773 783.56 776.04 785.973 776.04 789.04C776.04 792.107 776.773 794.52 778.24 796.28C779.707 798.013 781.733 798.88 784.32 798.88C786.187 798.88 787.68 798.48 788.8 797.68C789.947 796.853 790.693 795.72 791.04 794.28H796.68C796.147 797.16 794.8 799.413 792.64 801.04C790.507 802.667 787.76 803.48 784.4 803.48ZM803.572 811.8L808.172 801.68H806.972L799.252 783.16H804.812L810.372 797.12L816.172 783.16H821.612L809.012 811.8H803.572ZM832.961 803.48C830.934 803.48 829.147 803.04 827.601 802.16C826.054 801.28 824.827 800.053 823.921 798.48C823.041 796.907 822.601 795.107 822.601 793.08C822.601 791.053 823.041 789.253 823.921 787.68C824.827 786.107 826.054 784.88 827.601 784C829.147 783.12 830.934 782.68 832.961 782.68C835.494 782.68 837.627 783.347 839.361 784.68C841.094 785.987 842.201 787.8 842.681 790.12H837.281C837.014 789.16 836.481 788.413 835.681 787.88C834.907 787.32 833.987 787.04 832.921 787.04C831.507 787.04 830.307 787.573 829.321 788.64C828.334 789.707 827.841 791.187 827.841 793.08C827.841 794.973 828.334 796.453 829.321 797.52C830.307 798.587 831.507 799.12 832.921 799.12C833.987 799.12 834.907 798.853 835.681 798.32C836.481 797.787 837.014 797.027 837.281 796.04H842.681C842.201 798.28 841.094 800.08 839.361 801.44C837.627 802.8 835.494 803.48 832.961 803.48ZM847.225 803V774.2H852.345V803H847.225ZM867.217 803.48C865.217 803.48 863.443 803.053 861.897 802.2C860.35 801.347 859.137 800.147 858.257 798.6C857.377 797.053 856.937 795.267 856.937 793.24C856.937 791.187 857.363 789.36 858.217 787.76C859.097 786.16 860.297 784.92 861.817 784.04C863.363 783.133 865.177 782.68 867.257 782.68C869.203 782.68 870.923 783.107 872.417 783.96C873.91 784.813 875.07 785.987 875.897 787.48C876.75 788.947 877.177 790.587 877.177 792.4C877.177 792.693 877.163 793 877.137 793.32C877.137 793.64 877.123 793.973 877.097 794.32H862.017C862.123 795.867 862.657 797.08 863.617 797.96C864.603 798.84 865.79 799.28 867.177 799.28C868.217 799.28 869.083 799.053 869.777 798.6C870.497 798.12 871.03 797.507 871.377 796.76H876.577C876.203 798.013 875.577 799.16 874.697 800.2C873.843 801.213 872.777 802.013 871.497 802.6C870.243 803.187 868.817 803.48 867.217 803.48ZM867.257 786.84C866.003 786.84 864.897 787.2 863.937 787.92C862.977 788.613 862.363 789.68 862.097 791.12H871.977C871.897 789.813 871.417 788.773 870.537 788C869.657 787.227 868.563 786.84 867.257 786.84ZM891.014 811.8V783.16H895.574L896.134 786C896.774 785.12 897.614 784.347 898.654 783.68C899.721 783.013 901.094 782.68 902.774 782.68C904.641 782.68 906.307 783.133 907.774 784.04C909.241 784.947 910.401 786.187 911.254 787.76C912.107 789.333 912.534 791.12 912.534 793.12C912.534 795.12 912.107 796.907 911.254 798.48C910.401 800.027 909.241 801.253 907.774 802.16C906.307 803.04 904.641 803.48 902.774 803.48C901.281 803.48 899.974 803.2 898.854 802.64C897.734 802.08 896.827 801.293 896.134 800.28V811.8H891.014ZM901.694 799C903.321 799 904.667 798.453 905.734 797.36C906.801 796.267 907.334 794.853 907.334 793.12C907.334 791.387 906.801 789.96 905.734 788.84C904.667 787.72 903.321 787.16 901.694 787.16C900.041 787.16 898.681 787.72 897.614 788.84C896.574 789.933 896.054 791.347 896.054 793.08C896.054 794.813 896.574 796.24 897.614 797.36C898.681 798.453 900.041 799 901.694 799ZM917.108 803V783.16H921.668L922.148 786.88C922.868 785.6 923.841 784.587 925.068 783.84C926.321 783.067 927.788 782.68 929.468 782.68V788.08H928.028C926.908 788.08 925.908 788.253 925.028 788.6C924.148 788.947 923.454 789.547 922.948 790.4C922.468 791.253 922.228 792.44 922.228 793.96V803H917.108ZM942.256 803.48C940.256 803.48 938.482 803.053 936.936 802.2C935.389 801.347 934.176 800.147 933.296 798.6C932.416 797.053 931.976 795.267 931.976 793.24C931.976 791.187 932.402 789.36 933.256 787.76C934.136 786.16 935.336 784.92 936.856 784.04C938.402 783.133 940.216 782.68 942.296 782.68C944.242 782.68 945.962 783.107 947.456 783.96C948.949 784.813 950.109 785.987 950.936 787.48C951.789 788.947 952.216 790.587 952.216 792.4C952.216 792.693 952.202 793 952.176 793.32C952.176 793.64 952.162 793.973 952.136 794.32H937.056C937.162 795.867 937.696 797.08 938.656 797.96C939.642 798.84 940.829 799.28 942.216 799.28C943.256 799.28 944.122 799.053 944.816 798.6C945.536 798.12 946.069 797.507 946.416 796.76H951.616C951.242 798.013 950.616 799.16 949.736 800.2C948.882 801.213 947.816 802.013 946.536 802.6C945.282 803.187 943.856 803.48 942.256 803.48ZM942.296 786.84C941.042 786.84 939.936 787.2 938.976 787.92C938.016 788.613 937.402 789.68 937.136 791.12H947.016C946.936 789.813 946.456 788.773 945.576 788C944.696 787.227 943.602 786.84 942.296 786.84ZM956.522 811.8V783.16H961.082L961.642 786C962.282 785.12 963.122 784.347 964.162 783.68C965.229 783.013 966.602 782.68 968.282 782.68C970.149 782.68 971.815 783.133 973.282 784.04C974.749 784.947 975.909 786.187 976.762 787.76C977.615 789.333 978.042 791.12 978.042 793.12C978.042 795.12 977.615 796.907 976.762 798.48C975.909 800.027 974.749 801.253 973.282 802.16C971.815 803.04 970.149 803.48 968.282 803.48C966.789 803.48 965.482 803.2 964.362 802.64C963.242 802.08 962.335 801.293 961.642 800.28V811.8H956.522ZM967.202 799C968.829 799 970.175 798.453 971.242 797.36C972.309 796.267 972.842 794.853 972.842 793.12C972.842 791.387 972.309 789.96 971.242 788.84C970.175 787.72 968.829 787.16 967.202 787.16C965.549 787.16 964.189 787.72 963.122 788.84C962.082 789.933 961.562 791.347 961.562 793.08C961.562 794.813 962.082 796.24 963.122 797.36C964.189 798.453 965.549 799 967.202 799ZM989.456 803.48C987.749 803.48 986.349 803.213 985.256 802.68C984.162 802.12 983.349 801.387 982.816 800.48C982.282 799.573 982.016 798.573 982.016 797.48C982.016 795.64 982.736 794.147 984.176 793C985.616 791.853 987.776 791.28 990.656 791.28H995.696V790.8C995.696 789.44 995.309 788.44 994.536 787.8C993.762 787.16 992.802 786.84 991.656 786.84C990.616 786.84 989.709 787.093 988.936 787.6C988.162 788.08 987.682 788.8 987.496 789.76H982.496C982.629 788.32 983.109 787.067 983.936 786C984.789 784.933 985.882 784.12 987.216 783.56C988.549 782.973 990.042 782.68 991.696 782.68C994.522 782.68 996.749 783.387 998.376 784.8C1000 786.213 1000.82 788.213 1000.82 790.8V803H996.456L995.976 799.8C995.389 800.867 994.562 801.747 993.496 802.44C992.456 803.133 991.109 803.48 989.456 803.48ZM990.616 799.48C992.082 799.48 993.216 799 994.016 798.04C994.842 797.08 995.362 795.893 995.576 794.48H991.216C989.856 794.48 988.882 794.733 988.296 795.24C987.709 795.72 987.416 796.32 987.416 797.04C987.416 797.813 987.709 798.413 988.296 798.84C988.882 799.267 989.656 799.48 990.616 799.48ZM1005.7 803V783.16H1010.26L1010.74 786.88C1011.46 785.6 1012.43 784.587 1013.66 783.84C1014.91 783.067 1016.38 782.68 1018.06 782.68V788.08H1016.62C1015.5 788.08 1014.5 788.253 1013.62 788.6C1012.74 788.947 1012.05 789.547 1011.54 790.4C1011.06 791.253 1010.82 792.44 1010.82 793.96V803H1005.7ZM1028.4 803.48C1026.69 803.48 1025.29 803.213 1024.2 802.68C1023.11 802.12 1022.29 801.387 1021.76 800.48C1021.23 799.573 1020.96 798.573 1020.96 797.48C1020.96 795.64 1021.68 794.147 1023.12 793C1024.56 791.853 1026.72 791.28 1029.6 791.28H1034.64V790.8C1034.64 789.44 1034.25 788.44 1033.48 787.8C1032.71 787.16 1031.75 786.84 1030.6 786.84C1029.56 786.84 1028.65 787.093 1027.88 787.6C1027.11 788.08 1026.63 788.8 1026.44 789.76H1021.44C1021.57 788.32 1022.05 787.067 1022.88 786C1023.73 784.933 1024.83 784.12 1026.16 783.56C1027.49 782.973 1028.99 782.68 1030.64 782.68C1033.47 782.68 1035.69 783.387 1037.32 784.8C1038.95 786.213 1039.76 788.213 1039.76 790.8V803H1035.4L1034.92 799.8C1034.33 800.867 1033.51 801.747 1032.44 802.44C1031.4 803.133 1030.05 803.48 1028.4 803.48ZM1029.56 799.48C1031.03 799.48 1032.16 799 1032.96 798.04C1033.79 797.08 1034.31 795.893 1034.52 794.48H1030.16C1028.8 794.48 1027.83 794.733 1027.24 795.24C1026.65 795.72 1026.36 796.32 1026.36 797.04C1026.36 797.813 1026.65 798.413 1027.24 798.84C1027.83 799.267 1028.6 799.48 1029.56 799.48ZM1053.21 803C1051.13 803 1049.47 802.493 1048.21 801.48C1046.96 800.467 1046.33 798.667 1046.33 796.08V787.44H1042.93V783.16H1046.33L1046.93 777.84H1051.45V783.16H1056.81V787.44H1051.45V796.12C1051.45 797.08 1051.65 797.747 1052.05 798.12C1052.48 798.467 1053.2 798.64 1054.21 798.64H1056.69V803H1053.21ZM1070.22 803.48C1068.3 803.48 1066.57 803.04 1065.02 802.16C1063.5 801.28 1062.29 800.067 1061.38 798.52C1060.5 796.947 1060.06 795.133 1060.06 793.08C1060.06 791.027 1060.51 789.227 1061.42 787.68C1062.33 786.107 1063.54 784.88 1065.06 784C1066.61 783.12 1068.34 782.68 1070.26 782.68C1072.15 782.68 1073.86 783.12 1075.38 784C1076.93 784.88 1078.14 786.107 1079.02 787.68C1079.93 789.227 1080.38 791.027 1080.38 793.08C1080.38 795.133 1079.93 796.947 1079.02 798.52C1078.14 800.067 1076.93 801.28 1075.38 802.16C1073.83 803.04 1072.11 803.48 1070.22 803.48ZM1070.22 799.04C1071.55 799.04 1072.71 798.547 1073.7 797.56C1074.69 796.547 1075.18 795.053 1075.18 793.08C1075.18 791.107 1074.69 789.627 1073.7 788.64C1072.71 787.627 1071.57 787.12 1070.26 787.12C1068.9 787.12 1067.73 787.627 1066.74 788.64C1065.78 789.627 1065.3 791.107 1065.3 793.08C1065.3 795.053 1065.78 796.547 1066.74 797.56C1067.73 798.547 1068.89 799.04 1070.22 799.04ZM1087.72 780.08C1086.79 780.08 1086.01 779.8 1085.4 779.24C1084.81 778.68 1084.52 777.973 1084.52 777.12C1084.52 776.267 1084.81 775.573 1085.4 775.04C1086.01 774.48 1086.79 774.2 1087.72 774.2C1088.65 774.2 1089.41 774.48 1090 775.04C1090.61 775.573 1090.92 776.267 1090.92 777.12C1090.92 777.973 1090.61 778.68 1090 779.24C1089.41 779.8 1088.65 780.08 1087.72 780.08ZM1085.16 803V783.16H1090.28V803H1085.16ZM1095.62 803V783.16H1100.18L1100.66 786.88C1101.38 785.6 1102.36 784.587 1103.58 783.84C1104.84 783.067 1106.3 782.68 1107.98 782.68V788.08H1106.54C1105.42 788.08 1104.42 788.253 1103.54 788.6C1102.66 788.947 1101.97 789.547 1101.46 790.4C1100.98 791.253 1100.74 792.44 1100.74 793.96V803H1095.62ZM1120.77 803.48C1118.77 803.48 1117 803.053 1115.45 802.2C1113.9 801.347 1112.69 800.147 1111.81 798.6C1110.93 797.053 1110.49 795.267 1110.49 793.24C1110.49 791.187 1110.92 789.36 1111.77 787.76C1112.65 786.16 1113.85 784.92 1115.37 784.04C1116.92 783.133 1118.73 782.68 1120.81 782.68C1122.76 782.68 1124.48 783.107 1125.97 783.96C1127.46 784.813 1128.62 785.987 1129.45 787.48C1130.3 788.947 1130.73 790.587 1130.73 792.4C1130.73 792.693 1130.72 793 1130.69 793.32C1130.69 793.64 1130.68 793.973 1130.65 794.32H1115.57C1115.68 795.867 1116.21 797.08 1117.17 797.96C1118.16 798.84 1119.34 799.28 1120.73 799.28C1121.77 799.28 1122.64 799.053 1123.33 798.6C1124.05 798.12 1124.58 797.507 1124.93 796.76H1130.13C1129.76 798.013 1129.13 799.16 1128.25 800.2C1127.4 801.213 1126.33 802.013 1125.05 802.6C1123.8 803.187 1122.37 803.48 1120.77 803.48ZM1120.81 786.84C1119.56 786.84 1118.45 787.2 1117.49 787.92C1116.53 788.613 1115.92 789.68 1115.65 791.12H1125.53C1125.45 789.813 1124.97 788.773 1124.09 788C1123.21 787.227 1122.12 786.84 1120.81 786.84Z" fill="#1D93F3"/>
<path d="M244.4 363.48C241.573 363.48 239.147 362.88 237.12 361.68C235.093 360.453 233.533 358.76 232.44 356.6C231.347 354.413 230.8 351.893 230.8 349.04C230.8 346.187 231.347 343.667 232.44 341.48C233.533 339.293 235.093 337.587 237.12 336.36C239.147 335.133 241.573 334.52 244.4 334.52C247.76 334.52 250.507 335.36 252.64 337.04C254.8 338.693 256.147 341.027 256.68 344.04H251.04C250.693 342.52 249.947 341.333 248.8 340.48C247.68 339.6 246.187 339.16 244.32 339.16C241.733 339.16 239.707 340.04 238.24 341.8C236.773 343.56 236.04 345.973 236.04 349.04C236.04 352.107 236.773 354.52 238.24 356.28C239.707 358.013 241.733 358.88 244.32 358.88C246.187 358.88 247.68 358.48 248.8 357.68C249.947 356.853 250.693 355.72 251.04 354.28H256.68C256.147 357.16 254.8 359.413 252.64 361.04C250.507 362.667 247.76 363.48 244.4 363.48ZM270.612 363.48C268.692 363.48 266.959 363.04 265.412 362.16C263.892 361.28 262.679 360.067 261.772 358.52C260.892 356.947 260.452 355.133 260.452 353.08C260.452 351.027 260.906 349.227 261.812 347.68C262.719 346.107 263.932 344.88 265.452 344C266.999 343.12 268.732 342.68 270.652 342.68C272.546 342.68 274.252 343.12 275.772 344C277.319 344.88 278.532 346.107 279.412 347.68C280.319 349.227 280.772 351.027 280.772 353.08C280.772 355.133 280.319 356.947 279.412 358.52C278.532 360.067 277.319 361.28 275.772 362.16C274.226 363.04 272.506 363.48 270.612 363.48ZM270.612 359.04C271.946 359.04 273.106 358.547 274.092 357.56C275.079 356.547 275.572 355.053 275.572 353.08C275.572 351.107 275.079 349.627 274.092 348.64C273.106 347.627 271.959 347.12 270.652 347.12C269.292 347.12 268.119 347.627 267.132 348.64C266.172 349.627 265.692 351.107 265.692 353.08C265.692 355.053 266.172 356.547 267.132 357.56C268.119 358.547 269.279 359.04 270.612 359.04ZM285.35 363V343.16H289.87L290.27 346.52C290.883 345.347 291.763 344.413 292.91 343.72C294.083 343.027 295.457 342.68 297.03 342.68C299.483 342.68 301.39 343.453 302.75 345C304.11 346.547 304.79 348.813 304.79 351.8V363H299.67V352.28C299.67 350.573 299.323 349.267 298.63 348.36C297.937 347.453 296.857 347 295.39 347C293.95 347 292.763 347.507 291.83 348.52C290.923 349.533 290.47 350.947 290.47 352.76V363H285.35ZM319.406 363.48C317.379 363.48 315.593 363.04 314.046 362.16C312.499 361.28 311.273 360.053 310.366 358.48C309.486 356.907 309.046 355.107 309.046 353.08C309.046 351.053 309.486 349.253 310.366 347.68C311.273 346.107 312.499 344.88 314.046 344C315.593 343.12 317.379 342.68 319.406 342.68C321.939 342.68 324.073 343.347 325.806 344.68C327.539 345.987 328.646 347.8 329.126 350.12H323.726C323.459 349.16 322.926 348.413 322.126 347.88C321.353 347.32 320.433 347.04 319.366 347.04C317.953 347.04 316.753 347.573 315.766 348.64C314.779 349.707 314.286 351.187 314.286 353.08C314.286 354.973 314.779 356.453 315.766 357.52C316.753 358.587 317.953 359.12 319.366 359.12C320.433 359.12 321.353 358.853 322.126 358.32C322.926 357.787 323.459 357.027 323.726 356.04H329.126C328.646 358.28 327.539 360.08 325.806 361.44C324.073 362.8 321.939 363.48 319.406 363.48ZM343.19 363.48C341.27 363.48 339.537 363.04 337.99 362.16C336.47 361.28 335.257 360.067 334.35 358.52C333.47 356.947 333.03 355.133 333.03 353.08C333.03 351.027 333.484 349.227 334.39 347.68C335.297 346.107 336.51 344.88 338.03 344C339.577 343.12 341.31 342.68 343.23 342.68C345.124 342.68 346.83 343.12 348.35 344C349.897 344.88 351.11 346.107 351.99 347.68C352.897 349.227 353.35 351.027 353.35 353.08C353.35 355.133 352.897 356.947 351.99 358.52C351.11 360.067 349.897 361.28 348.35 362.16C346.804 363.04 345.084 363.48 343.19 363.48ZM343.19 359.04C344.524 359.04 345.684 358.547 346.67 357.56C347.657 356.547 348.15 355.053 348.15 353.08C348.15 351.107 347.657 349.627 346.67 348.64C345.684 347.627 344.537 347.12 343.23 347.12C341.87 347.12 340.697 347.627 339.71 348.64C338.75 349.627 338.27 351.107 338.27 353.08C338.27 355.053 338.75 356.547 339.71 357.56C340.697 358.547 341.857 359.04 343.19 359.04ZM365.368 363.48C362.888 363.48 360.968 362.707 359.608 361.16C358.275 359.613 357.608 357.347 357.608 354.36V343.16H362.688V353.88C362.688 355.587 363.035 356.893 363.728 357.8C364.421 358.707 365.515 359.16 367.008 359.16C368.421 359.16 369.581 358.653 370.488 357.64C371.421 356.627 371.888 355.213 371.888 353.4V343.16H377.008V363H372.488L372.088 359.64C371.475 360.813 370.581 361.747 369.408 362.44C368.261 363.133 366.915 363.48 365.368 363.48ZM382.264 363V343.16H386.824L387.304 346.88C388.024 345.6 388.997 344.587 390.224 343.84C391.477 343.067 392.944 342.68 394.624 342.68V348.08H393.184C392.064 348.08 391.064 348.253 390.184 348.6C389.304 348.947 388.611 349.547 388.104 350.4C387.624 351.253 387.384 352.44 387.384 353.96V363H382.264ZM406.323 363.48C404.563 363.48 403.017 363.2 401.683 362.64C400.35 362.053 399.283 361.253 398.483 360.24C397.683 359.227 397.203 358.053 397.043 356.72H402.203C402.363 357.493 402.79 358.16 403.483 358.72C404.203 359.253 405.123 359.52 406.243 359.52C407.363 359.52 408.177 359.293 408.683 358.84C409.217 358.387 409.483 357.867 409.483 357.28C409.483 356.427 409.11 355.853 408.363 355.56C407.617 355.24 406.577 354.933 405.243 354.64C404.39 354.453 403.523 354.227 402.643 353.96C401.763 353.693 400.95 353.36 400.203 352.96C399.483 352.533 398.897 352 398.443 351.36C397.99 350.693 397.763 349.88 397.763 348.92C397.763 347.16 398.457 345.68 399.843 344.48C401.257 343.28 403.23 342.68 405.763 342.68C408.11 342.68 409.977 343.227 411.363 344.32C412.777 345.413 413.617 346.92 413.883 348.84H409.043C408.75 347.373 407.643 346.64 405.723 346.64C404.763 346.64 404.017 346.827 403.483 347.2C402.977 347.573 402.723 348.04 402.723 348.6C402.723 349.187 403.11 349.653 403.883 350C404.657 350.347 405.683 350.667 406.963 350.96C408.35 351.28 409.617 351.64 410.763 352.04C411.937 352.413 412.87 352.987 413.563 353.76C414.257 354.507 414.603 355.587 414.603 357C414.63 358.227 414.31 359.333 413.643 360.32C412.977 361.307 412.017 362.08 410.763 362.64C409.51 363.2 408.03 363.48 406.323 363.48Z" fill="#00B2FF"/>
<path d="M1026.4 618.48C1023.57 618.48 1021.15 617.88 1019.12 616.68C1017.09 615.453 1015.53 613.76 1014.44 611.6C1013.35 609.413 1012.8 606.893 1012.8 604.04C1012.8 601.187 1013.35 598.667 1014.44 596.48C1015.53 594.293 1017.09 592.587 1019.12 591.36C1021.15 590.133 1023.57 589.52 1026.4 589.52C1029.76 589.52 1032.51 590.36 1034.64 592.04C1036.8 593.693 1038.15 596.027 1038.68 599.04H1033.04C1032.69 597.52 1031.95 596.333 1030.8 595.48C1029.68 594.6 1028.19 594.16 1026.32 594.16C1023.73 594.16 1021.71 595.04 1020.24 596.8C1018.77 598.56 1018.04 600.973 1018.04 604.04C1018.04 607.107 1018.77 609.52 1020.24 611.28C1021.71 613.013 1023.73 613.88 1026.32 613.88C1028.19 613.88 1029.68 613.48 1030.8 612.68C1031.95 611.853 1032.69 610.72 1033.04 609.28H1038.68C1038.15 612.16 1036.8 614.413 1034.64 616.04C1032.51 617.667 1029.76 618.48 1026.4 618.48ZM1045.57 626.8L1050.17 616.68H1048.97L1041.25 598.16H1046.81L1052.37 612.12L1058.17 598.16H1063.61L1051.01 626.8H1045.57ZM1074.96 618.48C1072.93 618.48 1071.15 618.04 1069.6 617.16C1068.05 616.28 1066.83 615.053 1065.92 613.48C1065.04 611.907 1064.6 610.107 1064.6 608.08C1064.6 606.053 1065.04 604.253 1065.92 602.68C1066.83 601.107 1068.05 599.88 1069.6 599C1071.15 598.12 1072.93 597.68 1074.96 597.68C1077.49 597.68 1079.63 598.347 1081.36 599.68C1083.09 600.987 1084.2 602.8 1084.68 605.12H1079.28C1079.01 604.16 1078.48 603.413 1077.68 602.88C1076.91 602.32 1075.99 602.04 1074.92 602.04C1073.51 602.04 1072.31 602.573 1071.32 603.64C1070.33 604.707 1069.84 606.187 1069.84 608.08C1069.84 609.973 1070.33 611.453 1071.32 612.52C1072.31 613.587 1073.51 614.12 1074.92 614.12C1075.99 614.12 1076.91 613.853 1077.68 613.32C1078.48 612.787 1079.01 612.027 1079.28 611.04H1084.68C1084.2 613.28 1083.09 615.08 1081.36 616.44C1079.63 617.8 1077.49 618.48 1074.96 618.48ZM1089.23 618V589.2H1094.35V618H1089.23ZM1109.22 618.48C1107.22 618.48 1105.44 618.053 1103.9 617.2C1102.35 616.347 1101.14 615.147 1100.26 613.6C1099.38 612.053 1098.94 610.267 1098.94 608.24C1098.94 606.187 1099.36 604.36 1100.22 602.76C1101.1 601.16 1102.3 599.92 1103.82 599.04C1105.36 598.133 1107.18 597.68 1109.26 597.68C1111.2 597.68 1112.92 598.107 1114.42 598.96C1115.91 599.813 1117.07 600.987 1117.9 602.48C1118.75 603.947 1119.18 605.587 1119.18 607.4C1119.18 607.693 1119.16 608 1119.14 608.32C1119.14 608.64 1119.12 608.973 1119.1 609.32H1104.02C1104.12 610.867 1104.66 612.08 1105.62 612.96C1106.6 613.84 1107.79 614.28 1109.18 614.28C1110.22 614.28 1111.08 614.053 1111.78 613.6C1112.5 613.12 1113.03 612.507 1113.38 611.76H1118.58C1118.2 613.013 1117.58 614.16 1116.7 615.2C1115.84 616.213 1114.78 617.013 1113.5 617.6C1112.24 618.187 1110.82 618.48 1109.22 618.48ZM1109.26 601.84C1108 601.84 1106.9 602.2 1105.94 602.92C1104.98 603.613 1104.36 604.68 1104.1 606.12H1113.98C1113.9 604.813 1113.42 603.773 1112.54 603C1111.66 602.227 1110.56 601.84 1109.26 601.84ZM1141.21 618.48C1139.45 618.48 1137.91 618.2 1136.57 617.64C1135.24 617.053 1134.17 616.253 1133.37 615.24C1132.57 614.227 1132.09 613.053 1131.93 611.72H1137.09C1137.25 612.493 1137.68 613.16 1138.37 613.72C1139.09 614.253 1140.01 614.52 1141.13 614.52C1142.25 614.52 1143.07 614.293 1143.57 613.84C1144.11 613.387 1144.37 612.867 1144.37 612.28C1144.37 611.427 1144 610.853 1143.25 610.56C1142.51 610.24 1141.47 609.933 1140.13 609.64C1139.28 609.453 1138.41 609.227 1137.53 608.96C1136.65 608.693 1135.84 608.36 1135.09 607.96C1134.37 607.533 1133.79 607 1133.33 606.36C1132.88 605.693 1132.65 604.88 1132.65 603.92C1132.65 602.16 1133.35 600.68 1134.73 599.48C1136.15 598.28 1138.12 597.68 1140.65 597.68C1143 597.68 1144.87 598.227 1146.25 599.32C1147.67 600.413 1148.51 601.92 1148.77 603.84H1143.93C1143.64 602.373 1142.53 601.64 1140.61 601.64C1139.65 601.64 1138.91 601.827 1138.37 602.2C1137.87 602.573 1137.61 603.04 1137.61 603.6C1137.61 604.187 1138 604.653 1138.77 605C1139.55 605.347 1140.57 605.667 1141.85 605.96C1143.24 606.28 1144.51 606.64 1145.65 607.04C1146.83 607.413 1147.76 607.987 1148.45 608.76C1149.15 609.507 1149.49 610.587 1149.49 612C1149.52 613.227 1149.2 614.333 1148.53 615.32C1147.87 616.307 1146.91 617.08 1145.65 617.64C1144.4 618.2 1142.92 618.48 1141.21 618.48ZM1161.47 618.48C1158.99 618.48 1157.07 617.707 1155.71 616.16C1154.38 614.613 1153.71 612.347 1153.71 609.36V598.16H1158.79V608.88C1158.79 610.587 1159.14 611.893 1159.83 612.8C1160.52 613.707 1161.62 614.16 1163.11 614.16C1164.52 614.16 1165.68 613.653 1166.59 612.64C1167.52 611.627 1167.99 610.213 1167.99 608.4V598.16H1173.11V618H1168.59L1168.19 614.64C1167.58 615.813 1166.68 616.747 1165.51 617.44C1164.36 618.133 1163.02 618.48 1161.47 618.48ZM1178.37 626.8V598.16H1182.93L1183.49 601C1184.13 600.12 1184.97 599.347 1186.01 598.68C1187.07 598.013 1188.45 597.68 1190.13 597.68C1191.99 597.68 1193.66 598.133 1195.13 599.04C1196.59 599.947 1197.75 601.187 1198.61 602.76C1199.46 604.333 1199.89 606.12 1199.89 608.12C1199.89 610.12 1199.46 611.907 1198.61 613.48C1197.75 615.027 1196.59 616.253 1195.13 617.16C1193.66 618.04 1191.99 618.48 1190.13 618.48C1188.63 618.48 1187.33 618.2 1186.21 617.64C1185.09 617.08 1184.18 616.293 1183.49 615.28V626.8H1178.37ZM1189.05 614C1190.67 614 1192.02 613.453 1193.09 612.36C1194.15 611.267 1194.69 609.853 1194.69 608.12C1194.69 606.387 1194.15 604.96 1193.09 603.84C1192.02 602.72 1190.67 602.16 1189.05 602.16C1187.39 602.16 1186.03 602.72 1184.97 603.84C1183.93 604.933 1183.41 606.347 1183.41 608.08C1183.41 609.813 1183.93 611.24 1184.97 612.36C1186.03 613.453 1187.39 614 1189.05 614ZM1214.1 618.48C1212.1 618.48 1210.33 618.053 1208.78 617.2C1207.23 616.347 1206.02 615.147 1205.14 613.6C1204.26 612.053 1203.82 610.267 1203.82 608.24C1203.82 606.187 1204.25 604.36 1205.1 602.76C1205.98 601.16 1207.18 599.92 1208.7 599.04C1210.25 598.133 1212.06 597.68 1214.14 597.68C1216.09 597.68 1217.81 598.107 1219.3 598.96C1220.79 599.813 1221.95 600.987 1222.78 602.48C1223.63 603.947 1224.06 605.587 1224.06 607.4C1224.06 607.693 1224.05 608 1224.02 608.32C1224.02 608.64 1224.01 608.973 1223.98 609.32H1208.9C1209.01 610.867 1209.54 612.08 1210.5 612.96C1211.49 613.84 1212.67 614.28 1214.06 614.28C1215.1 614.28 1215.97 614.053 1216.66 613.6C1217.38 613.12 1217.91 612.507 1218.26 611.76H1223.46C1223.09 613.013 1222.46 614.16 1221.58 615.2C1220.73 616.213 1219.66 617.013 1218.38 617.6C1217.13 618.187 1215.7 618.48 1214.1 618.48ZM1214.14 601.84C1212.89 601.84 1211.78 602.2 1210.82 602.92C1209.86 603.613 1209.25 604.68 1208.98 606.12H1218.86C1218.78 604.813 1218.3 603.773 1217.42 603C1216.54 602.227 1215.45 601.84 1214.14 601.84ZM1228.37 618V598.16H1232.93L1233.41 601.88C1234.13 600.6 1235.1 599.587 1236.33 598.84C1237.58 598.067 1239.05 597.68 1240.73 597.68V603.08H1239.29C1238.17 603.08 1237.17 603.253 1236.29 603.6C1235.41 603.947 1234.71 604.547 1234.21 605.4C1233.73 606.253 1233.49 607.44 1233.49 608.96V618H1228.37ZM1246.99 595.08C1246.05 595.08 1245.28 594.8 1244.67 594.24C1244.08 593.68 1243.79 592.973 1243.79 592.12C1243.79 591.267 1244.08 590.573 1244.67 590.04C1245.28 589.48 1246.05 589.2 1246.99 589.2C1247.92 589.2 1248.68 589.48 1249.27 590.04C1249.88 590.573 1250.19 591.267 1250.19 592.12C1250.19 592.973 1249.88 593.68 1249.27 594.24C1248.68 594.8 1247.92 595.08 1246.99 595.08ZM1244.43 618V598.16H1249.55V618H1244.43ZM1264.53 618.48C1262.53 618.48 1260.76 618.053 1259.21 617.2C1257.66 616.347 1256.45 615.147 1255.57 613.6C1254.69 612.053 1254.25 610.267 1254.25 608.24C1254.25 606.187 1254.68 604.36 1255.53 602.76C1256.41 601.16 1257.61 599.92 1259.13 599.04C1260.68 598.133 1262.49 597.68 1264.57 597.68C1266.52 597.68 1268.24 598.107 1269.73 598.96C1271.22 599.813 1272.38 600.987 1273.21 602.48C1274.06 603.947 1274.49 605.587 1274.49 607.4C1274.49 607.693 1274.48 608 1274.45 608.32C1274.45 608.64 1274.44 608.973 1274.41 609.32H1259.33C1259.44 610.867 1259.97 612.08 1260.93 612.96C1261.92 613.84 1263.1 614.28 1264.49 614.28C1265.53 614.28 1266.4 614.053 1267.09 613.6C1267.81 613.12 1268.34 612.507 1268.69 611.76H1273.89C1273.52 613.013 1272.89 614.16 1272.01 615.2C1271.16 616.213 1270.09 617.013 1268.81 617.6C1267.56 618.187 1266.13 618.48 1264.53 618.48ZM1264.57 601.84C1263.32 601.84 1262.21 602.2 1261.25 602.92C1260.29 603.613 1259.68 604.68 1259.41 606.12H1269.29C1269.21 604.813 1268.73 603.773 1267.85 603C1266.97 602.227 1265.88 601.84 1264.57 601.84ZM1286.24 618.48C1283.76 618.48 1281.84 617.707 1280.48 616.16C1279.14 614.613 1278.48 612.347 1278.48 609.36V598.16H1283.56V608.88C1283.56 610.587 1283.9 611.893 1284.6 612.8C1285.29 613.707 1286.38 614.16 1287.88 614.16C1289.29 614.16 1290.45 613.653 1291.36 612.64C1292.29 611.627 1292.76 610.213 1292.76 608.4V598.16H1297.88V618H1293.36L1292.96 614.64C1292.34 615.813 1291.45 616.747 1290.28 617.44C1289.13 618.133 1287.78 618.48 1286.24 618.48ZM1303.13 618V598.16H1307.69L1308.17 601.88C1308.89 600.6 1309.86 599.587 1311.09 598.84C1312.34 598.067 1313.81 597.68 1315.49 597.68V603.08H1314.05C1312.93 603.08 1311.93 603.253 1311.05 603.6C1310.17 603.947 1309.48 604.547 1308.97 605.4C1308.49 606.253 1308.25 607.44 1308.25 608.96V618H1303.13Z" fill="white"/>
<path d="M740.203 515.043L856.495 603.183L979.791 603.227" stroke="#00B2FF" stroke-width="4" stroke-dasharray="19 19"/>
<path d="M740.203 515.043L856.495 603.183L979.791 603.227" stroke="white" stroke-width="4" stroke-dasharray="19 19"/>
<path d="M278 791L739.499 791" stroke="#00B2FF" stroke-width="4" stroke-dasharray="19 19"/>
<path d="M278 791L739.499 791" stroke="#1D93F3" stroke-width="4" stroke-dasharray="19 19"/>
<ellipse cx="233.038" cy="639.82" rx="82.491" ry="82.5858" fill="#1D93F3"/>
<path d="M200.024 627.081L210.197 624.834L210.769 625.243L210.606 631.044V642.525C210.606 643.424 210.606 644.323 210.606 645.222C210.606 646.121 210.619 647.033 210.646 647.959L215.386 649.103V651.023H199.002V649.103L203.987 647.959C204.014 647.06 204.028 646.161 204.028 645.263C204.028 644.336 204.028 643.424 204.028 642.525V629.083L200.024 629.451V627.081ZM233.73 651.8C231.115 651.8 228.732 651.282 226.58 650.247C224.429 649.185 222.713 647.605 221.432 645.508C220.179 643.41 219.553 640.768 219.553 637.581C219.553 635.157 219.934 633.06 220.697 631.289C221.487 629.519 222.549 628.048 223.884 626.877C225.246 625.706 226.798 624.834 228.541 624.262C230.285 623.69 232.11 623.404 234.016 623.404C235.569 623.404 236.985 623.581 238.265 623.935C239.546 624.262 240.799 624.766 242.024 625.447L242.188 631.78H239.083L237.898 626.427C236.972 625.964 235.991 625.733 234.956 625.733C233.512 625.733 232.164 626.141 230.911 626.959C229.685 627.776 228.691 629.07 227.929 630.84C227.166 632.583 226.785 634.844 226.785 637.622C226.785 640.401 227.152 642.661 227.888 644.405C228.623 646.121 229.59 647.387 230.789 648.204C232.014 649.021 233.349 649.43 234.793 649.43C235.365 649.43 235.937 649.362 236.509 649.226C237.081 649.09 237.653 648.899 238.225 648.654L239.369 643.424H242.474L242.31 649.716C241.221 650.315 239.954 650.806 238.511 651.187C237.094 651.595 235.501 651.8 233.73 651.8ZM255.96 626.55H255.02C254.993 628.239 254.965 629.941 254.938 631.657C254.938 633.373 254.938 635.103 254.938 636.846V638.48H256.123C257.921 638.48 259.269 637.908 260.168 636.764C261.067 635.593 261.516 634.081 261.516 632.229C261.516 630.35 261.026 628.933 260.045 627.98C259.092 627.027 257.73 626.55 255.96 626.55ZM244.928 626.387V624.18H256.041C258.874 624.18 261.162 624.521 262.905 625.202C264.648 625.855 265.915 626.795 266.705 628.021C267.522 629.219 267.931 630.636 267.931 632.27C267.931 633.823 267.549 635.253 266.787 636.56C266.051 637.84 264.826 638.862 263.11 639.624C261.394 640.387 259.051 640.768 256.082 640.768H254.938C254.938 641.94 254.938 643.179 254.938 644.486C254.965 645.766 254.993 647.088 255.02 648.449L258.656 648.817V651.023H244.928V648.817L247.992 648.49C248.047 646.829 248.074 645.154 248.074 643.465C248.074 641.776 248.074 640.074 248.074 638.358V636.846C248.074 635.157 248.074 633.468 248.074 631.78C248.074 630.064 248.047 628.375 247.992 626.713L244.928 626.387Z" fill="white"/>
<ellipse cx="232.989" cy="780.157" rx="7.18792" ry="6.8409" fill="#1D93F3"/>
<line x1="232.66" y1="707.645" x2="232.66" y2="776.851" stroke="#1D93F3" stroke-width="2"/>
<ellipse cx="447.038" cy="541.82" rx="82.491" ry="82.5858" fill="#1D93F3"/>
<path d="M412.144 553.023V549.387C413.097 548.461 414.024 547.549 414.922 546.65C415.848 545.751 416.72 544.879 417.537 544.035C418.845 542.727 419.921 541.529 420.765 540.439C421.637 539.35 422.29 538.274 422.726 537.212C423.162 536.122 423.38 534.965 423.38 533.739C423.38 532.159 422.998 530.933 422.236 530.062C421.5 529.19 420.493 528.754 419.212 528.754C419.049 528.754 418.872 528.754 418.681 528.754C418.518 528.754 418.354 528.768 418.191 528.795L417.66 531.696C417.469 533.112 417.074 534.052 416.475 534.515C415.876 534.951 415.263 535.169 414.636 535.169C414.064 535.169 413.533 535.019 413.043 534.719C412.58 534.42 412.226 534.011 411.981 533.494C412.035 531.996 412.498 530.743 413.37 529.735C414.241 528.7 415.385 527.924 416.802 527.406C418.218 526.888 419.771 526.63 421.46 526.63C423.448 526.63 425.055 526.943 426.281 527.569C427.534 528.196 428.46 529.04 429.059 530.103C429.658 531.165 429.958 532.363 429.958 533.698C429.958 535.005 429.617 536.272 428.936 537.498C428.255 538.723 427.193 539.976 425.75 541.257C424.306 542.537 422.454 543.953 420.193 545.506C419.648 545.887 419.076 546.282 418.477 546.691C417.878 547.099 417.265 547.535 416.638 547.998H430.489V553.023H412.144ZM447.73 553.8C445.115 553.8 442.732 553.282 440.58 552.247C438.429 551.185 436.713 549.605 435.432 547.508C434.179 545.41 433.553 542.768 433.553 539.581C433.553 537.157 433.934 535.06 434.697 533.289C435.487 531.519 436.549 530.048 437.884 528.877C439.246 527.706 440.798 526.834 442.541 526.262C444.285 525.69 446.11 525.404 448.016 525.404C449.569 525.404 450.985 525.581 452.265 525.935C453.546 526.262 454.799 526.766 456.024 527.447L456.188 533.78H453.083L451.898 528.427C450.972 527.964 449.991 527.733 448.956 527.733C447.512 527.733 446.164 528.141 444.911 528.959C443.685 529.776 442.691 531.07 441.929 532.84C441.166 534.583 440.785 536.844 440.785 539.622C440.785 542.401 441.152 544.661 441.888 546.405C442.623 548.121 443.59 549.387 444.789 550.204C446.014 551.021 447.349 551.43 448.793 551.43C449.365 551.43 449.937 551.362 450.509 551.226C451.081 551.09 451.653 550.899 452.225 550.654L453.369 545.424H456.474L456.31 551.716C455.221 552.315 453.954 552.806 452.511 553.187C451.094 553.595 449.501 553.8 447.73 553.8ZM469.96 528.55H469.02C468.993 530.239 468.965 531.941 468.938 533.657C468.938 535.373 468.938 537.103 468.938 538.846V540.48H470.123C471.921 540.48 473.269 539.908 474.168 538.764C475.067 537.593 475.516 536.081 475.516 534.229C475.516 532.35 475.026 530.933 474.045 529.98C473.092 529.027 471.73 528.55 469.96 528.55ZM458.928 528.387V526.18H470.041C472.874 526.18 475.162 526.521 476.905 527.202C478.648 527.855 479.915 528.795 480.705 530.021C481.522 531.219 481.931 532.636 481.931 534.27C481.931 535.823 481.549 537.253 480.787 538.56C480.051 539.84 478.826 540.862 477.11 541.624C475.394 542.387 473.051 542.768 470.082 542.768H468.938C468.938 543.94 468.938 545.179 468.938 546.486C468.965 547.766 468.993 549.088 469.02 550.449L472.656 550.817V553.023H458.928V550.817L461.992 550.49C462.047 548.829 462.074 547.154 462.074 545.465C462.074 543.776 462.074 542.074 462.074 540.358V538.846C462.074 537.157 462.074 535.468 462.074 533.78C462.074 532.064 462.047 530.375 461.992 528.713L458.928 528.387Z" fill="white"/>
<ellipse cx="446.989" cy="682.157" rx="7.18792" ry="6.8409" fill="#1D93F3"/>
<line x1="446.66" y1="609.645" x2="446.66" y2="678.851" stroke="#1D93F3" stroke-width="2"/>
<ellipse cx="724.038" cy="362.82" rx="82.491" ry="82.5858" fill="white"/>
<path d="M691.024 350.081L701.197 347.834L701.769 348.243L701.606 354.044V365.525C701.606 366.424 701.606 367.323 701.606 368.222C701.606 369.121 701.619 370.033 701.646 370.959L706.386 372.103V374.023H690.002V372.103L694.987 370.959C695.014 370.06 695.028 369.161 695.028 368.263C695.028 367.336 695.028 366.424 695.028 365.525V352.083L691.024 352.451V350.081ZM724.73 374.8C722.115 374.8 719.732 374.282 717.58 373.247C715.429 372.185 713.713 370.605 712.432 368.508C711.179 366.41 710.553 363.768 710.553 360.581C710.553 358.157 710.934 356.06 711.697 354.289C712.487 352.519 713.549 351.048 714.884 349.877C716.246 348.706 717.798 347.834 719.541 347.262C721.285 346.69 723.11 346.404 725.016 346.404C726.569 346.404 727.985 346.581 729.265 346.935C730.546 347.262 731.799 347.766 733.024 348.447L733.188 354.78H730.083L728.898 349.427C727.972 348.964 726.991 348.733 725.956 348.733C724.512 348.733 723.164 349.141 721.911 349.959C720.685 350.776 719.691 352.07 718.929 353.84C718.166 355.583 717.785 357.844 717.785 360.622C717.785 363.401 718.152 365.661 718.888 367.405C719.623 369.121 720.59 370.387 721.789 371.204C723.014 372.021 724.349 372.43 725.793 372.43C726.365 372.43 726.937 372.362 727.509 372.226C728.081 372.09 728.653 371.899 729.225 371.654L730.369 366.424H733.474L733.31 372.716C732.221 373.315 730.954 373.806 729.511 374.187C728.094 374.595 726.501 374.8 724.73 374.8ZM744.835 374.8C743.31 374.8 741.743 374.623 740.136 374.269C738.529 373.914 737.14 373.37 735.969 372.634L736.214 366.587H740.014L740.831 371.613C741.457 371.858 742.084 372.049 742.71 372.185C743.337 372.294 744.031 372.348 744.794 372.348C746.265 372.348 747.382 371.981 748.144 371.245C748.907 370.482 749.288 369.556 749.288 368.467C749.288 367.377 749.002 366.533 748.43 365.934C747.886 365.334 747 364.762 745.775 364.218L744.018 363.441C741.621 362.325 739.755 361.085 738.42 359.723C737.113 358.362 736.459 356.55 736.459 354.289C736.459 351.838 737.372 349.918 739.197 348.529C741.049 347.112 743.514 346.404 746.592 346.404C748.063 346.404 749.465 346.595 750.8 346.976C752.162 347.33 753.333 347.834 754.314 348.488L753.987 354.208H750.228L749.452 349.387C749.016 349.223 748.58 349.101 748.144 349.019C747.709 348.91 747.232 348.855 746.714 348.855C745.543 348.855 744.549 349.196 743.732 349.877C742.915 350.558 742.506 351.457 742.506 352.573C742.506 353.663 742.819 354.535 743.446 355.188C744.1 355.815 745.026 356.4 746.224 356.945L748.144 357.803C750.732 358.974 752.598 360.214 753.742 361.521C754.913 362.801 755.499 364.476 755.499 366.547C755.499 368.944 754.586 370.918 752.761 372.471C750.964 374.023 748.321 374.8 744.835 374.8Z" fill="#1B76FF"/>
<ellipse cx="723.989" cy="503.157" rx="7.18792" ry="6.8409" fill="white"/>
<line x1="723.66" y1="430.645" x2="723.66" y2="499.851" stroke="white" stroke-width="2"/>
<ellipse cx="934.038" cy="212.82" rx="82.491" ry="82.5858" fill="white"/>
<path d="M899.144 224.023V220.387C900.097 219.461 901.024 218.549 901.922 217.65C902.848 216.751 903.72 215.879 904.537 215.035C905.845 213.727 906.921 212.529 907.765 211.439C908.637 210.35 909.29 209.274 909.726 208.212C910.162 207.122 910.38 205.965 910.38 204.739C910.38 203.159 909.998 201.933 909.236 201.062C908.5 200.19 907.493 199.754 906.212 199.754C906.049 199.754 905.872 199.754 905.681 199.754C905.518 199.754 905.354 199.768 905.191 199.795L904.66 202.696C904.469 204.112 904.074 205.052 903.475 205.515C902.876 205.951 902.263 206.169 901.636 206.169C901.064 206.169 900.533 206.019 900.043 205.719C899.58 205.42 899.226 205.011 898.981 204.494C899.035 202.996 899.498 201.743 900.37 200.735C901.241 199.7 902.385 198.924 903.802 198.406C905.218 197.888 906.771 197.63 908.46 197.63C910.448 197.63 912.055 197.943 913.281 198.569C914.534 199.196 915.46 200.04 916.059 201.103C916.658 202.165 916.958 203.363 916.958 204.698C916.958 206.005 916.617 207.272 915.936 208.498C915.255 209.723 914.193 210.976 912.75 212.257C911.306 213.537 909.454 214.953 907.193 216.506C906.648 216.887 906.076 217.282 905.477 217.691C904.878 218.099 904.265 218.535 903.638 218.998H917.489V224.023H899.144ZM934.73 224.8C932.115 224.8 929.732 224.282 927.58 223.247C925.429 222.185 923.713 220.605 922.432 218.508C921.179 216.41 920.553 213.768 920.553 210.581C920.553 208.157 920.934 206.06 921.697 204.289C922.487 202.519 923.549 201.048 924.884 199.877C926.246 198.706 927.798 197.834 929.541 197.262C931.285 196.69 933.11 196.404 935.016 196.404C936.569 196.404 937.985 196.581 939.265 196.935C940.546 197.262 941.799 197.766 943.024 198.447L943.188 204.78H940.083L938.898 199.427C937.972 198.964 936.991 198.733 935.956 198.733C934.512 198.733 933.164 199.141 931.911 199.959C930.685 200.776 929.691 202.07 928.929 203.84C928.166 205.583 927.785 207.844 927.785 210.622C927.785 213.401 928.152 215.661 928.888 217.405C929.623 219.121 930.59 220.387 931.789 221.204C933.014 222.021 934.349 222.43 935.793 222.43C936.365 222.43 936.937 222.362 937.509 222.226C938.081 222.09 938.653 221.899 939.225 221.654L940.369 216.424H943.474L943.31 222.716C942.221 223.315 940.954 223.806 939.511 224.187C938.094 224.595 936.501 224.8 934.73 224.8ZM954.835 224.8C953.31 224.8 951.743 224.623 950.136 224.269C948.529 223.914 947.14 223.37 945.969 222.634L946.214 216.587H950.014L950.831 221.613C951.457 221.858 952.084 222.049 952.71 222.185C953.337 222.294 954.031 222.348 954.794 222.348C956.265 222.348 957.382 221.981 958.144 221.245C958.907 220.482 959.288 219.556 959.288 218.467C959.288 217.377 959.002 216.533 958.43 215.934C957.886 215.334 957 214.762 955.775 214.218L954.018 213.441C951.621 212.325 949.755 211.085 948.42 209.723C947.113 208.362 946.459 206.55 946.459 204.289C946.459 201.838 947.372 199.918 949.197 198.529C951.049 197.112 953.514 196.404 956.592 196.404C958.063 196.404 959.465 196.595 960.8 196.976C962.162 197.33 963.333 197.834 964.314 198.488L963.987 204.208H960.228L959.452 199.387C959.016 199.223 958.58 199.101 958.144 199.019C957.709 198.91 957.232 198.855 956.714 198.855C955.543 198.855 954.549 199.196 953.732 199.877C952.915 200.558 952.506 201.457 952.506 202.573C952.506 203.663 952.819 204.535 953.446 205.188C954.1 205.815 955.026 206.4 956.224 206.945L958.144 207.803C960.732 208.974 962.598 210.214 963.742 211.521C964.913 212.801 965.499 214.476 965.499 216.547C965.499 218.944 964.586 220.918 962.761 222.471C960.964 224.023 958.321 224.8 954.835 224.8Z" fill="#1B76FF"/>
<ellipse cx="933.989" cy="353.157" rx="7.18792" ry="6.8409" fill="white"/>
<line x1="933.66" y1="280.645" x2="933.66" y2="349.851" stroke="white" stroke-width="2"/>
<ellipse cx="1185.04" cy="197.82" rx="82.491" ry="82.5858" fill="white"/>
<path d="M1155.46 194.478H1156.64C1158.19 194.478 1159.41 194.083 1160.28 193.293C1161.18 192.476 1161.62 191.182 1161.62 189.412C1161.62 187.859 1161.26 186.702 1160.52 185.939C1159.81 185.149 1158.79 184.754 1157.46 184.754C1157.35 184.754 1157.23 184.754 1157.09 184.754C1156.95 184.754 1156.82 184.768 1156.68 184.795L1156.27 187.451C1156.11 188.486 1155.74 189.221 1155.17 189.657C1154.62 190.066 1153.98 190.27 1153.25 190.27C1152.21 190.27 1151.45 189.834 1150.96 188.963C1151.04 187.464 1151.45 186.252 1152.19 185.326C1152.95 184.4 1153.93 183.719 1155.13 183.283C1156.35 182.848 1157.66 182.63 1159.05 182.63C1162.07 182.63 1164.32 183.256 1165.79 184.509C1167.29 185.762 1168.04 187.315 1168.04 189.167C1168.04 190.447 1167.59 191.673 1166.69 192.844C1165.79 194.015 1164.31 194.873 1162.24 195.418C1164.63 195.854 1166.32 196.657 1167.3 197.829C1168.31 198.973 1168.82 200.43 1168.82 202.2C1168.82 203.617 1168.41 204.897 1167.59 206.041C1166.8 207.158 1165.64 208.043 1164.12 208.697C1162.62 209.323 1160.79 209.636 1158.64 209.636C1155.81 209.636 1153.64 209.051 1152.15 207.879C1150.65 206.708 1149.84 205.047 1149.74 202.895C1149.98 202.241 1150.33 201.778 1150.8 201.506C1151.29 201.206 1151.78 201.056 1152.27 201.056C1153.11 201.056 1153.78 201.315 1154.27 201.833C1154.76 202.35 1155.1 203.303 1155.29 204.693L1155.66 207.43C1155.82 207.457 1155.97 207.484 1156.11 207.512C1156.27 207.512 1156.44 207.512 1156.6 207.512C1160.28 207.512 1162.12 205.673 1162.12 201.996C1162.12 200.307 1161.67 199.013 1160.77 198.115C1159.87 197.216 1158.57 196.766 1156.89 196.766H1155.46V194.478ZM1185.73 209.8C1183.12 209.8 1180.73 209.282 1178.58 208.247C1176.43 207.185 1174.71 205.605 1173.43 203.508C1172.18 201.41 1171.55 198.768 1171.55 195.581C1171.55 193.157 1171.93 191.06 1172.7 189.289C1173.49 187.519 1174.55 186.048 1175.88 184.877C1177.25 183.706 1178.8 182.834 1180.54 182.262C1182.28 181.69 1184.11 181.404 1186.02 181.404C1187.57 181.404 1188.99 181.581 1190.27 181.935C1191.55 182.262 1192.8 182.766 1194.02 183.447L1194.19 189.78H1191.08L1189.9 184.427C1188.97 183.964 1187.99 183.733 1186.96 183.733C1185.51 183.733 1184.16 184.141 1182.91 184.959C1181.69 185.776 1180.69 187.07 1179.93 188.84C1179.17 190.583 1178.78 192.844 1178.78 195.622C1178.78 198.401 1179.15 200.661 1179.89 202.405C1180.62 204.121 1181.59 205.387 1182.79 206.204C1184.01 207.021 1185.35 207.43 1186.79 207.43C1187.36 207.43 1187.94 207.362 1188.51 207.226C1189.08 207.09 1189.65 206.899 1190.22 206.654L1191.37 201.424H1194.47L1194.31 207.716C1193.22 208.315 1191.95 208.806 1190.51 209.187C1189.09 209.595 1187.5 209.8 1185.73 209.8ZM1205.83 209.8C1204.31 209.8 1202.74 209.623 1201.14 209.269C1199.53 208.914 1198.14 208.37 1196.97 207.634L1197.21 201.587H1201.01L1201.83 206.613C1202.46 206.858 1203.08 207.049 1203.71 207.185C1204.34 207.294 1205.03 207.348 1205.79 207.348C1207.26 207.348 1208.38 206.981 1209.14 206.245C1209.91 205.482 1210.29 204.556 1210.29 203.467C1210.29 202.377 1210 201.533 1209.43 200.934C1208.89 200.334 1208 199.762 1206.77 199.218L1205.02 198.441C1202.62 197.325 1200.76 196.085 1199.42 194.723C1198.11 193.362 1197.46 191.55 1197.46 189.289C1197.46 186.838 1198.37 184.918 1200.2 183.529C1202.05 182.112 1204.51 181.404 1207.59 181.404C1209.06 181.404 1210.47 181.595 1211.8 181.976C1213.16 182.33 1214.33 182.834 1215.31 183.488L1214.99 189.208H1211.23L1210.45 184.387C1210.02 184.223 1209.58 184.101 1209.14 184.019C1208.71 183.91 1208.23 183.855 1207.71 183.855C1206.54 183.855 1205.55 184.196 1204.73 184.877C1203.91 185.558 1203.51 186.457 1203.51 187.573C1203.51 188.663 1203.82 189.535 1204.45 190.188C1205.1 190.815 1206.03 191.4 1207.22 191.945L1209.14 192.803C1211.73 193.974 1213.6 195.214 1214.74 196.521C1215.91 197.801 1216.5 199.476 1216.5 201.547C1216.5 203.944 1215.59 205.918 1213.76 207.471C1211.96 209.023 1209.32 209.8 1205.83 209.8Z" fill="#1B76FF"/>
<ellipse cx="1184.99" cy="338.157" rx="7.18792" ry="6.8409" fill="white"/>
<line x1="1184.66" y1="265.645" x2="1184.66" y2="334.851" stroke="white" stroke-width="2"/>
<path d="M584.002 504.498L658.502 535.998L636.501 542.499L566.258 512.023L584.002 504.498Z" fill="white"/>
<path d="M590.344 518.402L522.489 353.658L449.461 355.011" stroke="#00B2FF" stroke-width="4"/>
</g>
<defs>
<clipPath id="clip0_1476_9676">
<rect width="1444" height="887" fill="white" transform="translate(-1)"/>
</clipPath>
</defs>
</svg>
